G04*
G04 #@! TF.GenerationSoftware,Altium Limited,Altium Designer,21.6.1 (37)*
G04*
G04 Layer_Color=8388736*
%FSLAX25Y25*%
%MOIN*%
G70*
G04*
G04 #@! TF.SameCoordinates,149CC93B-E584-47E2-A3B6-F303EE062418*
G04*
G04*
G04 #@! TF.FilePolarity,Negative*
G04*
G01*
G75*
%ADD23R,0.05131X0.06312*%
%ADD24O,0.06509X0.03162*%
%ADD25R,0.04343X0.06312*%
%ADD26R,0.04147X0.06115*%
%ADD27R,0.06115X0.04147*%
%ADD28C,0.07493*%
%ADD29O,0.06706X0.03950*%
%ADD30C,0.05800*%
D23*
X114567Y37402D02*
D03*
X121653D02*
D03*
X172835Y11811D02*
D03*
X165748D02*
D03*
X166142Y25591D02*
D03*
X173228D02*
D03*
X83071Y35433D02*
D03*
X90158D02*
D03*
D24*
X128839Y12185D02*
D03*
Y17185D02*
D03*
Y22185D02*
D03*
Y27185D02*
D03*
X107382Y12185D02*
D03*
Y17185D02*
D03*
Y22185D02*
D03*
Y27185D02*
D03*
D25*
X173130Y66929D02*
D03*
X165453D02*
D03*
X82776Y11811D02*
D03*
X90453D02*
D03*
D26*
X82776Y45276D02*
D03*
X90453D02*
D03*
X173130Y39370D02*
D03*
X165453D02*
D03*
X82776Y70866D02*
D03*
X90453D02*
D03*
X165453Y53150D02*
D03*
X173130D02*
D03*
X90453Y23622D02*
D03*
X82776D02*
D03*
D27*
X86614Y62894D02*
D03*
Y55216D02*
D03*
D28*
X28622Y29370D02*
D03*
Y39370D02*
D03*
Y49370D02*
D03*
X18622Y29370D02*
D03*
Y39370D02*
D03*
Y49370D02*
D03*
D29*
X188976Y44370D02*
D03*
Y39370D02*
D03*
Y34370D02*
D03*
D30*
X101181Y5906D02*
D03*
X114173Y51181D02*
D03*
X72835Y19685D02*
D03*
X159449Y25591D02*
D03*
X49213Y51181D02*
D03*
X55118Y68898D02*
D03*
M02*
