G04*
G04 #@! TF.GenerationSoftware,Altium Limited,Altium Designer,21.6.1 (37)*
G04*
G04 Layer_Physical_Order=1*
G04 Layer_Color=255*
%FSLAX25Y25*%
%MOIN*%
G70*
G04*
G04 #@! TF.SameCoordinates,149CC93B-E584-47E2-A3B6-F303EE062418*
G04*
G04*
G04 #@! TF.FilePolarity,Positive*
G04*
G01*
G75*
%ADD18R,0.04331X0.05512*%
%ADD19O,0.05709X0.02362*%
%ADD20R,0.03543X0.05512*%
%ADD21R,0.03347X0.05315*%
%ADD22R,0.05315X0.03347*%
%ADD31C,0.02000*%
%ADD32C,0.01500*%
%ADD33C,0.06693*%
%ADD34O,0.05906X0.03150*%
%ADD35C,0.05000*%
G36*
X81126Y68866D02*
X81106Y69056D01*
X81046Y69226D01*
X80945Y69376D01*
X80804Y69506D01*
X80623Y69616D01*
X80402Y69706D01*
X80141Y69776D01*
X79839Y69826D01*
X79497Y69856D01*
X79114Y69866D01*
Y71866D01*
X79497Y71876D01*
X79839Y71906D01*
X80141Y71956D01*
X80402Y72026D01*
X80623Y72116D01*
X80804Y72226D01*
X80945Y72356D01*
X81046Y72506D01*
X81106Y72676D01*
X81126Y72866D01*
Y68866D01*
D02*
G37*
G36*
X91810Y68217D02*
X91683Y68172D01*
X91570Y68097D01*
X91473Y67991D01*
X91390Y67855D01*
X91323Y67688D01*
X91270Y67492D01*
X91233Y67265D01*
X91210Y67008D01*
X91203Y66721D01*
X89703D01*
X89695Y67008D01*
X89673Y67265D01*
X89635Y67492D01*
X89583Y67688D01*
X89515Y67855D01*
X89433Y67991D01*
X89335Y68097D01*
X89223Y68172D01*
X89095Y68217D01*
X88953Y68233D01*
X91953D01*
X91810Y68217D01*
D02*
G37*
G36*
X174910Y68739D02*
X174970Y68569D01*
X175070Y68419D01*
X175210Y68289D01*
X175390Y68179D01*
X175610Y68089D01*
X175870Y68019D01*
X176170Y67969D01*
X176510Y67939D01*
X176890Y67929D01*
Y65929D01*
X176510Y65919D01*
X176170Y65889D01*
X175870Y65839D01*
X175610Y65769D01*
X175390Y65679D01*
X175210Y65569D01*
X175070Y65439D01*
X174970Y65289D01*
X174910Y65119D01*
X174890Y64929D01*
Y68929D01*
X174910Y68739D01*
D02*
G37*
G36*
X90320Y64555D02*
X90022Y64246D01*
X89553Y63693D01*
X89382Y63449D01*
X89254Y63226D01*
X89168Y63025D01*
X89124Y62845D01*
X89123Y62686D01*
X89164Y62549D01*
X89248Y62434D01*
X87138Y64543D01*
X87254Y64459D01*
X87391Y64418D01*
X87550Y64419D01*
X87729Y64463D01*
X87931Y64549D01*
X88154Y64677D01*
X88398Y64848D01*
X88664Y65062D01*
X89260Y65616D01*
X90320Y64555D01*
D02*
G37*
G36*
X167068Y64165D02*
X166939Y64105D01*
X166825Y64005D01*
X166726Y63865D01*
X166643Y63685D01*
X166574Y63465D01*
X166521Y63205D01*
X166483Y62905D01*
X166460Y62565D01*
X166453Y62185D01*
X164453D01*
X164445Y62565D01*
X164384Y63205D01*
X164331Y63465D01*
X164263Y63685D01*
X164179Y63865D01*
X164081Y64005D01*
X163967Y64105D01*
X163837Y64165D01*
X163693Y64185D01*
X167212D01*
X167068Y64165D01*
D02*
G37*
G36*
X166459Y57415D02*
X166512Y56775D01*
X166559Y56515D01*
X166618Y56295D01*
X166691Y56115D01*
X166777Y55975D01*
X166876Y55875D01*
X166988Y55815D01*
X167114Y55795D01*
X163792D01*
X163917Y55815D01*
X164030Y55875D01*
X164129Y55975D01*
X164215Y56115D01*
X164287Y56295D01*
X164347Y56515D01*
X164393Y56775D01*
X164426Y57075D01*
X164453Y57795D01*
X166453D01*
X166459Y57415D01*
D02*
G37*
G36*
X196417Y78588D02*
X196698Y78307D01*
X196850Y77939D01*
Y57071D01*
X194850Y56243D01*
X182633Y68460D01*
X181102Y69094D01*
X176041D01*
X175957Y69117D01*
X175917Y69133D01*
X175902Y69161D01*
Y70685D01*
X173630D01*
Y66929D01*
Y63173D01*
X175902D01*
Y64697D01*
X175917Y64725D01*
X175957Y64742D01*
X176041Y64764D01*
X180206D01*
X191930Y53040D01*
Y48210D01*
X190354Y47157D01*
X187598D01*
X186477Y46692D01*
X186232Y46650D01*
X186188Y46622D01*
X186172Y46615D01*
X186099Y46591D01*
X185975Y46562D01*
X185835Y46537D01*
X185808Y46535D01*
X182165D01*
X180635Y45901D01*
X177791Y43057D01*
X177153Y43048D01*
X175295Y44815D01*
Y49492D01*
X175803Y49492D01*
X175874Y50504D01*
X175854Y50551D01*
X175860Y50674D01*
X175803Y50767D01*
Y56807D01*
X170457D01*
Y50767D01*
X170400Y50674D01*
X170406Y50551D01*
X170386Y50504D01*
X170457Y49492D01*
X170469Y49440D01*
X169328Y47702D01*
X168849Y47440D01*
X167094D01*
X167059Y47492D01*
X168126Y49492D01*
X168126D01*
Y54807D01*
X168126Y55532D01*
X168183Y55625D01*
X168177Y55748D01*
X168196Y55795D01*
X168126Y56807D01*
X168126D01*
X167617Y57316D01*
Y63164D01*
X167619Y63173D01*
X168224Y63173D01*
X168295Y64185D01*
X168279Y64224D01*
X168285Y64334D01*
X168224Y64436D01*
Y70685D01*
X162681D01*
Y65173D01*
X162681Y64436D01*
X162621Y64334D01*
X162627Y64224D01*
X162611Y64185D01*
X162681Y63173D01*
X163288Y61174D01*
Y56807D01*
X162779Y56807D01*
X162709Y55795D01*
X162729Y55748D01*
X162723Y55625D01*
X162779Y55532D01*
Y52491D01*
X160780Y51214D01*
X160384Y51377D01*
X152471D01*
X151137Y52712D01*
X149606Y53346D01*
X135827D01*
X134296Y52712D01*
X127308Y45724D01*
X126674Y44193D01*
Y41508D01*
X124819Y41157D01*
Y41157D01*
X119732D01*
X118479Y41157D01*
X116535Y43138D01*
Y48170D01*
X116569Y48286D01*
X116613Y48403D01*
X116852Y48502D01*
X117754Y50681D01*
X110592D01*
X111495Y48502D01*
X112018Y48285D01*
X112072Y48211D01*
X112123Y48125D01*
X112168Y48029D01*
X112205Y47924D01*
Y41277D01*
X112185Y41199D01*
X112169Y41157D01*
X111402D01*
X111331Y40149D01*
X111343Y40120D01*
X111338Y40027D01*
X111402Y39911D01*
Y37902D01*
X114567D01*
Y36902D01*
X111402D01*
Y33646D01*
X112357D01*
X112361Y33643D01*
X112379Y33600D01*
X112402Y33513D01*
Y29647D01*
X112105Y29350D01*
X109706D01*
X109687Y29356D01*
X109675Y29355D01*
X109659Y29358D01*
X109616Y29350D01*
X109614Y29350D01*
X109528D01*
X109055Y29546D01*
X107882D01*
Y27185D01*
X106882D01*
Y29546D01*
X105709D01*
X104819Y29177D01*
X102819Y30248D01*
Y51247D01*
X102265Y52586D01*
X93206Y61645D01*
X92252Y62040D01*
X91697Y63396D01*
X91583Y64199D01*
X91792Y64409D01*
X92347Y65748D01*
Y67209D01*
X93126D01*
Y71093D01*
X94893Y71850D01*
X96260Y70727D01*
Y66929D01*
X96895Y65398D01*
X110417Y51876D01*
X110471Y51770D01*
X110506Y51681D01*
X111628D01*
X111598Y51823D01*
X111536Y52022D01*
X111457Y52218D01*
X111359Y52412D01*
X111243Y52602D01*
X111108Y52789D01*
X110956Y52974D01*
X110785Y53155D01*
X112199Y54569D01*
X112381Y54398D01*
X112565Y54246D01*
X112752Y54112D01*
X112943Y53996D01*
X113136Y53898D01*
X113332Y53818D01*
X113532Y53756D01*
X113673Y53726D01*
Y54848D01*
X113585Y54884D01*
X113478Y54938D01*
X100590Y67826D01*
Y71663D01*
X99956Y73194D01*
X96410Y76740D01*
X97238Y78740D01*
X196049D01*
X196417Y78588D01*
D02*
G37*
G36*
X86090Y53555D02*
X85973Y53640D01*
X85835Y53683D01*
X85676D01*
X85496Y53640D01*
X85295Y53555D01*
X85072Y53428D01*
X84828Y53258D01*
X84563Y53046D01*
X83969Y52495D01*
X82908Y53555D01*
X83205Y53863D01*
X83672Y54414D01*
X83841Y54658D01*
X83969Y54881D01*
X84053Y55083D01*
X84096Y55263D01*
Y55422D01*
X84053Y55560D01*
X83969Y55677D01*
X86090Y53555D01*
D02*
G37*
G36*
X22902Y51762D02*
X22705Y51553D01*
X22531Y51345D01*
X22379Y51136D01*
X22250Y50927D01*
X22144Y50718D01*
X22061Y50509D01*
X22000Y50300D01*
X21962Y50091D01*
X21947Y49882D01*
X21955Y49672D01*
X20054Y52395D01*
X20238Y52320D01*
X20421Y52272D01*
X20603Y52250D01*
X20783Y52253D01*
X20963Y52283D01*
X21141Y52339D01*
X21318Y52421D01*
X21494Y52529D01*
X21668Y52662D01*
X21842Y52822D01*
X22902Y51762D01*
D02*
G37*
G36*
X25576Y52662D02*
X25751Y52529D01*
X25926Y52421D01*
X26103Y52339D01*
X26282Y52283D01*
X26461Y52253D01*
X26641Y52250D01*
X26823Y52272D01*
X27006Y52320D01*
X27190Y52395D01*
X25289Y49672D01*
X25297Y49882D01*
X25282Y50091D01*
X25244Y50300D01*
X25183Y50509D01*
X25100Y50718D01*
X24994Y50927D01*
X24865Y51136D01*
X24713Y51345D01*
X24539Y51553D01*
X24342Y51762D01*
X25402Y52822D01*
X25576Y52662D01*
D02*
G37*
G36*
X174665Y50484D02*
X174553Y50424D01*
X174454Y50324D01*
X174368Y50184D01*
X174295Y50004D01*
X174236Y49784D01*
X174189Y49524D01*
X174156Y49224D01*
X174130Y48504D01*
X172130D01*
X172123Y48884D01*
X172070Y49524D01*
X172024Y49784D01*
X171965Y50004D01*
X171892Y50184D01*
X171806Y50324D01*
X171707Y50424D01*
X171594Y50484D01*
X171469Y50504D01*
X174791D01*
X174665Y50484D01*
D02*
G37*
G36*
X83533Y49134D02*
X83556Y48877D01*
X83593Y48650D01*
X83646Y48453D01*
X83713Y48287D01*
X83796Y48151D01*
X83893Y48045D01*
X84006Y47969D01*
X84133Y47924D01*
X84276Y47909D01*
X81276D01*
X81418Y47924D01*
X81546Y47969D01*
X81658Y48045D01*
X81756Y48151D01*
X81838Y48287D01*
X81906Y48453D01*
X81958Y48650D01*
X81996Y48877D01*
X82018Y49134D01*
X82026Y49421D01*
X83526D01*
X83533Y49134D01*
D02*
G37*
G36*
X49188Y48681D02*
X48979Y48674D01*
X48774Y48649D01*
X48571Y48606D01*
X48372Y48544D01*
X48175Y48465D01*
X47982Y48367D01*
X47792Y48250D01*
X47604Y48116D01*
X47420Y47964D01*
X47239Y47793D01*
X45825Y49207D01*
X45995Y49389D01*
X46148Y49573D01*
X46282Y49760D01*
X46398Y49951D01*
X46496Y50144D01*
X46576Y50340D01*
X46637Y50540D01*
X46681Y50742D01*
X46706Y50948D01*
X46713Y51156D01*
X49188Y48681D01*
D02*
G37*
G36*
X115928Y49376D02*
X115811Y49204D01*
X115707Y49022D01*
X115618Y48831D01*
X115542Y48631D01*
X115480Y48421D01*
X115432Y48201D01*
X115398Y47972D01*
X115377Y47734D01*
X115370Y47486D01*
X113370Y47314D01*
X113362Y47563D01*
X113338Y47801D01*
X113298Y48027D01*
X113242Y48240D01*
X113170Y48441D01*
X113082Y48630D01*
X112978Y48807D01*
X112857Y48971D01*
X112721Y49123D01*
X112569Y49264D01*
X116058Y49539D01*
X115928Y49376D01*
D02*
G37*
G36*
X186810Y43005D02*
X186700Y43074D01*
X186561Y43136D01*
X186393Y43191D01*
X186196Y43239D01*
X185969Y43279D01*
X185427Y43337D01*
X184769Y43366D01*
X184396Y43370D01*
Y45370D01*
X184769Y45374D01*
X185969Y45461D01*
X186196Y45502D01*
X186393Y45549D01*
X186561Y45604D01*
X186700Y45666D01*
X186810Y45735D01*
Y43005D01*
D02*
G37*
G36*
X174130Y45276D02*
X173290Y44016D01*
X174130D01*
X174136Y43636D01*
X174189Y42996D01*
X174236Y42736D01*
X174295Y42516D01*
X174368Y42336D01*
X174454Y42196D01*
X174553Y42096D01*
X174665Y42036D01*
X174791Y42016D01*
X171469D01*
X171594Y42036D01*
X171707Y42096D01*
X171806Y42196D01*
X171892Y42336D01*
X171965Y42516D01*
X172024Y42736D01*
X172060Y42938D01*
X172050Y42996D01*
X171950Y43296D01*
X171810Y43556D01*
X171630Y43776D01*
X171410Y43956D01*
X171150Y44096D01*
X170850Y44196D01*
X170510Y44256D01*
X170130Y44276D01*
Y46276D01*
X170510Y46296D01*
X170850Y46356D01*
X171150Y46456D01*
X171410Y46596D01*
X171630Y46776D01*
X171810Y46996D01*
X171950Y47256D01*
X172050Y47556D01*
X172110Y47896D01*
X172130Y48276D01*
X174130Y45276D01*
D02*
G37*
G36*
X46657Y53911D02*
X46534Y53860D01*
X45424Y51181D01*
X45584Y50796D01*
X45555Y50704D01*
X45510Y50593D01*
X45456Y50486D01*
X36505Y41535D01*
X33232D01*
X33038Y41599D01*
X32839Y41684D01*
X32637Y41791D01*
X32430Y41921D01*
X32219Y42078D01*
X32198Y42095D01*
X31949Y42697D01*
X30522Y43288D01*
Y45452D01*
X31949Y46044D01*
X33327Y49370D01*
X31949Y52697D01*
X31790Y52763D01*
X31185Y55178D01*
X31787Y55911D01*
X46259D01*
X46657Y53911D01*
D02*
G37*
G36*
X53644Y72075D02*
X52439Y71576D01*
X51330Y68898D01*
X52439Y66219D01*
X55118Y65109D01*
X57797Y66219D01*
X58825Y68701D01*
X79970D01*
X80057Y68678D01*
X80100Y68661D01*
X80102Y68656D01*
Y67209D01*
X82092D01*
X82957Y65567D01*
Y62319D01*
X82907Y62199D01*
X28107D01*
X26768Y61645D01*
X21033Y55910D01*
X20478Y54570D01*
X18622Y54075D01*
X15295Y52697D01*
X13917Y49370D01*
X15295Y46044D01*
X16722Y45452D01*
Y43288D01*
X15295Y42697D01*
X15046Y42095D01*
X15025Y42078D01*
X14814Y41921D01*
X14607Y41791D01*
X14405Y41684D01*
X14207Y41599D01*
X14012Y41535D01*
X10039D01*
Y64064D01*
X20050Y74075D01*
X53246D01*
X53644Y72075D01*
D02*
G37*
G36*
X25295Y46044D02*
X26722Y45452D01*
Y43288D01*
X25295Y42697D01*
X24704Y41270D01*
X22540D01*
X21949Y42697D01*
X20522Y43288D01*
Y45452D01*
X21949Y46044D01*
X22540Y47470D01*
X24704D01*
X25295Y46044D01*
D02*
G37*
G36*
X91960Y42610D02*
X91823Y42550D01*
X91702Y42450D01*
X91596Y42310D01*
X91507Y42130D01*
X91435Y41910D01*
X91378Y41650D01*
X91338Y41350D01*
X91313Y41010D01*
X91305Y40630D01*
X89305D01*
X89300Y41010D01*
X89223Y41910D01*
X89177Y42130D01*
X89120Y42310D01*
X89053Y42450D01*
X88976Y42550D01*
X88889Y42610D01*
X88792Y42630D01*
X92114D01*
X91960Y42610D01*
D02*
G37*
G36*
X115380Y41764D02*
X115410Y41422D01*
X115460Y41121D01*
X115530Y40859D01*
X115620Y40638D01*
X115730Y40457D01*
X115860Y40316D01*
X116010Y40215D01*
X116180Y40154D01*
X116370Y40134D01*
X112414Y40145D01*
X112595Y40165D01*
X112758Y40225D01*
X112901Y40325D01*
X113026Y40466D01*
X113131Y40646D01*
X113217Y40865D01*
X113284Y41126D01*
X113332Y41425D01*
X113361Y41765D01*
X113370Y42145D01*
X115370D01*
X115380Y41764D01*
D02*
G37*
G36*
X81646Y53911D02*
X81436Y53702D01*
X80881Y52362D01*
Y48933D01*
X80102D01*
Y41618D01*
X85449D01*
Y48933D01*
X84670D01*
Y51180D01*
X85447Y51888D01*
X86259Y52486D01*
X86352Y52543D01*
X90272D01*
Y53073D01*
X92119Y53838D01*
X96531Y49426D01*
Y39533D01*
X94747Y38395D01*
X93328Y39106D01*
X93323Y39189D01*
X92515D01*
X92511Y39191D01*
X92493Y39234D01*
X92470Y39322D01*
Y41578D01*
X92479Y41618D01*
X93126Y41618D01*
X93196Y42630D01*
X93182Y42665D01*
X93187Y42770D01*
X93126Y42876D01*
Y44776D01*
X90453D01*
X87779D01*
Y43618D01*
X87779Y42919D01*
X87731Y42847D01*
X87737Y42698D01*
X87709Y42630D01*
X87779Y41618D01*
X87779D01*
X88140Y41257D01*
Y39420D01*
X86288Y39195D01*
X86195Y39189D01*
X84992Y39189D01*
X79905D01*
Y37665D01*
X79890Y37637D01*
X79851Y37621D01*
X79766Y37598D01*
X76772D01*
X75241Y36964D01*
X68502Y30224D01*
X68424Y30172D01*
X68177Y30031D01*
X67922Y29913D01*
X67659Y29817D01*
X67385Y29741D01*
X67293Y29724D01*
X64136D01*
X63936Y30074D01*
X63728Y31724D01*
X64663Y32349D01*
X64725Y32441D01*
X64827Y32483D01*
X65924Y33580D01*
X65966Y33683D01*
X66058Y33744D01*
X66920Y35034D01*
X66942Y35142D01*
X67020Y35221D01*
X67614Y36654D01*
Y36765D01*
X67675Y36857D01*
X67978Y38378D01*
X67956Y38487D01*
X67999Y38589D01*
Y40140D01*
X67956Y40243D01*
X67978Y40352D01*
X67675Y41873D01*
X67614Y41965D01*
Y42076D01*
X67020Y43509D01*
X66942Y43587D01*
X66920Y43696D01*
X66058Y44986D01*
X65966Y45047D01*
X65924Y45150D01*
X64827Y46246D01*
X64725Y46289D01*
X64663Y46381D01*
X63373Y47243D01*
X63265Y47264D01*
X63186Y47343D01*
X61753Y47936D01*
X61642D01*
X61550Y47998D01*
X60029Y48300D01*
X59920Y48279D01*
X59818Y48321D01*
X58267D01*
X58164Y48279D01*
X58056Y48300D01*
X56534Y47998D01*
X56442Y47936D01*
X56331D01*
X54898Y47343D01*
X54820Y47264D01*
X54711Y47243D01*
X53421Y46381D01*
X53360Y46289D01*
X53258Y46246D01*
X52161Y45150D01*
X52118Y45047D01*
X52026Y44986D01*
X51164Y43696D01*
X51143Y43587D01*
X51064Y43509D01*
X50471Y42076D01*
Y41965D01*
X50409Y41873D01*
X50107Y40352D01*
X50128Y40243D01*
X50086Y40140D01*
Y38589D01*
X50128Y38487D01*
X50107Y38378D01*
X50409Y36857D01*
X50471Y36765D01*
Y36654D01*
X51064Y35221D01*
X51143Y35142D01*
X51164Y35034D01*
X52026Y33744D01*
X52118Y33683D01*
X52161Y33580D01*
X53258Y32483D01*
X53360Y32441D01*
X53421Y32349D01*
X54357Y31724D01*
X54148Y30074D01*
X53948Y29724D01*
X51197D01*
X50020Y30901D01*
X48489Y31535D01*
X33232D01*
X33038Y31599D01*
X32839Y31684D01*
X32637Y31791D01*
X32430Y31921D01*
X32219Y32078D01*
X32198Y32095D01*
X31949Y32697D01*
X31347Y32946D01*
X31330Y32967D01*
X31173Y33178D01*
X31043Y33385D01*
X30935Y33587D01*
X30851Y33786D01*
X30787Y33981D01*
Y34760D01*
X30851Y34955D01*
X30935Y35153D01*
X31043Y35356D01*
X31174Y35562D01*
X31330Y35774D01*
X31347Y35794D01*
X31949Y36044D01*
X32198Y36645D01*
X32219Y36663D01*
X32430Y36819D01*
X32637Y36950D01*
X32839Y37057D01*
X33038Y37141D01*
X33232Y37205D01*
X37402D01*
X38932Y37839D01*
X48517Y47424D01*
X48624Y47479D01*
X48735Y47524D01*
X48828Y47552D01*
X49213Y47393D01*
X51891Y48502D01*
X53001Y51181D01*
X51891Y53860D01*
X51768Y53911D01*
X52166Y55911D01*
X80817D01*
X81646Y53911D01*
D02*
G37*
G36*
X91315Y39795D02*
X91345Y39453D01*
X91395Y39151D01*
X91465Y38889D01*
X91555Y38668D01*
X91665Y38487D01*
X91795Y38346D01*
X91945Y38245D01*
X92115Y38185D01*
X92305Y38165D01*
X88305D01*
X88495Y38185D01*
X88665Y38245D01*
X88815Y38346D01*
X88945Y38487D01*
X89055Y38668D01*
X89145Y38889D01*
X89215Y39151D01*
X89265Y39453D01*
X89295Y39795D01*
X89305Y40177D01*
X91305D01*
X91315Y39795D01*
D02*
G37*
G36*
X174799Y41180D02*
X174860Y41010D01*
X174960Y40860D01*
X175101Y40730D01*
X175282Y40620D01*
X175504Y40530D01*
X175765Y40460D01*
X176067Y40410D01*
X176409Y40380D01*
X176791Y40370D01*
Y38370D01*
X176409Y38360D01*
X176067Y38330D01*
X175765Y38280D01*
X175504Y38210D01*
X175282Y38120D01*
X175101Y38010D01*
X174960Y37880D01*
X174860Y37730D01*
X174799Y37560D01*
X174779Y37370D01*
Y41370D01*
X174799Y41180D01*
D02*
G37*
G36*
X163792Y37370D02*
X163771Y37560D01*
X163712Y37730D01*
X163611Y37880D01*
X163471Y38010D01*
X163292Y38120D01*
X163072Y38210D01*
X162812Y38280D01*
X162512Y38330D01*
X162171Y38360D01*
X161792Y38370D01*
Y40370D01*
X162171Y40380D01*
X162512Y40410D01*
X162812Y40460D01*
X163072Y40530D01*
X163292Y40620D01*
X163471Y40730D01*
X163611Y40860D01*
X163712Y41010D01*
X163771Y41180D01*
X163792Y41370D01*
Y37370D01*
D02*
G37*
G36*
X31277Y41458D02*
X31545Y41229D01*
X31818Y41028D01*
X32093Y40853D01*
X32373Y40706D01*
X32656Y40585D01*
X32942Y40491D01*
X33232Y40424D01*
X33526Y40383D01*
X33823Y40370D01*
Y38370D01*
X33526Y38357D01*
X33232Y38316D01*
X32942Y38249D01*
X32656Y38155D01*
X32373Y38034D01*
X32093Y37887D01*
X31818Y37712D01*
X31545Y37511D01*
X31277Y37283D01*
X31012Y37028D01*
Y41713D01*
X31277Y41458D01*
D02*
G37*
G36*
X16232Y37028D02*
X15967Y37283D01*
X15699Y37511D01*
X15427Y37712D01*
X15151Y37887D01*
X14871Y38034D01*
X14588Y38155D01*
X14302Y38249D01*
X14012Y38316D01*
X13718Y38357D01*
X13421Y38370D01*
Y40370D01*
X13718Y40383D01*
X14012Y40424D01*
X14302Y40491D01*
X14588Y40585D01*
X14871Y40706D01*
X15151Y40853D01*
X15427Y41028D01*
X15699Y41229D01*
X15967Y41458D01*
X16232Y41713D01*
Y37028D01*
D02*
G37*
G36*
X150044Y47682D02*
X151575Y47048D01*
X159487D01*
X161880Y44655D01*
X162499Y43535D01*
X161688Y41535D01*
X161417D01*
X159887Y40901D01*
X155448Y36463D01*
X155178Y36485D01*
X153553Y37396D01*
Y38384D01*
X153511Y38487D01*
X153533Y38596D01*
X153230Y40117D01*
X153168Y40209D01*
Y40320D01*
X152575Y41753D01*
X152496Y41831D01*
X152475Y41940D01*
X151613Y43230D01*
X151521Y43291D01*
X151478Y43394D01*
X150382Y44490D01*
X150279Y44533D01*
X150218Y44625D01*
X148928Y45487D01*
X148819Y45508D01*
X148741Y45587D01*
X147308Y46180D01*
X147197D01*
X147105Y46242D01*
X145584Y46545D01*
X145475Y46523D01*
X145372Y46565D01*
X143821D01*
X143719Y46523D01*
X143610Y46545D01*
X142089Y46242D01*
X141997Y46180D01*
X141886D01*
X140453Y45587D01*
X140375Y45508D01*
X140266Y45487D01*
X138976Y44625D01*
X138915Y44533D01*
X138812Y44490D01*
X137715Y43394D01*
X137673Y43291D01*
X137581Y43230D01*
X136719Y41940D01*
X136697Y41831D01*
X136619Y41753D01*
X136026Y40320D01*
Y40209D01*
X135964Y40117D01*
X135661Y38596D01*
X135683Y38487D01*
X135641Y38384D01*
Y36833D01*
X135683Y36731D01*
X135661Y36622D01*
X135964Y35101D01*
X136026Y35009D01*
Y34898D01*
X136619Y33465D01*
X136697Y33386D01*
X136719Y33278D01*
X137581Y31988D01*
X137673Y31927D01*
X137715Y31824D01*
X138812Y30727D01*
X138915Y30685D01*
X138976Y30593D01*
X140266Y29731D01*
X140375Y29709D01*
X140453Y29631D01*
X141886Y29037D01*
X141997D01*
X142089Y28976D01*
X143610Y28673D01*
X143719Y28695D01*
X143821Y28652D01*
X145372D01*
X145475Y28695D01*
X145584Y28673D01*
X147105Y28976D01*
X147197Y29037D01*
X147308D01*
X148741Y29631D01*
X148819Y29709D01*
X148928Y29731D01*
X149379Y30032D01*
X151379Y29004D01*
Y19650D01*
X149379Y18849D01*
X148169Y19350D01*
X133628D01*
X132527Y21350D01*
X132873Y22185D01*
X132181Y23854D01*
X132181Y25516D01*
X132799Y27007D01*
X132873Y27185D01*
X132181Y28854D01*
X131072Y29314D01*
X131051Y29325D01*
X131029Y29382D01*
X131003Y29480D01*
Y43296D01*
X136723Y49016D01*
X148710D01*
X150044Y47682D01*
D02*
G37*
G36*
X174675Y36705D02*
X174571Y36645D01*
X174479Y36545D01*
X174399Y36405D01*
X174332Y36225D01*
X174277Y36005D01*
X174234Y35745D01*
X174204Y35445D01*
X174179Y34725D01*
X172179D01*
X172172Y35105D01*
X172115Y35745D01*
X172065Y36005D01*
X172002Y36225D01*
X171923Y36405D01*
X171831Y36545D01*
X171724Y36645D01*
X171604Y36705D01*
X171469Y36725D01*
X174791D01*
X174675Y36705D01*
D02*
G37*
G36*
X92319Y37243D02*
X92379Y37073D01*
X92480Y36923D01*
X92621Y36793D01*
X92802Y36683D01*
X93023Y36593D01*
X93285Y36523D01*
X93586Y36473D01*
X93928Y36443D01*
X94311Y36433D01*
Y34433D01*
X93928Y34423D01*
X93586Y34393D01*
X93285Y34343D01*
X93023Y34273D01*
X92802Y34183D01*
X92621Y34073D01*
X92480Y33943D01*
X92379Y33793D01*
X92319Y33623D01*
X92299Y33433D01*
Y37433D01*
X92319Y37243D01*
D02*
G37*
G36*
X80918Y33433D02*
X80897Y33623D01*
X80838Y33793D01*
X80738Y33943D01*
X80598Y34073D01*
X80418Y34183D01*
X80198Y34273D01*
X79937Y34343D01*
X79637Y34393D01*
X79298Y34423D01*
X78917Y34433D01*
Y36433D01*
X79298Y36443D01*
X79637Y36473D01*
X79937Y36523D01*
X80198Y36593D01*
X80418Y36683D01*
X80598Y36793D01*
X80738Y36923D01*
X80838Y37073D01*
X80897Y37243D01*
X80918Y37433D01*
Y33433D01*
D02*
G37*
G36*
X123807Y34658D02*
X123663Y34638D01*
X123533Y34578D01*
X123419Y34478D01*
X123321Y34338D01*
X123237Y34158D01*
X123169Y33938D01*
X123116Y33678D01*
X123078Y33378D01*
X123055Y33038D01*
X123047Y32658D01*
X121047D01*
X121037Y33039D01*
X121007Y33381D01*
X120957Y33683D01*
X120887Y33944D01*
X120797Y34165D01*
X120687Y34346D01*
X120557Y34487D01*
X120407Y34588D01*
X120237Y34649D01*
X120047Y34670D01*
X123807Y34658D01*
D02*
G37*
G36*
X116377Y34650D02*
X116207Y34589D01*
X116057Y34489D01*
X115927Y34348D01*
X115817Y34167D01*
X115727Y33945D01*
X115657Y33684D01*
X115607Y33382D01*
X115577Y33040D01*
X115567Y32658D01*
X113567D01*
X113557Y33040D01*
X113527Y33382D01*
X113477Y33684D01*
X113407Y33945D01*
X113317Y34167D01*
X113207Y34348D01*
X113077Y34489D01*
X112927Y34589D01*
X112757Y34650D01*
X112567Y34670D01*
X116567D01*
X116377Y34650D01*
D02*
G37*
G36*
X30709Y36715D02*
X30481Y36447D01*
X30280Y36174D01*
X30105Y35899D01*
X29958Y35619D01*
X29837Y35336D01*
X29743Y35050D01*
X29676Y34760D01*
X29636Y34466D01*
X29631Y34370D01*
X29636Y34274D01*
X29676Y33980D01*
X29743Y33690D01*
X29837Y33404D01*
X29958Y33121D01*
X30105Y32841D01*
X30280Y32566D01*
X30481Y32293D01*
X30709Y32025D01*
X30965Y31760D01*
X26280D01*
X26535Y32025D01*
X26763Y32293D01*
X26964Y32566D01*
X27139Y32841D01*
X27286Y33121D01*
X27407Y33404D01*
X27501Y33690D01*
X27568Y33980D01*
X27609Y34274D01*
X27613Y34370D01*
X27609Y34466D01*
X27568Y34760D01*
X27501Y35050D01*
X27407Y35336D01*
X27286Y35619D01*
X27139Y35899D01*
X26964Y36174D01*
X26763Y36447D01*
X26535Y36715D01*
X26280Y36980D01*
X30965D01*
X30709Y36715D01*
D02*
G37*
G36*
X20709D02*
X20481Y36447D01*
X20280Y36174D01*
X20105Y35899D01*
X19958Y35619D01*
X19837Y35336D01*
X19743Y35050D01*
X19676Y34760D01*
X19636Y34466D01*
X19631Y34370D01*
X19636Y34274D01*
X19676Y33980D01*
X19743Y33690D01*
X19837Y33404D01*
X19958Y33121D01*
X20105Y32841D01*
X20280Y32566D01*
X20481Y32293D01*
X20709Y32025D01*
X20965Y31760D01*
X16280D01*
X16535Y32025D01*
X16763Y32293D01*
X16964Y32566D01*
X17139Y32841D01*
X17286Y33121D01*
X17407Y33404D01*
X17501Y33690D01*
X17568Y33980D01*
X17609Y34274D01*
X17613Y34370D01*
X17609Y34466D01*
X17568Y34760D01*
X17501Y35050D01*
X17407Y35336D01*
X17286Y35619D01*
X17139Y35899D01*
X16964Y36174D01*
X16763Y36447D01*
X16535Y36715D01*
X16280Y36980D01*
X20965D01*
X20709Y36715D01*
D02*
G37*
G36*
X25295Y36044D02*
X25897Y35794D01*
X25914Y35774D01*
X26071Y35562D01*
X26202Y35355D01*
X26309Y35153D01*
X26393Y34955D01*
X26457Y34760D01*
Y33981D01*
X26393Y33786D01*
X26309Y33587D01*
X26202Y33385D01*
X26071Y33178D01*
X25914Y32967D01*
X25897Y32946D01*
X25295Y32697D01*
X24704Y31270D01*
X22540D01*
X21949Y32697D01*
X21347Y32946D01*
X21330Y32967D01*
X21173Y33178D01*
X21043Y33385D01*
X20935Y33587D01*
X20851Y33786D01*
X20787Y33981D01*
Y34760D01*
X20851Y34955D01*
X20935Y35153D01*
X21043Y35356D01*
X21173Y35562D01*
X21330Y35774D01*
X21347Y35794D01*
X21949Y36044D01*
X22540Y37470D01*
X24704D01*
X25295Y36044D01*
D02*
G37*
G36*
X190783Y32926D02*
X190613Y32861D01*
X190464Y32753D01*
X190335Y32603D01*
X190225Y32409D01*
X190136Y32172D01*
X190066Y31892D01*
X190016Y31569D01*
X189986Y31203D01*
X189976Y30794D01*
X187976D01*
X187966Y31203D01*
X187937Y31569D01*
X187887Y31892D01*
X187817Y32172D01*
X187727Y32409D01*
X187618Y32603D01*
X187489Y32753D01*
X187339Y32861D01*
X187170Y32926D01*
X186981Y32947D01*
X190972D01*
X190783Y32926D01*
D02*
G37*
G36*
X84733Y32681D02*
X84563Y32621D01*
X84413Y32520D01*
X84283Y32379D01*
X84173Y32198D01*
X84083Y31977D01*
X84013Y31715D01*
X83963Y31413D01*
X83933Y31071D01*
X83923Y30689D01*
X81923D01*
X81913Y31071D01*
X81883Y31413D01*
X81833Y31715D01*
X81763Y31977D01*
X81673Y32198D01*
X81563Y32379D01*
X81433Y32520D01*
X81283Y32621D01*
X81113Y32681D01*
X80923Y32701D01*
X84923D01*
X84733Y32681D01*
D02*
G37*
G36*
X174189Y29952D02*
X174219Y29610D01*
X174269Y29308D01*
X174339Y29047D01*
X174429Y28826D01*
X174539Y28644D01*
X174669Y28504D01*
X174819Y28403D01*
X174989Y28343D01*
X175179Y28322D01*
X171179D01*
X171369Y28343D01*
X171539Y28403D01*
X171689Y28504D01*
X171819Y28644D01*
X171929Y28826D01*
X172019Y29047D01*
X172089Y29308D01*
X172139Y29610D01*
X172169Y29952D01*
X172179Y30334D01*
X174179D01*
X174189Y29952D01*
D02*
G37*
G36*
X129849Y29973D02*
X129878Y29623D01*
X129928Y29313D01*
X129998Y29046D01*
X130087Y28819D01*
X130197Y28634D01*
X130326Y28489D01*
X130476Y28386D01*
X130645Y28325D01*
X130834Y28304D01*
X126843D01*
X127032Y28325D01*
X127201Y28386D01*
X127351Y28489D01*
X127480Y28634D01*
X127590Y28819D01*
X127679Y29046D01*
X127749Y29313D01*
X127799Y29623D01*
X127829Y29973D01*
X127839Y30364D01*
X129839D01*
X129849Y29973D01*
D02*
G37*
G36*
X31277Y31457D02*
X31545Y31229D01*
X31818Y31028D01*
X32093Y30853D01*
X32373Y30706D01*
X32656Y30585D01*
X32942Y30491D01*
X33232Y30424D01*
X33526Y30384D01*
X33823Y30370D01*
Y28370D01*
X33526Y28357D01*
X33232Y28316D01*
X32942Y28249D01*
X32656Y28155D01*
X32373Y28034D01*
X32093Y27887D01*
X31818Y27712D01*
X31545Y27511D01*
X31277Y27283D01*
X31012Y27028D01*
Y31713D01*
X31277Y31457D01*
D02*
G37*
G36*
X164000Y23591D02*
X163980Y23780D01*
X163920Y23951D01*
X163819Y24101D01*
X163679Y24230D01*
X163497Y24340D01*
X163276Y24430D01*
X163014Y24501D01*
X162713Y24551D01*
X162700Y24552D01*
X162526Y24523D01*
X162309Y24471D01*
X162103Y24403D01*
X161908Y24321D01*
X161723Y24223D01*
X161550Y24111D01*
X161387Y23983D01*
X161234Y23841D01*
Y27341D01*
X161387Y27198D01*
X161550Y27071D01*
X161723Y26958D01*
X161908Y26861D01*
X162103Y26778D01*
X162309Y26711D01*
X162526Y26658D01*
X162700Y26629D01*
X162713Y26630D01*
X163014Y26680D01*
X163276Y26750D01*
X163497Y26841D01*
X163679Y26950D01*
X163819Y27081D01*
X163920Y27231D01*
X163980Y27400D01*
X164000Y27591D01*
Y23591D01*
D02*
G37*
G36*
X83928Y27887D02*
X84005Y26987D01*
X84052Y26768D01*
X84108Y26588D01*
X84175Y26447D01*
X84252Y26348D01*
X84339Y26287D01*
X84437Y26267D01*
X81114D01*
X81268Y26287D01*
X81406Y26348D01*
X81527Y26447D01*
X81632Y26588D01*
X81721Y26768D01*
X81794Y26987D01*
X81850Y27248D01*
X81891Y27547D01*
X81915Y27887D01*
X81923Y28267D01*
X83923D01*
X83928Y27887D01*
D02*
G37*
G36*
X109444Y28298D02*
X109560Y28274D01*
X109709Y28253D01*
X110106Y28220D01*
X111293Y28186D01*
X111672Y28185D01*
Y26185D01*
X111293Y26184D01*
X109444Y26072D01*
X109360Y26046D01*
Y28324D01*
X109444Y28298D01*
D02*
G37*
G36*
X169082Y41299D02*
X170457Y40098D01*
Y37713D01*
X170457Y36981D01*
X170398Y36883D01*
X170404Y36767D01*
X170386Y36725D01*
X170457Y35713D01*
X170457D01*
X171014Y35155D01*
Y30053D01*
X169307Y29346D01*
Y29346D01*
X166642D01*
Y25591D01*
X165642D01*
Y29346D01*
X162976D01*
Y29346D01*
X160976Y28746D01*
X159949Y29172D01*
Y25591D01*
Y22009D01*
X160976Y22435D01*
X162976Y21835D01*
X163780Y19850D01*
Y15701D01*
X163757Y15614D01*
X163739Y15570D01*
X163733Y15567D01*
X162583D01*
Y12311D01*
X165748D01*
Y11311D01*
X162583D01*
Y8662D01*
X160740Y7676D01*
X156209Y12207D01*
X156156Y12285D01*
X156016Y12532D01*
X155898Y12786D01*
X155801Y13049D01*
X155726Y13324D01*
X155708Y13416D01*
Y21361D01*
X157708Y22523D01*
X158949Y22009D01*
Y25591D01*
Y29172D01*
X158868Y29138D01*
X156797Y30360D01*
X156665Y31556D01*
X160792Y35683D01*
X162779Y35713D01*
Y35713D01*
X168126D01*
Y41131D01*
X168457Y41423D01*
X169082Y41299D01*
D02*
G37*
G36*
X71726Y28973D02*
X71472Y28690D01*
X71273Y28408D01*
X71132Y28125D01*
X71047Y27842D01*
X71019Y27559D01*
X71047Y27276D01*
X71132Y26993D01*
X71273Y26711D01*
X71472Y26428D01*
X71726Y26145D01*
X69898Y25145D01*
X69609Y25414D01*
X69309Y25654D01*
X68996Y25866D01*
X68673Y26050D01*
X68337Y26206D01*
X67990Y26333D01*
X67631Y26432D01*
X67260Y26502D01*
X66878Y26545D01*
X66483Y26559D01*
Y28559D01*
X66878Y28573D01*
X67260Y28616D01*
X67631Y28686D01*
X67990Y28785D01*
X68337Y28913D01*
X68673Y29068D01*
X68996Y29252D01*
X69309Y29464D01*
X69609Y29705D01*
X69898Y29973D01*
X71726Y28973D01*
D02*
G37*
G36*
X179108Y35845D02*
X178938Y35433D01*
Y23816D01*
X178394Y23322D01*
X176394Y24206D01*
Y29346D01*
X175389D01*
X175385Y29349D01*
X175367Y29392D01*
X175344Y29479D01*
Y35713D01*
X175803Y35713D01*
X175870Y36671D01*
X177617Y37336D01*
X179108Y35845D01*
D02*
G37*
G36*
X73841Y23218D02*
X73862Y22975D01*
X73896Y22745D01*
X73943Y22530D01*
X74004Y22330D01*
X74078Y22143D01*
X74166Y21971D01*
X74268Y21813D01*
X74383Y21669D01*
X74511Y21540D01*
X71158D01*
X71287Y21669D01*
X71402Y21813D01*
X71503Y21971D01*
X71591Y22143D01*
X71666Y22330D01*
X71726Y22530D01*
X71774Y22745D01*
X71808Y22975D01*
X71828Y23218D01*
X71835Y23476D01*
X73835D01*
X73841Y23218D01*
D02*
G37*
G36*
X105119Y21164D02*
X105017Y21231D01*
X104896Y21292D01*
X104756Y21345D01*
X104597Y21392D01*
X104419Y21431D01*
X104222Y21463D01*
X103772Y21506D01*
X103518Y21516D01*
X103246Y21520D01*
X103375Y23019D01*
X103662Y23021D01*
X104723Y23086D01*
X104859Y23111D01*
X104971Y23139D01*
X105058Y23171D01*
X105119Y23206D01*
Y21164D01*
D02*
G37*
G36*
X167755Y22838D02*
X167585Y22777D01*
X167435Y22676D01*
X167305Y22535D01*
X167195Y22354D01*
X167105Y22133D01*
X167035Y21871D01*
X166985Y21570D01*
X166955Y21228D01*
X166945Y20847D01*
X164945D01*
X164935Y21227D01*
X164907Y21567D01*
X164859Y21867D01*
X164792Y22127D01*
X164706Y22347D01*
X164601Y22527D01*
X164476Y22667D01*
X164333Y22767D01*
X164170Y22827D01*
X163988Y22847D01*
X167945Y22859D01*
X167755Y22838D01*
D02*
G37*
G36*
X123286Y21478D02*
X123240Y21413D01*
X123200Y21312D01*
X123164Y21176D01*
X123133Y21005D01*
X123050Y19622D01*
X123047Y19239D01*
X121047Y21654D01*
X122047D01*
X123286Y21478D01*
D02*
G37*
G36*
X91988Y20957D02*
X91876Y20897D01*
X91777Y20797D01*
X91691Y20657D01*
X91618Y20477D01*
X91559Y20257D01*
X91512Y19997D01*
X91479Y19697D01*
X91453Y18977D01*
X89453D01*
X89446Y19357D01*
X89393Y19997D01*
X89347Y20257D01*
X89287Y20477D01*
X89215Y20657D01*
X89129Y20797D01*
X89030Y20897D01*
X88917Y20957D01*
X88792Y20977D01*
X92114D01*
X91988Y20957D01*
D02*
G37*
G36*
X104800Y16468D02*
X104794Y16493D01*
X104763Y16515D01*
X104708Y16535D01*
X104630Y16552D01*
X104528Y16567D01*
X104253Y16588D01*
X103662Y16600D01*
Y18100D01*
X103914Y18101D01*
X105017Y18168D01*
X105080Y18186D01*
X105119Y18206D01*
X104800Y16468D01*
D02*
G37*
G36*
X126860Y21066D02*
X130834D01*
X130645Y21045D01*
X130476Y20984D01*
X130326Y20881D01*
X130197Y20736D01*
X130087Y20551D01*
X129998Y20324D01*
X129928Y20056D01*
X129878Y19748D01*
X129873Y19685D01*
X129878Y19623D01*
X129928Y19313D01*
X129998Y19046D01*
X130087Y18819D01*
X130197Y18634D01*
X130326Y18489D01*
X130476Y18386D01*
X130645Y18325D01*
X130817Y18306D01*
Y18324D01*
X130901Y18298D01*
X131017Y18274D01*
X131166Y18253D01*
X131563Y18220D01*
X132750Y18186D01*
X133129Y18185D01*
Y16185D01*
X132750Y16184D01*
X130901Y16072D01*
X130817Y16046D01*
Y18304D01*
X126843D01*
X127032Y18325D01*
X127201Y18386D01*
X127351Y18489D01*
X127480Y18634D01*
X127590Y18819D01*
X127679Y19046D01*
X127749Y19313D01*
X127799Y19623D01*
X127804Y19685D01*
X127799Y19748D01*
X127749Y20056D01*
X127679Y20324D01*
X127590Y20551D01*
X127480Y20736D01*
X127351Y20881D01*
X127201Y20984D01*
X127032Y21045D01*
X126860Y21064D01*
Y21046D01*
X126777Y21072D01*
X126660Y21096D01*
X126511Y21117D01*
X126114Y21150D01*
X124927Y21184D01*
X124548Y21185D01*
Y23185D01*
X124927Y23186D01*
X126777Y23298D01*
X126860Y23324D01*
Y21066D01*
D02*
G37*
G36*
X154543Y14225D02*
X154557Y13831D01*
X154600Y13449D01*
X154671Y13078D01*
X154770Y12719D01*
X154897Y12372D01*
X155052Y12036D01*
X155236Y11712D01*
X155448Y11400D01*
X155689Y11100D01*
X155957Y10811D01*
X152836Y11104D01*
X151422Y12518D01*
X151129Y15639D01*
X151398Y15391D01*
X151638Y15210D01*
X151850Y15098D01*
X152034Y15054D01*
X152190Y15079D01*
X152317Y15171D01*
X152416Y15333D01*
X152487Y15562D01*
X152529Y15859D01*
X152543Y16225D01*
X154543Y14225D01*
D02*
G37*
G36*
X91460Y16175D02*
X91521Y15535D01*
X91574Y15275D01*
X91643Y15055D01*
X91726Y14875D01*
X91825Y14735D01*
X91939Y14635D01*
X92068Y14575D01*
X92212Y14555D01*
X88693D01*
X88837Y14575D01*
X88967Y14635D01*
X89081Y14735D01*
X89179Y14875D01*
X89263Y15055D01*
X89331Y15275D01*
X89384Y15535D01*
X89422Y15835D01*
X89445Y16175D01*
X89453Y16555D01*
X91453D01*
X91460Y16175D01*
D02*
G37*
G36*
X166954D02*
X166983Y15835D01*
X167031Y15535D01*
X167098Y15275D01*
X167184Y15055D01*
X167289Y14875D01*
X167414Y14735D01*
X167557Y14635D01*
X167720Y14575D01*
X167901Y14555D01*
X163945Y14543D01*
X164135Y14564D01*
X164305Y14624D01*
X164455Y14725D01*
X164585Y14866D01*
X164695Y15047D01*
X164785Y15269D01*
X164855Y15530D01*
X164905Y15832D01*
X164935Y16173D01*
X164945Y16555D01*
X166945D01*
X166954Y16175D01*
D02*
G37*
G36*
X119206Y32776D02*
X119883Y31665D01*
Y21654D01*
Y18613D01*
X115619Y14350D01*
X112172D01*
X111070Y16350D01*
X111416Y17185D01*
X110724Y18854D01*
X110724Y20516D01*
X111416Y22185D01*
X111070Y23020D01*
X112172Y25020D01*
X113002D01*
X114532Y25654D01*
X116098Y27220D01*
X116732Y28750D01*
Y31948D01*
X118732Y33015D01*
X119206Y32776D01*
D02*
G37*
G36*
X185628Y32399D02*
X186731Y31942D01*
X186751Y31931D01*
X186782Y31849D01*
X186812Y31730D01*
Y14676D01*
X186111Y13976D01*
X177050D01*
X176257Y15520D01*
X177059Y17520D01*
X179134D01*
X180665Y18154D01*
X182633Y20123D01*
X183267Y21654D01*
Y32872D01*
X185267Y33270D01*
X185628Y32399D01*
D02*
G37*
G36*
X109444Y13298D02*
X109560Y13274D01*
X109709Y13253D01*
X110106Y13220D01*
X111293Y13186D01*
X111672Y13185D01*
Y11185D01*
X111293Y11184D01*
X109444Y11072D01*
X109360Y11046D01*
Y13324D01*
X109444Y13298D01*
D02*
G37*
G36*
X102322Y16011D02*
X103213Y15642D01*
X103824Y13925D01*
X103871Y13486D01*
X103861Y13425D01*
X103348Y12185D01*
X103960Y10708D01*
X103003Y8940D01*
X103002Y8939D01*
X101181Y9694D01*
X99840Y9138D01*
X97840Y10475D01*
Y17880D01*
X99688Y18645D01*
X102322Y16011D01*
D02*
G37*
G36*
X196850Y37417D02*
Y1000D01*
Y801D01*
X196698Y434D01*
X196417Y152D01*
X196049Y0D01*
X184019D01*
X183621Y2000D01*
X184602Y2406D01*
X188539Y6343D01*
X189173Y7874D01*
Y10914D01*
X190507Y12249D01*
X191141Y13780D01*
Y31730D01*
X191171Y31849D01*
X191202Y31931D01*
X191221Y31942D01*
X192325Y32399D01*
X193141Y34370D01*
X192795Y35205D01*
X192815Y35538D01*
X193734Y37545D01*
X194444Y37839D01*
X194850Y38246D01*
X196850Y37417D01*
D02*
G37*
G36*
X16592Y76740D02*
X6343Y66491D01*
X5709Y64961D01*
Y40542D01*
X6343Y39011D01*
X7515Y37839D01*
X9046Y37205D01*
X14012D01*
X14207Y37141D01*
X14405Y37057D01*
X14607Y36950D01*
X14814Y36819D01*
X15026Y36662D01*
X15046Y36645D01*
X15295Y36044D01*
X15897Y35794D01*
X15914Y35774D01*
X16071Y35562D01*
X16202Y35355D01*
X16309Y35153D01*
X16393Y34955D01*
X16457Y34760D01*
Y33981D01*
X16393Y33786D01*
X16309Y33587D01*
X16202Y33385D01*
X16071Y33178D01*
X15914Y32967D01*
X15897Y32946D01*
X15295Y32697D01*
X14125Y29870D01*
X18622D01*
Y29370D01*
X19122D01*
Y24873D01*
X21949Y26043D01*
X22540Y27470D01*
X24704D01*
X25295Y26043D01*
X28622Y24666D01*
X31949Y26043D01*
X32198Y26645D01*
X32219Y26662D01*
X32430Y26819D01*
X32637Y26950D01*
X32839Y27057D01*
X33038Y27141D01*
X33232Y27205D01*
X47593D01*
X48770Y26028D01*
X50300Y25394D01*
X67293D01*
X67385Y25377D01*
X67659Y25301D01*
X67922Y25205D01*
X68177Y25087D01*
X68424Y24946D01*
X68502Y24894D01*
X69287Y24108D01*
X70156Y22364D01*
X69046Y19685D01*
X70156Y17006D01*
X72835Y15897D01*
X75513Y17006D01*
X76623Y19685D01*
X75513Y22364D01*
X75091Y22539D01*
X75065Y22591D01*
X75026Y22688D01*
X74999Y22776D01*
Y23622D01*
X74365Y25153D01*
X72160Y27358D01*
X72142Y27394D01*
X72114Y27487D01*
X72107Y27559D01*
X72114Y27631D01*
X72142Y27724D01*
X72160Y27760D01*
X77668Y33268D01*
X77993D01*
X79841Y32701D01*
X79905Y31677D01*
X80713D01*
X80718Y31675D01*
X80735Y31632D01*
X80759Y31545D01*
Y27320D01*
X80750Y27280D01*
X80102Y27279D01*
X80032Y26267D01*
X80046Y26232D01*
X80041Y26128D01*
X80102Y26021D01*
Y19965D01*
X85449D01*
Y25280D01*
X85449Y25979D01*
X85497Y26050D01*
X85491Y26200D01*
X85519Y26267D01*
X85449Y27280D01*
X85449D01*
X85088Y27640D01*
Y31446D01*
X86940Y31671D01*
X87033Y31677D01*
X88236Y31677D01*
X89657D01*
Y35433D01*
X90658D01*
Y31677D01*
X93323D01*
X93510Y29755D01*
Y29120D01*
X93126Y27279D01*
X87779D01*
Y21965D01*
X87779Y21239D01*
X87723Y21147D01*
X87729Y21023D01*
X87709Y20977D01*
X87779Y19964D01*
X87779D01*
X88288Y19456D01*
Y15576D01*
X88286Y15567D01*
X87681Y15567D01*
X87611Y14555D01*
X87627Y14516D01*
X87621Y14406D01*
X87681Y14304D01*
Y13679D01*
X85681Y12861D01*
X85547Y12997D01*
Y15567D01*
X83276D01*
Y11811D01*
X82776D01*
Y11311D01*
X80004D01*
Y8055D01*
X81432D01*
X82016Y6645D01*
X84286Y4375D01*
X85817Y3741D01*
X94488D01*
X95885Y4319D01*
X96019Y4375D01*
X98267Y3795D01*
X98502Y3227D01*
X101181Y2117D01*
X103860Y3227D01*
X104311Y4315D01*
X104905D01*
X106435Y4949D01*
X108913Y7426D01*
X109547Y8957D01*
Y9994D01*
X109979Y10020D01*
X116516D01*
X118046Y10654D01*
X123161Y15769D01*
X125074Y15493D01*
X125431Y13697D01*
X125318Y13425D01*
X124804Y12185D01*
X125496Y10516D01*
X127165Y9824D01*
X130512D01*
X132003Y10442D01*
X132181Y10516D01*
X132873Y12185D01*
X132527Y13020D01*
X133628Y15020D01*
X147273D01*
X152013Y10280D01*
X159887Y2406D01*
X160867Y2000D01*
X160470Y0D01*
X801D01*
X434Y152D01*
X152Y434D01*
X0Y801D01*
Y1000D01*
Y77740D01*
Y77939D01*
X152Y78307D01*
X434Y78588D01*
X801Y78740D01*
X15764D01*
X16592Y76740D01*
D02*
G37*
%LPC*%
G36*
X172630Y70685D02*
X170358D01*
Y67429D01*
X172630D01*
Y70685D01*
D02*
G37*
G36*
Y66429D02*
X170358D01*
Y63173D01*
X172630D01*
Y66429D01*
D02*
G37*
G36*
X114673Y54762D02*
Y51681D01*
X117754D01*
X116852Y53860D01*
X114673Y54762D01*
D02*
G37*
G36*
X113673Y53206D02*
X112148Y51681D01*
X113673D01*
Y53206D01*
D02*
G37*
G36*
X93126Y48933D02*
X90953D01*
Y45776D01*
X93126D01*
Y48933D01*
D02*
G37*
G36*
X89953D02*
X87779D01*
Y45776D01*
X89953D01*
Y48933D01*
D02*
G37*
G36*
X18122Y28870D02*
X14125D01*
X15295Y26043D01*
X18122Y24873D01*
Y28870D01*
D02*
G37*
G36*
X82276Y15567D02*
X80004D01*
Y12311D01*
X82276D01*
Y15567D01*
D02*
G37*
%LPD*%
D18*
X114567Y37402D02*
D03*
X121653D02*
D03*
X172835Y11811D02*
D03*
X165748D02*
D03*
X166142Y25591D02*
D03*
X173228D02*
D03*
X83071Y35433D02*
D03*
X90158D02*
D03*
D19*
X128839Y12185D02*
D03*
Y17185D02*
D03*
Y22185D02*
D03*
Y27185D02*
D03*
X107382Y12185D02*
D03*
Y17185D02*
D03*
Y22185D02*
D03*
Y27185D02*
D03*
D20*
X173130Y66929D02*
D03*
X165453D02*
D03*
X82776Y11811D02*
D03*
X90453D02*
D03*
D21*
X82776Y45276D02*
D03*
X90453D02*
D03*
X173130Y39370D02*
D03*
X165453D02*
D03*
X82776Y70866D02*
D03*
X90453D02*
D03*
X165453Y53150D02*
D03*
X173130D02*
D03*
X90453Y23622D02*
D03*
X82776D02*
D03*
D22*
X86614Y62894D02*
D03*
Y55216D02*
D03*
D31*
X101755Y6480D02*
X104905D01*
X107382Y8957D01*
X101181Y5906D02*
X101755Y6480D01*
X187008Y11811D02*
X188976Y13780D01*
X172835Y11811D02*
X187008D01*
X19153Y76240D02*
X93848D01*
X7874Y64961D02*
X19153Y76240D01*
X93848D02*
X98425Y71663D01*
X185039Y39370D02*
X192913D01*
X181102Y66929D02*
X194095Y53937D01*
Y40551D02*
Y53937D01*
X192913Y39370D02*
X194095Y40551D01*
X98425Y66929D02*
X114173Y51181D01*
X114370Y50984D01*
Y37598D02*
Y50984D01*
X107382Y8957D02*
Y12185D01*
X72835Y19685D02*
Y23622D01*
X68898Y27559D02*
X72835Y23622D01*
X90453Y11811D02*
Y23622D01*
X107382Y12185D02*
X116516D01*
X122047Y17717D01*
X173130Y66929D02*
X181102D01*
X7874Y40542D02*
Y64961D01*
X9046Y39370D02*
X18622D01*
X7874Y40542D02*
X9046Y39370D01*
X98425Y66929D02*
Y71663D01*
X114370Y37598D02*
X114567Y37402D01*
X159449Y25591D02*
X166142D01*
X153543Y11811D02*
Y31496D01*
X161417Y39370D01*
X128839Y27185D02*
Y44193D01*
X122047Y21654D02*
Y37008D01*
X128839Y27185D02*
X128908Y27254D01*
X121653Y37402D02*
X122047Y37008D01*
X128839Y44193D02*
X135827Y51181D01*
X122579Y22185D02*
X128839D01*
X122047Y17717D02*
Y21654D01*
X122579Y22185D01*
X128839Y17185D02*
X148169D01*
X153543Y11811D01*
X85817Y5906D02*
X94488D01*
X82776Y11811D02*
X83547Y11039D01*
Y8175D02*
Y11039D01*
Y8175D02*
X85817Y5906D01*
X94488D02*
X95675Y7092D01*
Y34246D01*
X94488Y35433D02*
X95675Y34246D01*
X90158Y35433D02*
X94488D01*
X90305Y45128D02*
X90453Y45276D01*
X90305Y35581D02*
Y45128D01*
X90158Y35433D02*
X90305Y35581D01*
X107382Y27185D02*
X113002D01*
X114567Y28750D02*
Y37402D01*
X113002Y27185D02*
X114567Y28750D01*
X165945Y18701D02*
Y25394D01*
Y12008D02*
Y18701D01*
X166929Y19685D02*
X179134D01*
X165945Y18701D02*
X166929Y19685D01*
X135827Y51181D02*
X149606D01*
X161417Y39370D02*
X165453D01*
X149606Y51181D02*
X151575Y49213D01*
X160384D01*
X164321Y45276D01*
X179134Y19685D02*
X181102Y21654D01*
Y35433D02*
X183071Y37402D01*
X181102Y21654D02*
Y35433D01*
X183071Y37402D02*
Y37402D01*
X185039Y39370D01*
X128839Y17185D02*
Y22185D01*
X18622Y29370D02*
Y39370D01*
X57790Y70866D02*
X82776D01*
X55821Y68898D02*
X57790Y70866D01*
X55118Y68898D02*
X55821D01*
X173130Y39370D02*
Y45276D01*
X164321D02*
X173130D01*
X153543Y11811D02*
X161417Y3937D01*
X82923Y23770D02*
Y35433D01*
X83071D01*
X76772D02*
X82923D01*
X28622Y29370D02*
X48489D01*
X50300Y27559D01*
X68898D01*
X76772Y35433D01*
X28622Y29370D02*
Y39370D01*
X37402D02*
X49213Y51181D01*
X28622Y39370D02*
X37402D01*
X173130D02*
X177165D01*
X182165Y44370D02*
X188976D01*
X177165Y39370D02*
X182165Y44370D01*
X188976Y13780D02*
Y34370D01*
X173130Y45276D02*
Y53150D01*
X187008Y7874D02*
Y11811D01*
X161417Y3937D02*
X183071D01*
X187008Y7874D01*
X165748Y11811D02*
X165945Y12008D01*
Y25394D02*
X166142Y25591D01*
X173179Y25640D02*
Y39321D01*
X173130Y39370D02*
X173179Y39321D01*
Y25640D02*
X173228Y25591D01*
X165453Y53150D02*
Y66929D01*
X173130Y53150D02*
X173130Y53150D01*
X82776Y23622D02*
X82923Y23770D01*
D32*
X98425Y22587D02*
Y50211D01*
X85630Y55216D02*
X86614D01*
X91867Y60305D02*
X100925Y51247D01*
X89400Y60305D02*
X91867D01*
X89400Y57805D02*
X90831D01*
X100925Y23622D02*
Y51247D01*
X90831Y57805D02*
X98425Y50211D01*
X86614Y55216D02*
X87598D01*
X98425Y22587D02*
X103662Y17350D01*
X100925Y23622D02*
X102278Y22270D01*
X107297D02*
X107382Y22185D01*
X102278Y22270D02*
X107297D01*
X103662Y17350D02*
X107217D01*
X107382Y17185D01*
X29142Y57805D02*
X83828D01*
X28107Y60305D02*
X83828D01*
X22372Y54570D02*
X28107Y60305D01*
X24872Y53535D02*
X29142Y57805D01*
X86614Y62894D02*
X87598D01*
X85630D02*
X86614D01*
X82776Y45276D02*
Y52362D01*
X85630Y55216D01*
X87598Y62894D02*
X90453Y65748D01*
Y72835D01*
X84707Y56140D02*
X85630Y55216D01*
X83828Y57805D02*
X84707Y56926D01*
Y56140D02*
Y56926D01*
X24872Y52292D02*
Y53535D01*
Y52292D02*
X27794Y49370D01*
X28622D01*
X84707Y61971D02*
X85630Y62894D01*
X84707Y61184D02*
Y61971D01*
X83828Y60305D02*
X84707Y61184D01*
X22372Y52292D02*
Y54570D01*
X19450Y49370D02*
X22372Y52292D01*
X18622Y49370D02*
X19450D01*
X88522Y56926D02*
X89400Y57805D01*
X87598Y55216D02*
X88522Y56140D01*
Y56926D01*
X87598Y62894D02*
X88522Y61971D01*
Y61184D02*
Y61971D01*
Y61184D02*
X89400Y60305D01*
D33*
X28622Y29370D02*
D03*
Y39370D02*
D03*
Y49370D02*
D03*
X18622Y29370D02*
D03*
Y39370D02*
D03*
Y49370D02*
D03*
D34*
X188976Y44370D02*
D03*
Y39370D02*
D03*
Y34370D02*
D03*
D35*
X101181Y5906D02*
D03*
X114173Y51181D02*
D03*
X72835Y19685D02*
D03*
X159449Y25591D02*
D03*
X49213Y51181D02*
D03*
X55118Y68898D02*
D03*
M02*
