G04*
G04 #@! TF.GenerationSoftware,Altium Limited,Altium Designer,21.6.1 (37)*
G04*
G04 Layer_Color=32896*
%FSLAX25Y25*%
%MOIN*%
G70*
G04*
G04 #@! TF.SameCoordinates,149CC93B-E584-47E2-A3B6-F303EE062418*
G04*
G04*
G04 #@! TF.FilePolarity,Positive*
G04*
G01*
G75*
G36*
X139570Y64792D02*
X138950D01*
Y65500D01*
X139570D01*
Y64792D01*
D02*
G37*
G36*
X107814D02*
X107195D01*
Y65500D01*
X107814D01*
Y64792D01*
D02*
G37*
G36*
X102719D02*
X102099D01*
Y65500D01*
X102719D01*
Y64792D01*
D02*
G37*
G36*
X65860D02*
X65241D01*
Y65500D01*
X65860D01*
Y64792D01*
D02*
G37*
G36*
X149951Y64566D02*
X149440D01*
X148682Y65529D01*
X149499D01*
X149951Y64566D01*
D02*
G37*
G36*
X165354Y64668D02*
X165187Y63713D01*
X164808D01*
X164647Y64668D01*
Y65500D01*
X165354D01*
Y64668D01*
D02*
G37*
G36*
X164210D02*
X164042Y63713D01*
X163670D01*
X163503Y64668D01*
Y65500D01*
X164210D01*
Y64668D01*
D02*
G37*
G36*
X60517D02*
X60349Y63713D01*
X59970D01*
X59810Y64668D01*
Y65500D01*
X60517D01*
Y64668D01*
D02*
G37*
G36*
X59372D02*
X59205Y63713D01*
X58833D01*
X58665Y64668D01*
Y65500D01*
X59372D01*
Y64668D01*
D02*
G37*
G36*
X157415Y64187D02*
X157569Y64173D01*
X157714Y64151D01*
X157831Y64129D01*
X157933Y64107D01*
X158006Y64085D01*
X158035Y64078D01*
X158057Y64071D01*
X158064Y64063D01*
X158072D01*
X158196Y64012D01*
X158305Y63947D01*
X158400Y63888D01*
X158480Y63830D01*
X158538Y63772D01*
X158582Y63728D01*
X158611Y63699D01*
X158618Y63692D01*
X158684Y63597D01*
X158742Y63495D01*
X158786Y63393D01*
X158823Y63298D01*
X158852Y63203D01*
X158873Y63138D01*
X158881Y63108D01*
Y63086D01*
X158888Y63079D01*
Y63072D01*
X158283Y62992D01*
X158239Y63123D01*
X158196Y63240D01*
X158144Y63334D01*
X158101Y63407D01*
X158057Y63466D01*
X158021Y63502D01*
X157991Y63524D01*
X157984Y63531D01*
X157897Y63582D01*
X157795Y63619D01*
X157685Y63648D01*
X157583Y63662D01*
X157481Y63677D01*
X157408Y63684D01*
X157335D01*
X157168Y63677D01*
X157022Y63655D01*
X156905Y63619D01*
X156803Y63582D01*
X156730Y63538D01*
X156672Y63509D01*
X156635Y63480D01*
X156628Y63473D01*
X156570Y63407D01*
X156526Y63327D01*
X156490Y63240D01*
X156468Y63152D01*
X156453Y63072D01*
X156446Y62999D01*
Y62955D01*
Y62948D01*
Y62941D01*
Y62926D01*
Y62897D01*
Y62846D01*
X156453Y62802D01*
Y62788D01*
Y62780D01*
X156526Y62758D01*
X156606Y62737D01*
X156774Y62693D01*
X156964Y62656D01*
X157139Y62620D01*
X157226Y62605D01*
X157306Y62598D01*
X157379Y62584D01*
X157437Y62576D01*
X157488Y62569D01*
X157525D01*
X157554Y62562D01*
X157561D01*
X157693Y62547D01*
X157802Y62525D01*
X157897Y62511D01*
X157970Y62496D01*
X158028Y62489D01*
X158072Y62474D01*
X158101Y62467D01*
X158108D01*
X158203Y62438D01*
X158283Y62409D01*
X158363Y62372D01*
X158429Y62343D01*
X158487Y62314D01*
X158524Y62285D01*
X158553Y62270D01*
X158560Y62263D01*
X158633Y62212D01*
X158691Y62153D01*
X158750Y62095D01*
X158793Y62037D01*
X158830Y61986D01*
X158859Y61942D01*
X158873Y61913D01*
X158881Y61905D01*
X158917Y61825D01*
X158946Y61738D01*
X158968Y61658D01*
X158983Y61577D01*
X158990Y61512D01*
X158997Y61461D01*
Y61432D01*
Y61417D01*
X158990Y61330D01*
X158983Y61257D01*
X158946Y61104D01*
X158895Y60980D01*
X158837Y60870D01*
X158779Y60783D01*
X158728Y60717D01*
X158691Y60681D01*
X158677Y60666D01*
X158545Y60571D01*
X158400Y60498D01*
X158239Y60448D01*
X158094Y60411D01*
X157962Y60389D01*
X157904Y60382D01*
X157853D01*
X157809Y60375D01*
X157751D01*
X157620Y60382D01*
X157488Y60396D01*
X157372Y60411D01*
X157270Y60433D01*
X157190Y60455D01*
X157124Y60477D01*
X157080Y60484D01*
X157066Y60491D01*
X156942Y60542D01*
X156825Y60608D01*
X156716Y60681D01*
X156606Y60746D01*
X156519Y60812D01*
X156453Y60863D01*
X156410Y60900D01*
X156402Y60914D01*
X156395D01*
X156380Y60819D01*
X156366Y60732D01*
X156351Y60652D01*
X156329Y60586D01*
X156307Y60528D01*
X156293Y60491D01*
X156286Y60462D01*
X156278Y60455D01*
X155630D01*
X155666Y60535D01*
X155702Y60615D01*
X155731Y60688D01*
X155746Y60754D01*
X155768Y60812D01*
X155775Y60856D01*
X155783Y60885D01*
Y60892D01*
X155790Y60943D01*
X155797Y61009D01*
Y61082D01*
X155804Y61162D01*
X155812Y61344D01*
Y61526D01*
X155819Y61701D01*
Y61782D01*
Y61847D01*
Y61905D01*
Y61949D01*
Y61978D01*
Y61986D01*
Y62817D01*
Y62955D01*
X155826Y63079D01*
X155834Y63174D01*
Y63254D01*
X155841Y63313D01*
X155848Y63356D01*
X155856Y63378D01*
Y63385D01*
X155877Y63480D01*
X155906Y63560D01*
X155936Y63626D01*
X155972Y63692D01*
X156001Y63735D01*
X156023Y63772D01*
X156038Y63794D01*
X156045Y63801D01*
X156103Y63859D01*
X156169Y63918D01*
X156242Y63961D01*
X156315Y64005D01*
X156380Y64034D01*
X156431Y64056D01*
X156468Y64071D01*
X156482Y64078D01*
X156599Y64114D01*
X156723Y64144D01*
X156847Y64165D01*
X156971Y64180D01*
X157080Y64187D01*
X157160Y64195D01*
X157241D01*
X157415Y64187D01*
D02*
G37*
G36*
X133103D02*
X133256Y64173D01*
X133402Y64151D01*
X133519Y64129D01*
X133621Y64107D01*
X133694Y64085D01*
X133723Y64078D01*
X133745Y64071D01*
X133752Y64063D01*
X133759D01*
X133883Y64012D01*
X133993Y63947D01*
X134088Y63888D01*
X134168Y63830D01*
X134226Y63772D01*
X134270Y63728D01*
X134299Y63699D01*
X134306Y63692D01*
X134372Y63597D01*
X134430Y63495D01*
X134474Y63393D01*
X134510Y63298D01*
X134539Y63203D01*
X134561Y63138D01*
X134569Y63108D01*
Y63086D01*
X134576Y63079D01*
Y63072D01*
X133971Y62992D01*
X133927Y63123D01*
X133883Y63240D01*
X133832Y63334D01*
X133789Y63407D01*
X133745Y63466D01*
X133708Y63502D01*
X133679Y63524D01*
X133672Y63531D01*
X133584Y63582D01*
X133482Y63619D01*
X133373Y63648D01*
X133271Y63662D01*
X133169Y63677D01*
X133096Y63684D01*
X133023D01*
X132855Y63677D01*
X132710Y63655D01*
X132593Y63619D01*
X132491Y63582D01*
X132418Y63538D01*
X132360Y63509D01*
X132323Y63480D01*
X132316Y63473D01*
X132258Y63407D01*
X132214Y63327D01*
X132177Y63240D01*
X132156Y63152D01*
X132141Y63072D01*
X132134Y62999D01*
Y62955D01*
Y62948D01*
Y62941D01*
Y62926D01*
Y62897D01*
Y62846D01*
X132141Y62802D01*
Y62788D01*
Y62780D01*
X132214Y62758D01*
X132294Y62737D01*
X132462Y62693D01*
X132651Y62656D01*
X132826Y62620D01*
X132914Y62605D01*
X132994Y62598D01*
X133067Y62584D01*
X133125Y62576D01*
X133176Y62569D01*
X133213D01*
X133242Y62562D01*
X133249D01*
X133380Y62547D01*
X133490Y62525D01*
X133584Y62511D01*
X133657Y62496D01*
X133716Y62489D01*
X133759Y62474D01*
X133789Y62467D01*
X133796D01*
X133891Y62438D01*
X133971Y62409D01*
X134051Y62372D01*
X134117Y62343D01*
X134175Y62314D01*
X134211Y62285D01*
X134241Y62270D01*
X134248Y62263D01*
X134321Y62212D01*
X134379Y62153D01*
X134437Y62095D01*
X134481Y62037D01*
X134518Y61986D01*
X134547Y61942D01*
X134561Y61913D01*
X134569Y61905D01*
X134605Y61825D01*
X134634Y61738D01*
X134656Y61658D01*
X134671Y61577D01*
X134678Y61512D01*
X134685Y61461D01*
Y61432D01*
Y61417D01*
X134678Y61330D01*
X134671Y61257D01*
X134634Y61104D01*
X134583Y60980D01*
X134525Y60870D01*
X134467Y60783D01*
X134416Y60717D01*
X134379Y60681D01*
X134364Y60666D01*
X134233Y60571D01*
X134088Y60498D01*
X133927Y60448D01*
X133781Y60411D01*
X133650Y60389D01*
X133592Y60382D01*
X133541D01*
X133497Y60375D01*
X133439D01*
X133308Y60382D01*
X133176Y60396D01*
X133060Y60411D01*
X132958Y60433D01*
X132877Y60455D01*
X132812Y60477D01*
X132768Y60484D01*
X132753Y60491D01*
X132630Y60542D01*
X132513Y60608D01*
X132404Y60681D01*
X132294Y60746D01*
X132207Y60812D01*
X132141Y60863D01*
X132097Y60900D01*
X132090Y60914D01*
X132083D01*
X132068Y60819D01*
X132054Y60732D01*
X132039Y60652D01*
X132017Y60586D01*
X131995Y60528D01*
X131981Y60491D01*
X131973Y60462D01*
X131966Y60455D01*
X131317D01*
X131354Y60535D01*
X131390Y60615D01*
X131419Y60688D01*
X131434Y60754D01*
X131456Y60812D01*
X131463Y60856D01*
X131470Y60885D01*
Y60892D01*
X131478Y60943D01*
X131485Y61009D01*
Y61082D01*
X131492Y61162D01*
X131500Y61344D01*
Y61526D01*
X131507Y61701D01*
Y61782D01*
Y61847D01*
Y61905D01*
Y61949D01*
Y61978D01*
Y61986D01*
Y62817D01*
Y62955D01*
X131514Y63079D01*
X131521Y63174D01*
Y63254D01*
X131529Y63313D01*
X131536Y63356D01*
X131543Y63378D01*
Y63385D01*
X131565Y63480D01*
X131594Y63560D01*
X131623Y63626D01*
X131660Y63692D01*
X131689Y63735D01*
X131711Y63772D01*
X131726Y63794D01*
X131733Y63801D01*
X131791Y63859D01*
X131857Y63918D01*
X131930Y63961D01*
X132003Y64005D01*
X132068Y64034D01*
X132119Y64056D01*
X132156Y64071D01*
X132170Y64078D01*
X132287Y64114D01*
X132411Y64144D01*
X132535Y64165D01*
X132659Y64180D01*
X132768Y64187D01*
X132848Y64195D01*
X132928D01*
X133103Y64187D01*
D02*
G37*
G36*
X127220D02*
X127373Y64173D01*
X127519Y64151D01*
X127636Y64129D01*
X127738Y64107D01*
X127811Y64085D01*
X127840Y64078D01*
X127862Y64071D01*
X127869Y64063D01*
X127876D01*
X128000Y64012D01*
X128110Y63947D01*
X128205Y63888D01*
X128285Y63830D01*
X128343Y63772D01*
X128387Y63728D01*
X128416Y63699D01*
X128423Y63692D01*
X128489Y63597D01*
X128547Y63495D01*
X128591Y63393D01*
X128627Y63298D01*
X128656Y63203D01*
X128678Y63138D01*
X128686Y63108D01*
Y63086D01*
X128693Y63079D01*
Y63072D01*
X128088Y62992D01*
X128044Y63123D01*
X128000Y63240D01*
X127949Y63334D01*
X127906Y63407D01*
X127862Y63466D01*
X127825Y63502D01*
X127796Y63524D01*
X127789Y63531D01*
X127701Y63582D01*
X127599Y63619D01*
X127490Y63648D01*
X127388Y63662D01*
X127286Y63677D01*
X127213Y63684D01*
X127140D01*
X126972Y63677D01*
X126827Y63655D01*
X126710Y63619D01*
X126608Y63582D01*
X126535Y63538D01*
X126477Y63509D01*
X126440Y63480D01*
X126433Y63473D01*
X126375Y63407D01*
X126331Y63327D01*
X126295Y63240D01*
X126273Y63152D01*
X126258Y63072D01*
X126251Y62999D01*
Y62955D01*
Y62948D01*
Y62941D01*
Y62926D01*
Y62897D01*
Y62846D01*
X126258Y62802D01*
Y62788D01*
Y62780D01*
X126331Y62758D01*
X126411Y62737D01*
X126579Y62693D01*
X126768Y62656D01*
X126943Y62620D01*
X127031Y62605D01*
X127111Y62598D01*
X127184Y62584D01*
X127242Y62576D01*
X127293Y62569D01*
X127330D01*
X127359Y62562D01*
X127366D01*
X127497Y62547D01*
X127607Y62525D01*
X127701Y62511D01*
X127774Y62496D01*
X127833Y62489D01*
X127876Y62474D01*
X127906Y62467D01*
X127913D01*
X128008Y62438D01*
X128088Y62409D01*
X128168Y62372D01*
X128234Y62343D01*
X128292Y62314D01*
X128328Y62285D01*
X128358Y62270D01*
X128365Y62263D01*
X128438Y62212D01*
X128496Y62153D01*
X128554Y62095D01*
X128598Y62037D01*
X128635Y61986D01*
X128664Y61942D01*
X128678Y61913D01*
X128686Y61905D01*
X128722Y61825D01*
X128751Y61738D01*
X128773Y61658D01*
X128788Y61577D01*
X128795Y61512D01*
X128802Y61461D01*
Y61432D01*
Y61417D01*
X128795Y61330D01*
X128788Y61257D01*
X128751Y61104D01*
X128700Y60980D01*
X128642Y60870D01*
X128584Y60783D01*
X128533Y60717D01*
X128496Y60681D01*
X128481Y60666D01*
X128350Y60571D01*
X128205Y60498D01*
X128044Y60448D01*
X127898Y60411D01*
X127767Y60389D01*
X127709Y60382D01*
X127658D01*
X127614Y60375D01*
X127556D01*
X127425Y60382D01*
X127293Y60396D01*
X127177Y60411D01*
X127075Y60433D01*
X126994Y60455D01*
X126929Y60477D01*
X126885Y60484D01*
X126870Y60491D01*
X126746Y60542D01*
X126630Y60608D01*
X126521Y60681D01*
X126411Y60746D01*
X126324Y60812D01*
X126258Y60863D01*
X126214Y60900D01*
X126207Y60914D01*
X126200D01*
X126185Y60819D01*
X126171Y60732D01*
X126156Y60652D01*
X126134Y60586D01*
X126112Y60528D01*
X126098Y60491D01*
X126090Y60462D01*
X126083Y60455D01*
X125434D01*
X125471Y60535D01*
X125507Y60615D01*
X125536Y60688D01*
X125551Y60754D01*
X125573Y60812D01*
X125580Y60856D01*
X125587Y60885D01*
Y60892D01*
X125595Y60943D01*
X125602Y61009D01*
Y61082D01*
X125609Y61162D01*
X125617Y61344D01*
Y61526D01*
X125624Y61701D01*
Y61782D01*
Y61847D01*
Y61905D01*
Y61949D01*
Y61978D01*
Y61986D01*
Y62817D01*
Y62955D01*
X125631Y63079D01*
X125638Y63174D01*
Y63254D01*
X125646Y63313D01*
X125653Y63356D01*
X125660Y63378D01*
Y63385D01*
X125682Y63480D01*
X125711Y63560D01*
X125741Y63626D01*
X125777Y63692D01*
X125806Y63735D01*
X125828Y63772D01*
X125842Y63794D01*
X125850Y63801D01*
X125908Y63859D01*
X125974Y63918D01*
X126047Y63961D01*
X126120Y64005D01*
X126185Y64034D01*
X126236Y64056D01*
X126273Y64071D01*
X126287Y64078D01*
X126404Y64114D01*
X126528Y64144D01*
X126652Y64165D01*
X126776Y64180D01*
X126885Y64187D01*
X126965Y64195D01*
X127045D01*
X127220Y64187D01*
D02*
G37*
G36*
X82525D02*
X82678Y64173D01*
X82824Y64151D01*
X82941Y64129D01*
X83043Y64107D01*
X83116Y64085D01*
X83145Y64078D01*
X83167Y64071D01*
X83174Y64063D01*
X83181D01*
X83305Y64012D01*
X83415Y63947D01*
X83509Y63888D01*
X83590Y63830D01*
X83648Y63772D01*
X83692Y63728D01*
X83721Y63699D01*
X83728Y63692D01*
X83794Y63597D01*
X83852Y63495D01*
X83896Y63393D01*
X83932Y63298D01*
X83961Y63203D01*
X83983Y63138D01*
X83991Y63108D01*
Y63086D01*
X83998Y63079D01*
Y63072D01*
X83393Y62992D01*
X83349Y63123D01*
X83305Y63240D01*
X83254Y63334D01*
X83211Y63407D01*
X83167Y63466D01*
X83130Y63502D01*
X83101Y63524D01*
X83094Y63531D01*
X83007Y63582D01*
X82904Y63619D01*
X82795Y63648D01*
X82693Y63662D01*
X82591Y63677D01*
X82518Y63684D01*
X82445D01*
X82278Y63677D01*
X82132Y63655D01*
X82015Y63619D01*
X81913Y63582D01*
X81840Y63538D01*
X81782Y63509D01*
X81745Y63480D01*
X81738Y63473D01*
X81680Y63407D01*
X81636Y63327D01*
X81599Y63240D01*
X81578Y63152D01*
X81563Y63072D01*
X81556Y62999D01*
Y62955D01*
Y62948D01*
Y62941D01*
Y62926D01*
Y62897D01*
Y62846D01*
X81563Y62802D01*
Y62788D01*
Y62780D01*
X81636Y62758D01*
X81716Y62737D01*
X81884Y62693D01*
X82073Y62656D01*
X82248Y62620D01*
X82336Y62605D01*
X82416Y62598D01*
X82489Y62584D01*
X82547Y62576D01*
X82598Y62569D01*
X82635D01*
X82664Y62562D01*
X82671D01*
X82802Y62547D01*
X82912Y62525D01*
X83007Y62511D01*
X83079Y62496D01*
X83138Y62489D01*
X83181Y62474D01*
X83211Y62467D01*
X83218D01*
X83313Y62438D01*
X83393Y62409D01*
X83473Y62372D01*
X83539Y62343D01*
X83597Y62314D01*
X83633Y62285D01*
X83663Y62270D01*
X83670Y62263D01*
X83743Y62212D01*
X83801Y62153D01*
X83859Y62095D01*
X83903Y62037D01*
X83940Y61986D01*
X83969Y61942D01*
X83983Y61913D01*
X83991Y61905D01*
X84027Y61825D01*
X84056Y61738D01*
X84078Y61658D01*
X84093Y61577D01*
X84100Y61512D01*
X84107Y61461D01*
Y61432D01*
Y61417D01*
X84100Y61330D01*
X84093Y61257D01*
X84056Y61104D01*
X84005Y60980D01*
X83947Y60870D01*
X83889Y60783D01*
X83837Y60717D01*
X83801Y60681D01*
X83786Y60666D01*
X83655Y60571D01*
X83509Y60498D01*
X83349Y60448D01*
X83203Y60411D01*
X83072Y60389D01*
X83014Y60382D01*
X82963D01*
X82919Y60375D01*
X82861D01*
X82730Y60382D01*
X82598Y60396D01*
X82482Y60411D01*
X82380Y60433D01*
X82299Y60455D01*
X82234Y60477D01*
X82190Y60484D01*
X82175Y60491D01*
X82051Y60542D01*
X81935Y60608D01*
X81826Y60681D01*
X81716Y60746D01*
X81629Y60812D01*
X81563Y60863D01*
X81519Y60900D01*
X81512Y60914D01*
X81505D01*
X81490Y60819D01*
X81476Y60732D01*
X81461Y60652D01*
X81439Y60586D01*
X81417Y60528D01*
X81403Y60491D01*
X81395Y60462D01*
X81388Y60455D01*
X80739D01*
X80776Y60535D01*
X80812Y60615D01*
X80841Y60688D01*
X80856Y60754D01*
X80878Y60812D01*
X80885Y60856D01*
X80892Y60885D01*
Y60892D01*
X80900Y60943D01*
X80907Y61009D01*
Y61082D01*
X80914Y61162D01*
X80922Y61344D01*
Y61526D01*
X80929Y61701D01*
Y61782D01*
Y61847D01*
Y61905D01*
Y61949D01*
Y61978D01*
Y61986D01*
Y62817D01*
Y62955D01*
X80936Y63079D01*
X80943Y63174D01*
Y63254D01*
X80951Y63313D01*
X80958Y63356D01*
X80965Y63378D01*
Y63385D01*
X80987Y63480D01*
X81016Y63560D01*
X81046Y63626D01*
X81082Y63692D01*
X81111Y63735D01*
X81133Y63772D01*
X81147Y63794D01*
X81155Y63801D01*
X81213Y63859D01*
X81279Y63918D01*
X81352Y63961D01*
X81425Y64005D01*
X81490Y64034D01*
X81541Y64056D01*
X81578Y64071D01*
X81592Y64078D01*
X81709Y64114D01*
X81833Y64144D01*
X81957Y64165D01*
X82081Y64180D01*
X82190Y64187D01*
X82270Y64195D01*
X82350D01*
X82525Y64187D01*
D02*
G37*
G36*
X72720D02*
X72873Y64173D01*
X73019Y64151D01*
X73136Y64129D01*
X73238Y64107D01*
X73311Y64085D01*
X73340Y64078D01*
X73362Y64071D01*
X73369Y64063D01*
X73376D01*
X73500Y64012D01*
X73610Y63947D01*
X73704Y63888D01*
X73785Y63830D01*
X73843Y63772D01*
X73887Y63728D01*
X73916Y63699D01*
X73923Y63692D01*
X73989Y63597D01*
X74047Y63495D01*
X74091Y63393D01*
X74127Y63298D01*
X74156Y63203D01*
X74178Y63138D01*
X74186Y63108D01*
Y63086D01*
X74193Y63079D01*
Y63072D01*
X73588Y62992D01*
X73544Y63123D01*
X73500Y63240D01*
X73449Y63334D01*
X73406Y63407D01*
X73362Y63466D01*
X73325Y63502D01*
X73296Y63524D01*
X73289Y63531D01*
X73201Y63582D01*
X73099Y63619D01*
X72990Y63648D01*
X72888Y63662D01*
X72786Y63677D01*
X72713Y63684D01*
X72640D01*
X72472Y63677D01*
X72327Y63655D01*
X72210Y63619D01*
X72108Y63582D01*
X72035Y63538D01*
X71977Y63509D01*
X71940Y63480D01*
X71933Y63473D01*
X71875Y63407D01*
X71831Y63327D01*
X71794Y63240D01*
X71773Y63152D01*
X71758Y63072D01*
X71751Y62999D01*
Y62955D01*
Y62948D01*
Y62941D01*
Y62926D01*
Y62897D01*
Y62846D01*
X71758Y62802D01*
Y62788D01*
Y62780D01*
X71831Y62758D01*
X71911Y62737D01*
X72079Y62693D01*
X72268Y62656D01*
X72443Y62620D01*
X72531Y62605D01*
X72611Y62598D01*
X72684Y62584D01*
X72742Y62576D01*
X72793Y62569D01*
X72830D01*
X72859Y62562D01*
X72866D01*
X72997Y62547D01*
X73107Y62525D01*
X73201Y62511D01*
X73274Y62496D01*
X73333Y62489D01*
X73376Y62474D01*
X73406Y62467D01*
X73413D01*
X73508Y62438D01*
X73588Y62409D01*
X73668Y62372D01*
X73734Y62343D01*
X73792Y62314D01*
X73828Y62285D01*
X73857Y62270D01*
X73865Y62263D01*
X73938Y62212D01*
X73996Y62153D01*
X74054Y62095D01*
X74098Y62037D01*
X74135Y61986D01*
X74164Y61942D01*
X74178Y61913D01*
X74186Y61905D01*
X74222Y61825D01*
X74251Y61738D01*
X74273Y61658D01*
X74288Y61577D01*
X74295Y61512D01*
X74302Y61461D01*
Y61432D01*
Y61417D01*
X74295Y61330D01*
X74288Y61257D01*
X74251Y61104D01*
X74200Y60980D01*
X74142Y60870D01*
X74084Y60783D01*
X74032Y60717D01*
X73996Y60681D01*
X73981Y60666D01*
X73850Y60571D01*
X73704Y60498D01*
X73544Y60448D01*
X73398Y60411D01*
X73267Y60389D01*
X73209Y60382D01*
X73158D01*
X73114Y60375D01*
X73056D01*
X72924Y60382D01*
X72793Y60396D01*
X72677Y60411D01*
X72575Y60433D01*
X72494Y60455D01*
X72429Y60477D01*
X72385Y60484D01*
X72370Y60491D01*
X72246Y60542D01*
X72130Y60608D01*
X72021Y60681D01*
X71911Y60746D01*
X71824Y60812D01*
X71758Y60863D01*
X71714Y60900D01*
X71707Y60914D01*
X71700D01*
X71685Y60819D01*
X71671Y60732D01*
X71656Y60652D01*
X71634Y60586D01*
X71612Y60528D01*
X71598Y60491D01*
X71590Y60462D01*
X71583Y60455D01*
X70934D01*
X70971Y60535D01*
X71007Y60615D01*
X71036Y60688D01*
X71051Y60754D01*
X71073Y60812D01*
X71080Y60856D01*
X71087Y60885D01*
Y60892D01*
X71095Y60943D01*
X71102Y61009D01*
Y61082D01*
X71109Y61162D01*
X71117Y61344D01*
Y61526D01*
X71124Y61701D01*
Y61782D01*
Y61847D01*
Y61905D01*
Y61949D01*
Y61978D01*
Y61986D01*
Y62817D01*
Y62955D01*
X71131Y63079D01*
X71138Y63174D01*
Y63254D01*
X71146Y63313D01*
X71153Y63356D01*
X71160Y63378D01*
Y63385D01*
X71182Y63480D01*
X71211Y63560D01*
X71240Y63626D01*
X71277Y63692D01*
X71306Y63735D01*
X71328Y63772D01*
X71342Y63794D01*
X71350Y63801D01*
X71408Y63859D01*
X71474Y63918D01*
X71547Y63961D01*
X71619Y64005D01*
X71685Y64034D01*
X71736Y64056D01*
X71773Y64071D01*
X71787Y64078D01*
X71904Y64114D01*
X72028Y64144D01*
X72152Y64165D01*
X72276Y64180D01*
X72385Y64187D01*
X72465Y64195D01*
X72545D01*
X72720Y64187D01*
D02*
G37*
G36*
X62923D02*
X63076Y64173D01*
X63221Y64151D01*
X63338Y64129D01*
X63440Y64107D01*
X63513Y64085D01*
X63542Y64078D01*
X63564Y64071D01*
X63571Y64063D01*
X63579D01*
X63703Y64012D01*
X63812Y63947D01*
X63907Y63888D01*
X63987Y63830D01*
X64045Y63772D01*
X64089Y63728D01*
X64118Y63699D01*
X64125Y63692D01*
X64191Y63597D01*
X64249Y63495D01*
X64293Y63393D01*
X64329Y63298D01*
X64359Y63203D01*
X64381Y63138D01*
X64388Y63108D01*
Y63086D01*
X64395Y63079D01*
Y63072D01*
X63790Y62992D01*
X63746Y63123D01*
X63703Y63240D01*
X63652Y63334D01*
X63608Y63407D01*
X63564Y63466D01*
X63528Y63502D01*
X63499Y63524D01*
X63491Y63531D01*
X63404Y63582D01*
X63302Y63619D01*
X63192Y63648D01*
X63090Y63662D01*
X62988Y63677D01*
X62915Y63684D01*
X62842D01*
X62675Y63677D01*
X62529Y63655D01*
X62412Y63619D01*
X62310Y63582D01*
X62237Y63538D01*
X62179Y63509D01*
X62142Y63480D01*
X62135Y63473D01*
X62077Y63407D01*
X62033Y63327D01*
X61997Y63240D01*
X61975Y63152D01*
X61960Y63072D01*
X61953Y62999D01*
Y62955D01*
Y62948D01*
Y62941D01*
Y62926D01*
Y62897D01*
Y62846D01*
X61960Y62802D01*
Y62788D01*
Y62780D01*
X62033Y62758D01*
X62113Y62737D01*
X62281Y62693D01*
X62471Y62656D01*
X62646Y62620D01*
X62733Y62605D01*
X62813Y62598D01*
X62886Y62584D01*
X62944Y62576D01*
X62995Y62569D01*
X63032D01*
X63061Y62562D01*
X63068D01*
X63200Y62547D01*
X63309Y62525D01*
X63404Y62511D01*
X63477Y62496D01*
X63535Y62489D01*
X63579Y62474D01*
X63608Y62467D01*
X63615D01*
X63710Y62438D01*
X63790Y62409D01*
X63870Y62372D01*
X63936Y62343D01*
X63994Y62314D01*
X64031Y62285D01*
X64060Y62270D01*
X64067Y62263D01*
X64140Y62212D01*
X64198Y62153D01*
X64257Y62095D01*
X64300Y62037D01*
X64337Y61986D01*
X64366Y61942D01*
X64381Y61913D01*
X64388Y61905D01*
X64424Y61825D01*
X64453Y61738D01*
X64475Y61658D01*
X64490Y61577D01*
X64497Y61512D01*
X64504Y61461D01*
Y61432D01*
Y61417D01*
X64497Y61330D01*
X64490Y61257D01*
X64453Y61104D01*
X64402Y60980D01*
X64344Y60870D01*
X64286Y60783D01*
X64235Y60717D01*
X64198Y60681D01*
X64184Y60666D01*
X64052Y60571D01*
X63907Y60498D01*
X63746Y60448D01*
X63600Y60411D01*
X63469Y60389D01*
X63411Y60382D01*
X63360D01*
X63316Y60375D01*
X63258D01*
X63127Y60382D01*
X62995Y60396D01*
X62879Y60411D01*
X62777Y60433D01*
X62697Y60455D01*
X62631Y60477D01*
X62587Y60484D01*
X62573Y60491D01*
X62449Y60542D01*
X62332Y60608D01*
X62223Y60681D01*
X62113Y60746D01*
X62026Y60812D01*
X61960Y60863D01*
X61917Y60900D01*
X61909Y60914D01*
X61902D01*
X61887Y60819D01*
X61873Y60732D01*
X61858Y60652D01*
X61836Y60586D01*
X61814Y60528D01*
X61800Y60491D01*
X61793Y60462D01*
X61785Y60455D01*
X61137D01*
X61173Y60535D01*
X61209Y60615D01*
X61238Y60688D01*
X61253Y60754D01*
X61275Y60812D01*
X61282Y60856D01*
X61290Y60885D01*
Y60892D01*
X61297Y60943D01*
X61304Y61009D01*
Y61082D01*
X61312Y61162D01*
X61319Y61344D01*
Y61526D01*
X61326Y61701D01*
Y61782D01*
Y61847D01*
Y61905D01*
Y61949D01*
Y61978D01*
Y61986D01*
Y62817D01*
Y62955D01*
X61333Y63079D01*
X61341Y63174D01*
Y63254D01*
X61348Y63313D01*
X61355Y63356D01*
X61362Y63378D01*
Y63385D01*
X61384Y63480D01*
X61414Y63560D01*
X61443Y63626D01*
X61479Y63692D01*
X61508Y63735D01*
X61530Y63772D01*
X61545Y63794D01*
X61552Y63801D01*
X61610Y63859D01*
X61676Y63918D01*
X61749Y63961D01*
X61822Y64005D01*
X61887Y64034D01*
X61938Y64056D01*
X61975Y64071D01*
X61989Y64078D01*
X62106Y64114D01*
X62230Y64144D01*
X62354Y64165D01*
X62478Y64180D01*
X62587Y64187D01*
X62667Y64195D01*
X62748D01*
X62923Y64187D01*
D02*
G37*
G36*
X110351Y60455D02*
X109761D01*
X108368Y64114D01*
X109010D01*
X109819Y61876D01*
X109870Y61731D01*
X109921Y61599D01*
X109958Y61475D01*
X109994Y61381D01*
X110016Y61293D01*
X110038Y61235D01*
X110045Y61198D01*
X110052Y61184D01*
X110096Y61322D01*
X110133Y61461D01*
X110176Y61585D01*
X110213Y61694D01*
X110242Y61789D01*
X110264Y61862D01*
X110271Y61884D01*
X110278Y61905D01*
X110286Y61913D01*
Y61920D01*
X111073Y64114D01*
X111729D01*
X110351Y60455D01*
D02*
G37*
G36*
X152801Y65018D02*
Y64114D01*
X153260D01*
Y63633D01*
X152801D01*
Y61519D01*
Y61417D01*
Y61330D01*
X152794Y61249D01*
X152786Y61169D01*
Y61104D01*
X152779Y61045D01*
X152764Y60950D01*
X152750Y60878D01*
X152743Y60827D01*
X152728Y60797D01*
Y60790D01*
X152699Y60725D01*
X152655Y60673D01*
X152611Y60623D01*
X152575Y60586D01*
X152531Y60550D01*
X152502Y60528D01*
X152480Y60513D01*
X152473Y60506D01*
X152393Y60469D01*
X152313Y60448D01*
X152225Y60426D01*
X152138Y60418D01*
X152065Y60411D01*
X152006Y60404D01*
X151948D01*
X151788Y60411D01*
X151707Y60418D01*
X151635Y60433D01*
X151569Y60440D01*
X151518Y60448D01*
X151489Y60455D01*
X151474D01*
X151554Y61001D01*
X151613Y60994D01*
X151671Y60987D01*
X151722D01*
X151759Y60980D01*
X151831D01*
X151926Y60987D01*
X151992Y61001D01*
X152028Y61016D01*
X152043Y61023D01*
X152094Y61060D01*
X152123Y61096D01*
X152145Y61125D01*
X152152Y61140D01*
X152159Y61177D01*
X152167Y61228D01*
X152174Y61344D01*
X152181Y61395D01*
Y61439D01*
Y61468D01*
Y61483D01*
Y63633D01*
X151554D01*
Y64114D01*
X152181D01*
Y65390D01*
X152801Y65018D01*
D02*
G37*
G36*
X70067D02*
Y64114D01*
X70526D01*
Y63633D01*
X70067D01*
Y61519D01*
Y61417D01*
Y61330D01*
X70060Y61249D01*
X70052Y61169D01*
Y61104D01*
X70045Y61045D01*
X70030Y60950D01*
X70016Y60878D01*
X70008Y60827D01*
X69994Y60797D01*
Y60790D01*
X69965Y60725D01*
X69921Y60673D01*
X69877Y60623D01*
X69841Y60586D01*
X69797Y60550D01*
X69768Y60528D01*
X69746Y60513D01*
X69739Y60506D01*
X69658Y60469D01*
X69578Y60448D01*
X69491Y60426D01*
X69403Y60418D01*
X69330Y60411D01*
X69272Y60404D01*
X69214D01*
X69053Y60411D01*
X68973Y60418D01*
X68900Y60433D01*
X68835Y60440D01*
X68784Y60448D01*
X68755Y60455D01*
X68740D01*
X68820Y61001D01*
X68879Y60994D01*
X68937Y60987D01*
X68988D01*
X69024Y60980D01*
X69097D01*
X69192Y60987D01*
X69258Y61001D01*
X69294Y61016D01*
X69309Y61023D01*
X69360Y61060D01*
X69389Y61096D01*
X69411Y61125D01*
X69418Y61140D01*
X69425Y61177D01*
X69432Y61228D01*
X69440Y61344D01*
X69447Y61395D01*
Y61439D01*
Y61468D01*
Y61483D01*
Y63633D01*
X68820D01*
Y64114D01*
X69447D01*
Y65390D01*
X70067Y65018D01*
D02*
G37*
G36*
X149586Y64187D02*
X149717Y64173D01*
X149841Y64151D01*
X149958Y64114D01*
X150067Y64078D01*
X150169Y64034D01*
X150264Y63990D01*
X150344Y63939D01*
X150424Y63896D01*
X150490Y63845D01*
X150548Y63801D01*
X150592Y63765D01*
X150628Y63728D01*
X150658Y63706D01*
X150672Y63692D01*
X150680Y63684D01*
X150760Y63582D01*
X150833Y63473D01*
X150898Y63363D01*
X150957Y63247D01*
X151000Y63123D01*
X151037Y63006D01*
X151095Y62773D01*
X151117Y62671D01*
X151131Y62569D01*
X151139Y62481D01*
X151146Y62401D01*
X151153Y62336D01*
Y62292D01*
Y62255D01*
Y62248D01*
X151146Y62088D01*
X151131Y61935D01*
X151110Y61789D01*
X151081Y61658D01*
X151044Y61534D01*
X151008Y61417D01*
X150964Y61315D01*
X150920Y61220D01*
X150876Y61140D01*
X150833Y61067D01*
X150796Y61009D01*
X150760Y60958D01*
X150731Y60914D01*
X150709Y60885D01*
X150694Y60870D01*
X150687Y60863D01*
X150592Y60776D01*
X150497Y60703D01*
X150395Y60637D01*
X150286Y60579D01*
X150184Y60535D01*
X150075Y60491D01*
X149870Y60433D01*
X149776Y60418D01*
X149688Y60404D01*
X149608Y60389D01*
X149542Y60382D01*
X149491Y60375D01*
X149411D01*
X149185Y60389D01*
X148981Y60426D01*
X148799Y60469D01*
X148726Y60498D01*
X148653Y60528D01*
X148587Y60557D01*
X148529Y60586D01*
X148485Y60608D01*
X148442Y60630D01*
X148412Y60652D01*
X148390Y60666D01*
X148376Y60681D01*
X148369D01*
X148223Y60812D01*
X148106Y60950D01*
X148004Y61096D01*
X147931Y61235D01*
X147873Y61359D01*
X147851Y61417D01*
X147829Y61461D01*
X147815Y61505D01*
X147807Y61534D01*
X147800Y61548D01*
Y61556D01*
X148442Y61636D01*
X148500Y61497D01*
X148565Y61381D01*
X148631Y61279D01*
X148689Y61198D01*
X148740Y61140D01*
X148784Y61096D01*
X148821Y61067D01*
X148828Y61060D01*
X148923Y61001D01*
X149017Y60958D01*
X149119Y60929D01*
X149207Y60907D01*
X149287Y60892D01*
X149353Y60885D01*
X149411D01*
X149499Y60892D01*
X149579Y60900D01*
X149725Y60936D01*
X149856Y60987D01*
X149972Y61045D01*
X150060Y61096D01*
X150126Y61147D01*
X150169Y61184D01*
X150177Y61198D01*
X150184D01*
X150286Y61330D01*
X150366Y61475D01*
X150424Y61636D01*
X150468Y61782D01*
X150490Y61913D01*
X150505Y61971D01*
X150512Y62022D01*
Y62066D01*
X150519Y62095D01*
Y62117D01*
Y62124D01*
X147785D01*
X147778Y62197D01*
Y62248D01*
Y62277D01*
Y62285D01*
X147785Y62452D01*
X147800Y62605D01*
X147822Y62751D01*
X147851Y62890D01*
X147888Y63014D01*
X147924Y63130D01*
X147968Y63232D01*
X148011Y63327D01*
X148055Y63415D01*
X148099Y63487D01*
X148135Y63546D01*
X148172Y63597D01*
X148201Y63640D01*
X148223Y63670D01*
X148237Y63684D01*
X148245Y63692D01*
X148332Y63779D01*
X148427Y63859D01*
X148529Y63925D01*
X148631Y63983D01*
X148733Y64034D01*
X148828Y64071D01*
X148930Y64107D01*
X149017Y64129D01*
X149112Y64151D01*
X149192Y64165D01*
X149265Y64180D01*
X149324Y64187D01*
X149375Y64195D01*
X149448D01*
X149586Y64187D01*
D02*
G37*
G36*
X145715D02*
X145876Y64158D01*
X146028Y64122D01*
X146152Y64085D01*
X146262Y64042D01*
X146306Y64020D01*
X146342Y64005D01*
X146371Y63990D01*
X146393Y63976D01*
X146408Y63969D01*
X146415D01*
X146553Y63881D01*
X146677Y63772D01*
X146779Y63662D01*
X146867Y63553D01*
X146932Y63458D01*
X146976Y63378D01*
X146991Y63349D01*
X147005Y63327D01*
X147013Y63313D01*
Y63305D01*
X147078Y63130D01*
X147122Y62955D01*
X147159Y62780D01*
X147180Y62620D01*
X147188Y62547D01*
X147195Y62481D01*
Y62423D01*
X147202Y62372D01*
Y62328D01*
Y62299D01*
Y62277D01*
Y62270D01*
X147195Y62102D01*
X147180Y61949D01*
X147159Y61796D01*
X147129Y61665D01*
X147100Y61534D01*
X147056Y61424D01*
X147020Y61315D01*
X146976Y61220D01*
X146932Y61140D01*
X146896Y61067D01*
X146852Y61001D01*
X146823Y60950D01*
X146794Y60914D01*
X146772Y60885D01*
X146757Y60870D01*
X146750Y60863D01*
X146663Y60776D01*
X146568Y60703D01*
X146473Y60637D01*
X146371Y60579D01*
X146269Y60535D01*
X146174Y60491D01*
X145977Y60433D01*
X145890Y60418D01*
X145810Y60404D01*
X145737Y60389D01*
X145671Y60382D01*
X145620Y60375D01*
X145547D01*
X145438Y60382D01*
X145329Y60389D01*
X145139Y60433D01*
X144964Y60484D01*
X144818Y60550D01*
X144760Y60586D01*
X144702Y60615D01*
X144651Y60644D01*
X144614Y60673D01*
X144585Y60695D01*
X144563Y60710D01*
X144549Y60717D01*
X144541Y60725D01*
X144468Y60797D01*
X144403Y60870D01*
X144286Y61031D01*
X144192Y61198D01*
X144126Y61352D01*
X144075Y61497D01*
X144060Y61556D01*
X144046Y61614D01*
X144038Y61658D01*
X144031Y61687D01*
X144024Y61709D01*
Y61716D01*
X144636Y61796D01*
X144665Y61636D01*
X144709Y61490D01*
X144767Y61373D01*
X144818Y61279D01*
X144869Y61198D01*
X144913Y61147D01*
X144935Y61111D01*
X144950Y61104D01*
X145044Y61031D01*
X145147Y60980D01*
X145248Y60936D01*
X145343Y60914D01*
X145423Y60900D01*
X145496Y60892D01*
X145540Y60885D01*
X145555D01*
X145635Y60892D01*
X145715Y60900D01*
X145861Y60936D01*
X145985Y60987D01*
X146094Y61053D01*
X146174Y61111D01*
X146240Y61162D01*
X146276Y61198D01*
X146291Y61213D01*
X146342Y61279D01*
X146386Y61359D01*
X146451Y61519D01*
X146502Y61701D01*
X146531Y61876D01*
X146553Y62037D01*
X146561Y62102D01*
Y62168D01*
X146568Y62212D01*
Y62255D01*
Y62277D01*
Y62285D01*
Y62416D01*
X146553Y62540D01*
X146539Y62656D01*
X146524Y62758D01*
X146502Y62853D01*
X146473Y62941D01*
X146451Y63021D01*
X146422Y63094D01*
X146393Y63152D01*
X146371Y63203D01*
X146342Y63247D01*
X146320Y63283D01*
X146306Y63313D01*
X146291Y63334D01*
X146276Y63342D01*
Y63349D01*
X146218Y63407D01*
X146160Y63458D01*
X146036Y63546D01*
X145905Y63604D01*
X145788Y63640D01*
X145679Y63670D01*
X145598Y63677D01*
X145562Y63684D01*
X145518D01*
X145409Y63677D01*
X145307Y63655D01*
X145219Y63626D01*
X145139Y63590D01*
X145081Y63553D01*
X145030Y63524D01*
X145001Y63502D01*
X144993Y63495D01*
X144921Y63422D01*
X144855Y63334D01*
X144797Y63240D01*
X144760Y63152D01*
X144724Y63072D01*
X144702Y63006D01*
X144694Y62963D01*
X144687Y62955D01*
Y62948D01*
X144082Y63043D01*
X144133Y63240D01*
X144206Y63407D01*
X144286Y63553D01*
X144366Y63670D01*
X144447Y63765D01*
X144512Y63830D01*
X144556Y63874D01*
X144563Y63888D01*
X144571D01*
X144724Y63990D01*
X144884Y64063D01*
X145044Y64122D01*
X145197Y64158D01*
X145336Y64180D01*
X145394Y64187D01*
X145438D01*
X145482Y64195D01*
X145540D01*
X145715Y64187D01*
D02*
G37*
G36*
X136697D02*
X136858Y64158D01*
X137011Y64122D01*
X137135Y64085D01*
X137244Y64042D01*
X137288Y64020D01*
X137324Y64005D01*
X137353Y63990D01*
X137375Y63976D01*
X137390Y63969D01*
X137397D01*
X137536Y63881D01*
X137660Y63772D01*
X137762Y63662D01*
X137849Y63553D01*
X137915Y63458D01*
X137959Y63378D01*
X137973Y63349D01*
X137988Y63327D01*
X137995Y63313D01*
Y63305D01*
X138061Y63130D01*
X138104Y62955D01*
X138141Y62780D01*
X138163Y62620D01*
X138170Y62547D01*
X138177Y62481D01*
Y62423D01*
X138184Y62372D01*
Y62328D01*
Y62299D01*
Y62277D01*
Y62270D01*
X138177Y62102D01*
X138163Y61949D01*
X138141Y61796D01*
X138112Y61665D01*
X138082Y61534D01*
X138039Y61424D01*
X138002Y61315D01*
X137959Y61220D01*
X137915Y61140D01*
X137878Y61067D01*
X137835Y61001D01*
X137805Y60950D01*
X137776Y60914D01*
X137754Y60885D01*
X137740Y60870D01*
X137733Y60863D01*
X137645Y60776D01*
X137550Y60703D01*
X137455Y60637D01*
X137353Y60579D01*
X137251Y60535D01*
X137157Y60491D01*
X136960Y60433D01*
X136872Y60418D01*
X136792Y60404D01*
X136719Y60389D01*
X136654Y60382D01*
X136603Y60375D01*
X136530D01*
X136420Y60382D01*
X136311Y60389D01*
X136121Y60433D01*
X135947Y60484D01*
X135801Y60550D01*
X135742Y60586D01*
X135684Y60615D01*
X135633Y60644D01*
X135597Y60673D01*
X135567Y60695D01*
X135546Y60710D01*
X135531Y60717D01*
X135524Y60725D01*
X135451Y60797D01*
X135385Y60870D01*
X135268Y61031D01*
X135174Y61198D01*
X135108Y61352D01*
X135057Y61497D01*
X135043Y61556D01*
X135028Y61614D01*
X135021Y61658D01*
X135013Y61687D01*
X135006Y61709D01*
Y61716D01*
X135618Y61796D01*
X135648Y61636D01*
X135691Y61490D01*
X135750Y61373D01*
X135801Y61279D01*
X135852Y61198D01*
X135895Y61147D01*
X135917Y61111D01*
X135932Y61104D01*
X136027Y61031D01*
X136129Y60980D01*
X136231Y60936D01*
X136326Y60914D01*
X136406Y60900D01*
X136479Y60892D01*
X136522Y60885D01*
X136537D01*
X136617Y60892D01*
X136697Y60900D01*
X136843Y60936D01*
X136967Y60987D01*
X137076Y61053D01*
X137157Y61111D01*
X137222Y61162D01*
X137259Y61198D01*
X137273Y61213D01*
X137324Y61279D01*
X137368Y61359D01*
X137434Y61519D01*
X137485Y61701D01*
X137514Y61876D01*
X137536Y62037D01*
X137543Y62102D01*
Y62168D01*
X137550Y62212D01*
Y62255D01*
Y62277D01*
Y62285D01*
Y62416D01*
X137536Y62540D01*
X137521Y62656D01*
X137506Y62758D01*
X137485Y62853D01*
X137455Y62941D01*
X137434Y63021D01*
X137405Y63094D01*
X137375Y63152D01*
X137353Y63203D01*
X137324Y63247D01*
X137302Y63283D01*
X137288Y63313D01*
X137273Y63334D01*
X137259Y63342D01*
Y63349D01*
X137200Y63407D01*
X137142Y63458D01*
X137018Y63546D01*
X136887Y63604D01*
X136770Y63640D01*
X136661Y63670D01*
X136581Y63677D01*
X136544Y63684D01*
X136501D01*
X136391Y63677D01*
X136289Y63655D01*
X136202Y63626D01*
X136121Y63590D01*
X136063Y63553D01*
X136012Y63524D01*
X135983Y63502D01*
X135976Y63495D01*
X135903Y63422D01*
X135837Y63334D01*
X135779Y63240D01*
X135742Y63152D01*
X135706Y63072D01*
X135684Y63006D01*
X135677Y62963D01*
X135670Y62955D01*
Y62948D01*
X135064Y63043D01*
X135115Y63240D01*
X135188Y63407D01*
X135268Y63553D01*
X135349Y63670D01*
X135429Y63765D01*
X135494Y63830D01*
X135538Y63874D01*
X135546Y63888D01*
X135553D01*
X135706Y63990D01*
X135866Y64063D01*
X136027Y64122D01*
X136180Y64158D01*
X136318Y64180D01*
X136377Y64187D01*
X136420D01*
X136464Y64195D01*
X136522D01*
X136697Y64187D01*
D02*
G37*
G36*
X116256D02*
X116387Y64173D01*
X116511Y64151D01*
X116628Y64114D01*
X116737Y64078D01*
X116839Y64034D01*
X116934Y63990D01*
X117014Y63939D01*
X117095Y63896D01*
X117160Y63845D01*
X117218Y63801D01*
X117262Y63765D01*
X117299Y63728D01*
X117328Y63706D01*
X117342Y63692D01*
X117350Y63684D01*
X117430Y63582D01*
X117503Y63473D01*
X117568Y63363D01*
X117627Y63247D01*
X117670Y63123D01*
X117707Y63006D01*
X117765Y62773D01*
X117787Y62671D01*
X117802Y62569D01*
X117809Y62481D01*
X117816Y62401D01*
X117824Y62336D01*
Y62292D01*
Y62255D01*
Y62248D01*
X117816Y62088D01*
X117802Y61935D01*
X117780Y61789D01*
X117751Y61658D01*
X117714Y61534D01*
X117678Y61417D01*
X117634Y61315D01*
X117590Y61220D01*
X117546Y61140D01*
X117503Y61067D01*
X117466Y61009D01*
X117430Y60958D01*
X117401Y60914D01*
X117379Y60885D01*
X117364Y60870D01*
X117357Y60863D01*
X117262Y60776D01*
X117167Y60703D01*
X117065Y60637D01*
X116956Y60579D01*
X116854Y60535D01*
X116745Y60491D01*
X116541Y60433D01*
X116446Y60418D01*
X116358Y60404D01*
X116278Y60389D01*
X116212Y60382D01*
X116161Y60375D01*
X116081D01*
X115855Y60389D01*
X115651Y60426D01*
X115469Y60469D01*
X115396Y60498D01*
X115323Y60528D01*
X115257Y60557D01*
X115199Y60586D01*
X115155Y60608D01*
X115112Y60630D01*
X115083Y60652D01*
X115061Y60666D01*
X115046Y60681D01*
X115039D01*
X114893Y60812D01*
X114776Y60950D01*
X114674Y61096D01*
X114601Y61235D01*
X114543Y61359D01*
X114521Y61417D01*
X114499Y61461D01*
X114485Y61505D01*
X114477Y61534D01*
X114470Y61548D01*
Y61556D01*
X115112Y61636D01*
X115170Y61497D01*
X115236Y61381D01*
X115301Y61279D01*
X115359Y61198D01*
X115410Y61140D01*
X115454Y61096D01*
X115491Y61067D01*
X115498Y61060D01*
X115593Y61001D01*
X115688Y60958D01*
X115790Y60929D01*
X115877Y60907D01*
X115957Y60892D01*
X116023Y60885D01*
X116081D01*
X116169Y60892D01*
X116249Y60900D01*
X116395Y60936D01*
X116526Y60987D01*
X116643Y61045D01*
X116730Y61096D01*
X116796Y61147D01*
X116839Y61184D01*
X116847Y61198D01*
X116854D01*
X116956Y61330D01*
X117036Y61475D01*
X117095Y61636D01*
X117138Y61782D01*
X117160Y61913D01*
X117175Y61971D01*
X117182Y62022D01*
Y62066D01*
X117189Y62095D01*
Y62117D01*
Y62124D01*
X114455D01*
X114448Y62197D01*
Y62248D01*
Y62277D01*
Y62285D01*
X114455Y62452D01*
X114470Y62605D01*
X114492Y62751D01*
X114521Y62890D01*
X114558Y63014D01*
X114594Y63130D01*
X114638Y63232D01*
X114681Y63327D01*
X114725Y63415D01*
X114769Y63487D01*
X114805Y63546D01*
X114842Y63597D01*
X114871Y63640D01*
X114893Y63670D01*
X114908Y63684D01*
X114915Y63692D01*
X115002Y63779D01*
X115097Y63859D01*
X115199Y63925D01*
X115301Y63983D01*
X115403Y64034D01*
X115498Y64071D01*
X115600Y64107D01*
X115688Y64129D01*
X115782Y64151D01*
X115863Y64165D01*
X115935Y64180D01*
X115994Y64187D01*
X116045Y64195D01*
X116118D01*
X116256Y64187D01*
D02*
G37*
G36*
X104942D02*
X105103Y64158D01*
X105256Y64122D01*
X105379Y64085D01*
X105489Y64042D01*
X105533Y64020D01*
X105569Y64005D01*
X105598Y63990D01*
X105620Y63976D01*
X105635Y63969D01*
X105642D01*
X105780Y63881D01*
X105904Y63772D01*
X106006Y63662D01*
X106094Y63553D01*
X106159Y63458D01*
X106203Y63378D01*
X106218Y63349D01*
X106232Y63327D01*
X106240Y63313D01*
Y63305D01*
X106305Y63130D01*
X106349Y62955D01*
X106386Y62780D01*
X106407Y62620D01*
X106415Y62547D01*
X106422Y62481D01*
Y62423D01*
X106429Y62372D01*
Y62328D01*
Y62299D01*
Y62277D01*
Y62270D01*
X106422Y62102D01*
X106407Y61949D01*
X106386Y61796D01*
X106356Y61665D01*
X106327Y61534D01*
X106283Y61424D01*
X106247Y61315D01*
X106203Y61220D01*
X106159Y61140D01*
X106123Y61067D01*
X106079Y61001D01*
X106050Y60950D01*
X106021Y60914D01*
X105999Y60885D01*
X105985Y60870D01*
X105977Y60863D01*
X105890Y60776D01*
X105795Y60703D01*
X105700Y60637D01*
X105598Y60579D01*
X105496Y60535D01*
X105401Y60491D01*
X105204Y60433D01*
X105117Y60418D01*
X105037Y60404D01*
X104964Y60389D01*
X104898Y60382D01*
X104847Y60375D01*
X104774D01*
X104665Y60382D01*
X104556Y60389D01*
X104366Y60433D01*
X104191Y60484D01*
X104045Y60550D01*
X103987Y60586D01*
X103929Y60615D01*
X103878Y60644D01*
X103841Y60673D01*
X103812Y60695D01*
X103790Y60710D01*
X103776Y60717D01*
X103768Y60725D01*
X103695Y60797D01*
X103630Y60870D01*
X103513Y61031D01*
X103419Y61198D01*
X103353Y61352D01*
X103302Y61497D01*
X103287Y61556D01*
X103273Y61614D01*
X103265Y61658D01*
X103258Y61687D01*
X103251Y61709D01*
Y61716D01*
X103863Y61796D01*
X103892Y61636D01*
X103936Y61490D01*
X103994Y61373D01*
X104045Y61279D01*
X104096Y61198D01*
X104140Y61147D01*
X104162Y61111D01*
X104177Y61104D01*
X104271Y61031D01*
X104374Y60980D01*
X104475Y60936D01*
X104570Y60914D01*
X104650Y60900D01*
X104723Y60892D01*
X104767Y60885D01*
X104782D01*
X104862Y60892D01*
X104942Y60900D01*
X105088Y60936D01*
X105212Y60987D01*
X105321Y61053D01*
X105401Y61111D01*
X105467Y61162D01*
X105503Y61198D01*
X105518Y61213D01*
X105569Y61279D01*
X105613Y61359D01*
X105678Y61519D01*
X105729Y61701D01*
X105759Y61876D01*
X105780Y62037D01*
X105788Y62102D01*
Y62168D01*
X105795Y62212D01*
Y62255D01*
Y62277D01*
Y62285D01*
Y62416D01*
X105780Y62540D01*
X105766Y62656D01*
X105751Y62758D01*
X105729Y62853D01*
X105700Y62941D01*
X105678Y63021D01*
X105649Y63094D01*
X105620Y63152D01*
X105598Y63203D01*
X105569Y63247D01*
X105547Y63283D01*
X105533Y63313D01*
X105518Y63334D01*
X105503Y63342D01*
Y63349D01*
X105445Y63407D01*
X105387Y63458D01*
X105263Y63546D01*
X105132Y63604D01*
X105015Y63640D01*
X104906Y63670D01*
X104825Y63677D01*
X104789Y63684D01*
X104745D01*
X104636Y63677D01*
X104534Y63655D01*
X104446Y63626D01*
X104366Y63590D01*
X104308Y63553D01*
X104257Y63524D01*
X104228Y63502D01*
X104220Y63495D01*
X104148Y63422D01*
X104082Y63334D01*
X104024Y63240D01*
X103987Y63152D01*
X103951Y63072D01*
X103929Y63006D01*
X103921Y62963D01*
X103914Y62955D01*
Y62948D01*
X103309Y63043D01*
X103360Y63240D01*
X103433Y63407D01*
X103513Y63553D01*
X103594Y63670D01*
X103674Y63765D01*
X103739Y63830D01*
X103783Y63874D01*
X103790Y63888D01*
X103798D01*
X103951Y63990D01*
X104111Y64063D01*
X104271Y64122D01*
X104425Y64158D01*
X104563Y64180D01*
X104621Y64187D01*
X104665D01*
X104709Y64195D01*
X104767D01*
X104942Y64187D01*
D02*
G37*
G36*
X89990D02*
X90122Y64173D01*
X90245Y64151D01*
X90362Y64114D01*
X90472Y64078D01*
X90574Y64034D01*
X90668Y63990D01*
X90749Y63939D01*
X90829Y63896D01*
X90894Y63845D01*
X90953Y63801D01*
X90996Y63765D01*
X91033Y63728D01*
X91062Y63706D01*
X91076Y63692D01*
X91084Y63684D01*
X91164Y63582D01*
X91237Y63473D01*
X91303Y63363D01*
X91361Y63247D01*
X91405Y63123D01*
X91441Y63006D01*
X91499Y62773D01*
X91521Y62671D01*
X91536Y62569D01*
X91543Y62481D01*
X91550Y62401D01*
X91558Y62336D01*
Y62292D01*
Y62255D01*
Y62248D01*
X91550Y62088D01*
X91536Y61935D01*
X91514Y61789D01*
X91485Y61658D01*
X91448Y61534D01*
X91412Y61417D01*
X91368Y61315D01*
X91324Y61220D01*
X91281Y61140D01*
X91237Y61067D01*
X91201Y61009D01*
X91164Y60958D01*
X91135Y60914D01*
X91113Y60885D01*
X91098Y60870D01*
X91091Y60863D01*
X90996Y60776D01*
X90902Y60703D01*
X90799Y60637D01*
X90690Y60579D01*
X90588Y60535D01*
X90479Y60491D01*
X90275Y60433D01*
X90180Y60418D01*
X90092Y60404D01*
X90012Y60389D01*
X89947Y60382D01*
X89895Y60375D01*
X89815D01*
X89589Y60389D01*
X89385Y60426D01*
X89203Y60469D01*
X89130Y60498D01*
X89057Y60528D01*
X88992Y60557D01*
X88933Y60586D01*
X88889Y60608D01*
X88846Y60630D01*
X88817Y60652D01*
X88795Y60666D01*
X88780Y60681D01*
X88773D01*
X88627Y60812D01*
X88510Y60950D01*
X88408Y61096D01*
X88336Y61235D01*
X88277Y61359D01*
X88255Y61417D01*
X88233Y61461D01*
X88219Y61505D01*
X88212Y61534D01*
X88204Y61548D01*
Y61556D01*
X88846Y61636D01*
X88904Y61497D01*
X88970Y61381D01*
X89035Y61279D01*
X89094Y61198D01*
X89145Y61140D01*
X89188Y61096D01*
X89225Y61067D01*
X89232Y61060D01*
X89327Y61001D01*
X89422Y60958D01*
X89524Y60929D01*
X89611Y60907D01*
X89691Y60892D01*
X89757Y60885D01*
X89815D01*
X89903Y60892D01*
X89983Y60900D01*
X90129Y60936D01*
X90260Y60987D01*
X90377Y61045D01*
X90464Y61096D01*
X90530Y61147D01*
X90574Y61184D01*
X90581Y61198D01*
X90588D01*
X90690Y61330D01*
X90770Y61475D01*
X90829Y61636D01*
X90872Y61782D01*
X90894Y61913D01*
X90909Y61971D01*
X90916Y62022D01*
Y62066D01*
X90923Y62095D01*
Y62117D01*
Y62124D01*
X88190D01*
X88182Y62197D01*
Y62248D01*
Y62277D01*
Y62285D01*
X88190Y62452D01*
X88204Y62605D01*
X88226Y62751D01*
X88255Y62890D01*
X88292Y63014D01*
X88328Y63130D01*
X88372Y63232D01*
X88416Y63327D01*
X88459Y63415D01*
X88503Y63487D01*
X88540Y63546D01*
X88576Y63597D01*
X88605Y63640D01*
X88627Y63670D01*
X88642Y63684D01*
X88649Y63692D01*
X88736Y63779D01*
X88831Y63859D01*
X88933Y63925D01*
X89035Y63983D01*
X89137Y64034D01*
X89232Y64071D01*
X89334Y64107D01*
X89422Y64129D01*
X89517Y64151D01*
X89597Y64165D01*
X89670Y64180D01*
X89728Y64187D01*
X89779Y64195D01*
X89852D01*
X89990Y64187D01*
D02*
G37*
G36*
X162657Y60455D02*
X159501D01*
Y61053D01*
X161986D01*
Y65500D01*
X162657D01*
Y60455D01*
D02*
G37*
G36*
X141917Y64187D02*
X142048Y64165D01*
X142165Y64136D01*
X142281Y64100D01*
X142384Y64056D01*
X142478Y64005D01*
X142566Y63947D01*
X142639Y63896D01*
X142712Y63837D01*
X142770Y63779D01*
X142821Y63728D01*
X142865Y63684D01*
X142894Y63648D01*
X142916Y63619D01*
X142930Y63597D01*
X142938Y63590D01*
Y64114D01*
X143492D01*
Y60455D01*
X142872D01*
Y62445D01*
Y62569D01*
X142857Y62693D01*
X142843Y62795D01*
X142828Y62890D01*
X142806Y62977D01*
X142785Y63057D01*
X142755Y63130D01*
X142726Y63188D01*
X142704Y63240D01*
X142675Y63283D01*
X142653Y63320D01*
X142631Y63349D01*
X142602Y63385D01*
X142588Y63400D01*
X142478Y63487D01*
X142362Y63546D01*
X142245Y63590D01*
X142143Y63626D01*
X142048Y63640D01*
X141975Y63648D01*
X141946Y63655D01*
X141910D01*
X141822Y63648D01*
X141735Y63640D01*
X141662Y63619D01*
X141604Y63597D01*
X141552Y63575D01*
X141509Y63560D01*
X141487Y63546D01*
X141480Y63538D01*
X141414Y63495D01*
X141356Y63444D01*
X141312Y63393D01*
X141276Y63349D01*
X141254Y63305D01*
X141232Y63269D01*
X141217Y63247D01*
Y63240D01*
X141195Y63159D01*
X141173Y63072D01*
X141159Y62977D01*
X141151Y62882D01*
X141144Y62802D01*
Y62737D01*
Y62686D01*
Y62678D01*
Y62671D01*
Y60455D01*
X140525D01*
Y62700D01*
Y62853D01*
X140532Y62977D01*
X140539Y63079D01*
Y63167D01*
X140547Y63225D01*
X140554Y63269D01*
X140561Y63298D01*
Y63305D01*
X140583Y63400D01*
X140619Y63487D01*
X140648Y63560D01*
X140678Y63633D01*
X140714Y63684D01*
X140736Y63721D01*
X140751Y63750D01*
X140758Y63757D01*
X140816Y63830D01*
X140882Y63888D01*
X140947Y63947D01*
X141020Y63990D01*
X141079Y64027D01*
X141130Y64049D01*
X141159Y64063D01*
X141173Y64071D01*
X141276Y64114D01*
X141385Y64144D01*
X141487Y64165D01*
X141582Y64180D01*
X141662Y64187D01*
X141720Y64195D01*
X141779D01*
X141917Y64187D01*
D02*
G37*
G36*
X139570Y60455D02*
X138950D01*
Y64114D01*
X139570D01*
Y60455D01*
D02*
G37*
G36*
X124683D02*
X124064D01*
Y65500D01*
X124683D01*
Y60455D01*
D02*
G37*
G36*
X112429Y64187D02*
X112502Y64173D01*
X112575Y64151D01*
X112633Y64129D01*
X112677Y64107D01*
X112721Y64085D01*
X112742Y64071D01*
X112750Y64063D01*
X112815Y64005D01*
X112881Y63932D01*
X112946Y63845D01*
X113005Y63765D01*
X113063Y63684D01*
X113100Y63619D01*
X113129Y63568D01*
X113136Y63560D01*
Y64114D01*
X113697D01*
Y60455D01*
X113078D01*
Y62365D01*
X113070Y62511D01*
X113063Y62642D01*
X113049Y62766D01*
X113027Y62875D01*
X113005Y62963D01*
X112990Y63028D01*
X112983Y63072D01*
X112976Y63086D01*
X112946Y63167D01*
X112910Y63232D01*
X112874Y63291D01*
X112837Y63342D01*
X112801Y63378D01*
X112779Y63407D01*
X112757Y63422D01*
X112750Y63429D01*
X112691Y63473D01*
X112626Y63502D01*
X112560Y63524D01*
X112509Y63538D01*
X112458Y63546D01*
X112422Y63553D01*
X112385D01*
X112305Y63546D01*
X112225Y63531D01*
X112145Y63509D01*
X112079Y63487D01*
X112021Y63466D01*
X111977Y63444D01*
X111948Y63429D01*
X111941Y63422D01*
X111714Y63990D01*
X111838Y64056D01*
X111955Y64107D01*
X112057Y64144D01*
X112152Y64173D01*
X112232Y64187D01*
X112298Y64195D01*
X112349D01*
X112429Y64187D01*
D02*
G37*
G36*
X107814Y60455D02*
X107195D01*
Y64114D01*
X107814D01*
Y60455D01*
D02*
G37*
G36*
X102719D02*
X102099D01*
Y64114D01*
X102719D01*
Y60455D01*
D02*
G37*
G36*
X85478D02*
X84858D01*
Y65500D01*
X85478D01*
Y60455D01*
D02*
G37*
G36*
X66947Y64187D02*
X67019Y64173D01*
X67092Y64151D01*
X67151Y64129D01*
X67194Y64107D01*
X67238Y64085D01*
X67260Y64071D01*
X67267Y64063D01*
X67333Y64005D01*
X67399Y63932D01*
X67464Y63845D01*
X67523Y63765D01*
X67581Y63684D01*
X67617Y63619D01*
X67646Y63568D01*
X67654Y63560D01*
Y64114D01*
X68215D01*
Y60455D01*
X67595D01*
Y62365D01*
X67588Y62511D01*
X67581Y62642D01*
X67566Y62766D01*
X67544Y62875D01*
X67523Y62963D01*
X67508Y63028D01*
X67501Y63072D01*
X67493Y63086D01*
X67464Y63167D01*
X67428Y63232D01*
X67391Y63291D01*
X67355Y63342D01*
X67318Y63378D01*
X67296Y63407D01*
X67275Y63422D01*
X67267Y63429D01*
X67209Y63473D01*
X67143Y63502D01*
X67078Y63524D01*
X67027Y63538D01*
X66976Y63546D01*
X66939Y63553D01*
X66903D01*
X66823Y63546D01*
X66742Y63531D01*
X66662Y63509D01*
X66597Y63487D01*
X66538Y63466D01*
X66495Y63444D01*
X66466Y63429D01*
X66458Y63422D01*
X66232Y63990D01*
X66356Y64056D01*
X66473Y64107D01*
X66575Y64144D01*
X66670Y64173D01*
X66750Y64187D01*
X66815Y64195D01*
X66866D01*
X66947Y64187D01*
D02*
G37*
G36*
X65860Y60455D02*
X65241D01*
Y64114D01*
X65860D01*
Y60455D01*
D02*
G37*
G36*
X120149Y64180D02*
X120237Y64173D01*
X120317Y64158D01*
X120382Y64144D01*
X120433Y64129D01*
X120463Y64122D01*
X120477Y64114D01*
X120565Y64085D01*
X120645Y64056D01*
X120710Y64027D01*
X120769Y63998D01*
X120812Y63976D01*
X120842Y63954D01*
X120863Y63947D01*
X120871Y63939D01*
X120944Y63888D01*
X121002Y63830D01*
X121053Y63765D01*
X121097Y63713D01*
X121133Y63662D01*
X121155Y63626D01*
X121170Y63597D01*
X121177Y63590D01*
X121213Y63509D01*
X121242Y63436D01*
X121257Y63356D01*
X121272Y63291D01*
X121279Y63225D01*
X121286Y63181D01*
Y63152D01*
Y63138D01*
X121279Y63036D01*
X121264Y62948D01*
X121242Y62861D01*
X121221Y62788D01*
X121199Y62729D01*
X121177Y62678D01*
X121162Y62649D01*
X121155Y62642D01*
X121097Y62562D01*
X121031Y62496D01*
X120966Y62438D01*
X120900Y62387D01*
X120842Y62350D01*
X120798Y62321D01*
X120769Y62306D01*
X120754Y62299D01*
X120703Y62277D01*
X120638Y62248D01*
X120492Y62197D01*
X120339Y62153D01*
X120178Y62102D01*
X120040Y62066D01*
X119974Y62044D01*
X119916Y62029D01*
X119872Y62015D01*
X119836Y62008D01*
X119814Y62000D01*
X119806D01*
X119712Y61978D01*
X119631Y61957D01*
X119559Y61935D01*
X119493Y61913D01*
X119435Y61898D01*
X119384Y61876D01*
X119296Y61847D01*
X119238Y61825D01*
X119201Y61803D01*
X119179Y61796D01*
X119172Y61789D01*
X119107Y61745D01*
X119063Y61687D01*
X119026Y61636D01*
X119004Y61585D01*
X118990Y61534D01*
X118983Y61497D01*
Y61468D01*
Y61461D01*
X118990Y61373D01*
X119012Y61300D01*
X119048Y61228D01*
X119085Y61169D01*
X119128Y61118D01*
X119158Y61082D01*
X119187Y61060D01*
X119194Y61053D01*
X119281Y60994D01*
X119376Y60958D01*
X119486Y60929D01*
X119588Y60907D01*
X119683Y60892D01*
X119755Y60885D01*
X119828D01*
X119981Y60892D01*
X120113Y60914D01*
X120222Y60943D01*
X120317Y60980D01*
X120390Y61016D01*
X120448Y61045D01*
X120477Y61067D01*
X120492Y61075D01*
X120572Y61155D01*
X120638Y61249D01*
X120681Y61344D01*
X120718Y61432D01*
X120747Y61512D01*
X120761Y61585D01*
X120776Y61629D01*
Y61636D01*
Y61643D01*
X121388Y61548D01*
X121337Y61344D01*
X121272Y61162D01*
X121192Y61016D01*
X121111Y60892D01*
X121038Y60790D01*
X120973Y60725D01*
X120929Y60681D01*
X120922Y60673D01*
X120914Y60666D01*
X120842Y60615D01*
X120761Y60571D01*
X120586Y60498D01*
X120404Y60448D01*
X120229Y60411D01*
X120149Y60396D01*
X120076Y60389D01*
X120003Y60382D01*
X119945D01*
X119894Y60375D01*
X119828D01*
X119668Y60382D01*
X119529Y60396D01*
X119398Y60418D01*
X119281Y60448D01*
X119187Y60477D01*
X119114Y60498D01*
X119070Y60513D01*
X119063Y60520D01*
X119055D01*
X118932Y60586D01*
X118830Y60652D01*
X118742Y60725D01*
X118662Y60790D01*
X118604Y60848D01*
X118567Y60900D01*
X118538Y60929D01*
X118531Y60943D01*
X118472Y61045D01*
X118429Y61155D01*
X118392Y61249D01*
X118370Y61337D01*
X118356Y61417D01*
X118348Y61475D01*
Y61512D01*
Y61526D01*
X118356Y61643D01*
X118370Y61745D01*
X118399Y61833D01*
X118421Y61913D01*
X118450Y61978D01*
X118480Y62022D01*
X118494Y62051D01*
X118501Y62059D01*
X118560Y62132D01*
X118625Y62197D01*
X118691Y62255D01*
X118757Y62299D01*
X118822Y62336D01*
X118866Y62357D01*
X118895Y62372D01*
X118910Y62379D01*
X118961Y62401D01*
X119019Y62423D01*
X119158Y62474D01*
X119311Y62525D01*
X119464Y62569D01*
X119602Y62613D01*
X119668Y62627D01*
X119719Y62642D01*
X119763Y62656D01*
X119799Y62664D01*
X119821Y62671D01*
X119828D01*
X119908Y62693D01*
X119981Y62715D01*
X120047Y62729D01*
X120105Y62751D01*
X120200Y62773D01*
X120273Y62795D01*
X120324Y62817D01*
X120353Y62824D01*
X120368Y62831D01*
X120375D01*
X120433Y62861D01*
X120484Y62882D01*
X120528Y62911D01*
X120557Y62933D01*
X120586Y62955D01*
X120601Y62977D01*
X120608Y62984D01*
X120616Y62992D01*
X120659Y63065D01*
X120681Y63138D01*
Y63167D01*
X120688Y63188D01*
Y63203D01*
Y63210D01*
X120681Y63276D01*
X120659Y63342D01*
X120630Y63400D01*
X120594Y63444D01*
X120565Y63487D01*
X120535Y63517D01*
X120513Y63531D01*
X120506Y63538D01*
X120426Y63590D01*
X120331Y63626D01*
X120229Y63648D01*
X120134Y63670D01*
X120040Y63677D01*
X119967Y63684D01*
X119894D01*
X119770Y63677D01*
X119653Y63662D01*
X119559Y63633D01*
X119486Y63604D01*
X119420Y63575D01*
X119376Y63546D01*
X119347Y63531D01*
X119340Y63524D01*
X119267Y63458D01*
X119216Y63385D01*
X119172Y63313D01*
X119136Y63247D01*
X119114Y63181D01*
X119099Y63130D01*
X119092Y63101D01*
Y63086D01*
X118487Y63167D01*
X118516Y63291D01*
X118545Y63400D01*
X118582Y63495D01*
X118618Y63582D01*
X118655Y63640D01*
X118684Y63692D01*
X118698Y63721D01*
X118706Y63728D01*
X118771Y63801D01*
X118844Y63867D01*
X118924Y63925D01*
X119004Y63976D01*
X119077Y64012D01*
X119136Y64042D01*
X119172Y64056D01*
X119179Y64063D01*
X119187D01*
X119311Y64107D01*
X119442Y64136D01*
X119566Y64165D01*
X119683Y64180D01*
X119792Y64187D01*
X119872Y64195D01*
X120047D01*
X120149Y64180D01*
D02*
G37*
G36*
X99795Y64187D02*
X99912Y64180D01*
X100138Y64129D01*
X100335Y64063D01*
X100422Y64027D01*
X100503Y63990D01*
X100575Y63954D01*
X100634Y63918D01*
X100692Y63881D01*
X100736Y63852D01*
X100772Y63823D01*
X100801Y63801D01*
X100816Y63794D01*
X100823Y63786D01*
X100925Y63692D01*
X101005Y63582D01*
X101086Y63466D01*
X101144Y63349D01*
X101202Y63225D01*
X101246Y63094D01*
X101283Y62970D01*
X101312Y62853D01*
X101341Y62737D01*
X101355Y62634D01*
X101370Y62532D01*
X101377Y62452D01*
Y62379D01*
X101385Y62328D01*
Y62299D01*
Y62285D01*
X101377Y62117D01*
X101363Y61957D01*
X101341Y61811D01*
X101312Y61672D01*
X101275Y61548D01*
X101239Y61432D01*
X101195Y61322D01*
X101151Y61228D01*
X101108Y61140D01*
X101064Y61067D01*
X101027Y61009D01*
X100991Y60958D01*
X100962Y60914D01*
X100940Y60885D01*
X100925Y60870D01*
X100918Y60863D01*
X100823Y60776D01*
X100728Y60703D01*
X100626Y60637D01*
X100524Y60579D01*
X100422Y60535D01*
X100313Y60491D01*
X100116Y60433D01*
X100029Y60418D01*
X99941Y60404D01*
X99868Y60389D01*
X99803Y60382D01*
X99744Y60375D01*
X99671D01*
X99497Y60382D01*
X99336Y60411D01*
X99183Y60448D01*
X99059Y60484D01*
X98950Y60528D01*
X98906Y60542D01*
X98870Y60557D01*
X98833Y60571D01*
X98811Y60586D01*
X98804Y60593D01*
X98797D01*
X98651Y60688D01*
X98527Y60790D01*
X98418Y60892D01*
X98330Y60994D01*
X98264Y61082D01*
X98213Y61155D01*
X98199Y61184D01*
X98184Y61206D01*
X98177Y61213D01*
Y61220D01*
X98104Y61388D01*
X98053Y61570D01*
X98009Y61752D01*
X97987Y61935D01*
X97973Y62015D01*
Y62088D01*
X97966Y62161D01*
X97958Y62219D01*
Y62270D01*
Y62306D01*
Y62328D01*
Y62336D01*
X97966Y62496D01*
X97980Y62642D01*
X98002Y62780D01*
X98031Y62911D01*
X98068Y63036D01*
X98111Y63145D01*
X98155Y63254D01*
X98199Y63342D01*
X98243Y63422D01*
X98286Y63495D01*
X98330Y63560D01*
X98366Y63611D01*
X98396Y63648D01*
X98418Y63677D01*
X98432Y63692D01*
X98439Y63699D01*
X98534Y63786D01*
X98629Y63859D01*
X98731Y63932D01*
X98833Y63983D01*
X98935Y64034D01*
X99037Y64071D01*
X99234Y64136D01*
X99329Y64151D01*
X99409Y64165D01*
X99482Y64180D01*
X99547Y64187D01*
X99598Y64195D01*
X99671D01*
X99795Y64187D01*
D02*
G37*
G36*
X92950Y63692D02*
X93016Y63772D01*
X93089Y63837D01*
X93154Y63903D01*
X93227Y63954D01*
X93285Y63990D01*
X93329Y64027D01*
X93358Y64042D01*
X93373Y64049D01*
X93468Y64100D01*
X93570Y64136D01*
X93672Y64158D01*
X93766Y64180D01*
X93847Y64187D01*
X93905Y64195D01*
X93963D01*
X94124Y64187D01*
X94277Y64158D01*
X94415Y64122D01*
X94532Y64078D01*
X94634Y64027D01*
X94707Y63990D01*
X94736Y63976D01*
X94758Y63961D01*
X94765Y63954D01*
X94773D01*
X94904Y63859D01*
X95013Y63743D01*
X95108Y63633D01*
X95181Y63524D01*
X95239Y63422D01*
X95283Y63342D01*
X95297Y63313D01*
X95312Y63291D01*
X95319Y63276D01*
Y63269D01*
X95378Y63101D01*
X95421Y62926D01*
X95458Y62758D01*
X95480Y62605D01*
X95494Y62474D01*
Y62416D01*
X95502Y62372D01*
Y62328D01*
Y62299D01*
Y62285D01*
Y62277D01*
X95494Y62073D01*
X95472Y61884D01*
X95436Y61716D01*
X95399Y61570D01*
X95385Y61505D01*
X95370Y61453D01*
X95349Y61402D01*
X95334Y61359D01*
X95319Y61330D01*
X95312Y61308D01*
X95305Y61293D01*
Y61286D01*
X95224Y61133D01*
X95130Y61001D01*
X95035Y60885D01*
X94940Y60790D01*
X94860Y60717D01*
X94794Y60659D01*
X94751Y60630D01*
X94743Y60615D01*
X94736D01*
X94598Y60535D01*
X94459Y60477D01*
X94321Y60433D01*
X94197Y60404D01*
X94095Y60389D01*
X94007Y60382D01*
X93978Y60375D01*
X93934D01*
X93810Y60382D01*
X93694Y60396D01*
X93584Y60426D01*
X93489Y60462D01*
X93395Y60498D01*
X93307Y60542D01*
X93234Y60593D01*
X93169Y60644D01*
X93103Y60695D01*
X93052Y60746D01*
X93008Y60790D01*
X92972Y60827D01*
X92943Y60863D01*
X92921Y60892D01*
X92914Y60907D01*
X92906Y60914D01*
Y60455D01*
X92330D01*
Y65500D01*
X92950D01*
Y63692D01*
D02*
G37*
G36*
X76526Y64187D02*
X76642Y64173D01*
X76744Y64151D01*
X76832Y64122D01*
X76905Y64092D01*
X76963Y64071D01*
X76992Y64056D01*
X77007Y64049D01*
X77094Y63990D01*
X77182Y63925D01*
X77255Y63859D01*
X77320Y63786D01*
X77379Y63728D01*
X77415Y63677D01*
X77444Y63648D01*
X77451Y63633D01*
Y64114D01*
X78013D01*
Y59055D01*
X77393D01*
Y60834D01*
X77335Y60761D01*
X77269Y60695D01*
X77196Y60637D01*
X77138Y60593D01*
X77080Y60550D01*
X77036Y60520D01*
X76999Y60506D01*
X76992Y60498D01*
X76898Y60455D01*
X76803Y60426D01*
X76708Y60404D01*
X76621Y60389D01*
X76548Y60382D01*
X76489Y60375D01*
X76438D01*
X76285Y60382D01*
X76132Y60411D01*
X76001Y60448D01*
X75877Y60491D01*
X75775Y60535D01*
X75702Y60571D01*
X75673Y60586D01*
X75651Y60601D01*
X75644Y60608D01*
X75636D01*
X75498Y60710D01*
X75381Y60819D01*
X75279Y60929D01*
X75199Y61038D01*
X75133Y61140D01*
X75082Y61220D01*
X75068Y61249D01*
X75053Y61271D01*
X75046Y61286D01*
Y61293D01*
X74980Y61468D01*
X74929Y61643D01*
X74893Y61811D01*
X74864Y61971D01*
X74849Y62102D01*
Y62161D01*
X74842Y62212D01*
Y62255D01*
Y62285D01*
Y62299D01*
Y62306D01*
X74849Y62496D01*
X74871Y62678D01*
X74900Y62839D01*
X74936Y62984D01*
X74973Y63101D01*
X74988Y63152D01*
X75002Y63196D01*
X75017Y63225D01*
X75024Y63247D01*
X75031Y63261D01*
Y63269D01*
X75104Y63422D01*
X75192Y63560D01*
X75279Y63677D01*
X75367Y63772D01*
X75447Y63845D01*
X75512Y63903D01*
X75556Y63932D01*
X75563Y63947D01*
X75571D01*
X75709Y64027D01*
X75848Y64092D01*
X75986Y64136D01*
X76117Y64165D01*
X76227Y64180D01*
X76278Y64187D01*
X76314Y64195D01*
X76394D01*
X76526Y64187D01*
D02*
G37*
G36*
X141213Y5993D02*
X140571D01*
Y9951D01*
X137932Y5993D01*
X137240D01*
Y11038D01*
X137881D01*
Y7072D01*
X140527Y11038D01*
X141213D01*
Y5993D01*
D02*
G37*
G36*
X181577D02*
X180936D01*
Y10287D01*
X179478Y5993D01*
X178880D01*
X177408Y10214D01*
Y5993D01*
X176766D01*
Y11038D01*
X177663D01*
X178873Y7524D01*
X178938Y7334D01*
X178990Y7174D01*
X179041Y7035D01*
X179077Y6919D01*
X179106Y6831D01*
X179128Y6766D01*
X179135Y6729D01*
X179143Y6715D01*
X179172Y6817D01*
X179208Y6933D01*
X179252Y7057D01*
X179288Y7181D01*
X179325Y7291D01*
X179354Y7378D01*
X179369Y7414D01*
X179376Y7436D01*
X179383Y7451D01*
Y7458D01*
X180579Y11038D01*
X181577D01*
Y5993D01*
D02*
G37*
G36*
X158067Y11111D02*
X158300Y11074D01*
X158505Y11030D01*
X158599Y11001D01*
X158687Y10972D01*
X158767Y10943D01*
X158840Y10914D01*
X158898Y10892D01*
X158957Y10870D01*
X158993Y10848D01*
X159022Y10834D01*
X159044Y10826D01*
X159051Y10819D01*
X159248Y10695D01*
X159416Y10549D01*
X159562Y10403D01*
X159686Y10258D01*
X159780Y10126D01*
X159817Y10068D01*
X159846Y10017D01*
X159875Y9981D01*
X159890Y9951D01*
X159897Y9930D01*
X159904Y9922D01*
X160006Y9696D01*
X160079Y9463D01*
X160130Y9230D01*
X160167Y9018D01*
X160181Y8924D01*
X160189Y8829D01*
X160196Y8756D01*
Y8683D01*
X160203Y8632D01*
Y8588D01*
Y8559D01*
Y8552D01*
X160189Y8289D01*
X160159Y8034D01*
X160123Y7808D01*
X160094Y7699D01*
X160072Y7604D01*
X160050Y7517D01*
X160021Y7436D01*
X159999Y7363D01*
X159985Y7305D01*
X159963Y7261D01*
X159955Y7225D01*
X159941Y7203D01*
Y7196D01*
X159831Y6977D01*
X159707Y6780D01*
X159576Y6613D01*
X159511Y6547D01*
X159452Y6481D01*
X159394Y6423D01*
X159336Y6372D01*
X159285Y6328D01*
X159241Y6299D01*
X159212Y6270D01*
X159183Y6248D01*
X159168Y6241D01*
X159161Y6234D01*
X159059Y6175D01*
X158957Y6124D01*
X158738Y6044D01*
X158519Y5986D01*
X158308Y5949D01*
X158206Y5935D01*
X158118Y5920D01*
X158038Y5913D01*
X157972D01*
X157914Y5906D01*
X157834D01*
X157688Y5913D01*
X157550Y5927D01*
X157418Y5942D01*
X157294Y5971D01*
X157178Y6008D01*
X157069Y6044D01*
X156966Y6081D01*
X156872Y6124D01*
X156791Y6161D01*
X156711Y6197D01*
X156653Y6234D01*
X156595Y6270D01*
X156558Y6299D01*
X156522Y6314D01*
X156507Y6328D01*
X156500Y6336D01*
X156398Y6423D01*
X156310Y6511D01*
X156230Y6613D01*
X156150Y6715D01*
X156019Y6919D01*
X155917Y7123D01*
X155873Y7218D01*
X155836Y7305D01*
X155807Y7385D01*
X155785Y7451D01*
X155764Y7509D01*
X155749Y7553D01*
X155742Y7582D01*
Y7589D01*
X156412Y7757D01*
X156441Y7641D01*
X156478Y7531D01*
X156514Y7429D01*
X156551Y7334D01*
X156595Y7247D01*
X156638Y7174D01*
X156689Y7101D01*
X156733Y7035D01*
X156770Y6977D01*
X156813Y6933D01*
X156850Y6890D01*
X156879Y6853D01*
X156908Y6831D01*
X156930Y6809D01*
X156937Y6802D01*
X156945Y6795D01*
X157017Y6737D01*
X157098Y6693D01*
X157258Y6613D01*
X157411Y6554D01*
X157564Y6518D01*
X157695Y6489D01*
X157746Y6481D01*
X157798D01*
X157841Y6474D01*
X157892D01*
X158060Y6481D01*
X158220Y6511D01*
X158366Y6547D01*
X158497Y6591D01*
X158599Y6634D01*
X158643Y6656D01*
X158679Y6671D01*
X158709Y6685D01*
X158731Y6700D01*
X158745Y6707D01*
X158752D01*
X158891Y6809D01*
X159008Y6919D01*
X159110Y7043D01*
X159190Y7159D01*
X159256Y7261D01*
X159299Y7349D01*
X159314Y7385D01*
X159328Y7407D01*
X159336Y7422D01*
Y7429D01*
X159394Y7619D01*
X159438Y7808D01*
X159474Y7998D01*
X159496Y8173D01*
X159503Y8253D01*
X159511Y8326D01*
Y8391D01*
X159518Y8442D01*
Y8486D01*
Y8523D01*
Y8545D01*
Y8552D01*
X159511Y8741D01*
X159496Y8916D01*
X159467Y9077D01*
X159438Y9223D01*
X159416Y9346D01*
X159401Y9397D01*
X159387Y9441D01*
X159379Y9478D01*
X159372Y9499D01*
X159365Y9514D01*
Y9521D01*
X159292Y9689D01*
X159212Y9842D01*
X159124Y9966D01*
X159029Y10075D01*
X158949Y10163D01*
X158884Y10221D01*
X158833Y10258D01*
X158825Y10272D01*
X158818D01*
X158665Y10367D01*
X158497Y10440D01*
X158337Y10491D01*
X158184Y10520D01*
X158045Y10542D01*
X157987Y10549D01*
X157936D01*
X157899Y10556D01*
X157841D01*
X157659Y10549D01*
X157491Y10520D01*
X157353Y10476D01*
X157229Y10433D01*
X157134Y10382D01*
X157061Y10345D01*
X157017Y10316D01*
X157003Y10301D01*
X156886Y10192D01*
X156777Y10068D01*
X156689Y9937D01*
X156616Y9806D01*
X156558Y9689D01*
X156536Y9631D01*
X156522Y9587D01*
X156507Y9550D01*
X156493Y9521D01*
X156485Y9507D01*
Y9499D01*
X155829Y9653D01*
X155873Y9784D01*
X155917Y9900D01*
X155975Y10010D01*
X156026Y10119D01*
X156084Y10214D01*
X156150Y10301D01*
X156208Y10389D01*
X156267Y10462D01*
X156325Y10520D01*
X156376Y10578D01*
X156427Y10629D01*
X156463Y10666D01*
X156500Y10702D01*
X156529Y10724D01*
X156544Y10731D01*
X156551Y10739D01*
X156653Y10804D01*
X156755Y10870D01*
X156857Y10921D01*
X156966Y10965D01*
X157185Y11030D01*
X157382Y11074D01*
X157477Y11096D01*
X157557Y11103D01*
X157637Y11111D01*
X157703Y11118D01*
X157754Y11125D01*
X157827D01*
X158067Y11111D01*
D02*
G37*
G36*
X134178D02*
X134411Y11074D01*
X134615Y11030D01*
X134710Y11001D01*
X134798Y10972D01*
X134878Y10943D01*
X134951Y10914D01*
X135009Y10892D01*
X135067Y10870D01*
X135104Y10848D01*
X135133Y10834D01*
X135155Y10826D01*
X135162Y10819D01*
X135359Y10695D01*
X135527Y10549D01*
X135672Y10403D01*
X135796Y10258D01*
X135891Y10126D01*
X135927Y10068D01*
X135957Y10017D01*
X135986Y9981D01*
X136000Y9951D01*
X136008Y9930D01*
X136015Y9922D01*
X136117Y9696D01*
X136190Y9463D01*
X136241Y9230D01*
X136277Y9018D01*
X136292Y8924D01*
X136299Y8829D01*
X136307Y8756D01*
Y8683D01*
X136314Y8632D01*
Y8588D01*
Y8559D01*
Y8552D01*
X136299Y8289D01*
X136270Y8034D01*
X136234Y7808D01*
X136205Y7699D01*
X136183Y7604D01*
X136161Y7517D01*
X136132Y7436D01*
X136110Y7363D01*
X136095Y7305D01*
X136073Y7261D01*
X136066Y7225D01*
X136051Y7203D01*
Y7196D01*
X135942Y6977D01*
X135818Y6780D01*
X135687Y6613D01*
X135621Y6547D01*
X135563Y6481D01*
X135505Y6423D01*
X135446Y6372D01*
X135395Y6328D01*
X135352Y6299D01*
X135322Y6270D01*
X135293Y6248D01*
X135279Y6241D01*
X135271Y6234D01*
X135169Y6175D01*
X135067Y6124D01*
X134848Y6044D01*
X134630Y5986D01*
X134418Y5949D01*
X134316Y5935D01*
X134229Y5920D01*
X134149Y5913D01*
X134083D01*
X134025Y5906D01*
X133945D01*
X133799Y5913D01*
X133660Y5927D01*
X133529Y5942D01*
X133405Y5971D01*
X133289Y6008D01*
X133179Y6044D01*
X133077Y6081D01*
X132982Y6124D01*
X132902Y6161D01*
X132822Y6197D01*
X132764Y6234D01*
X132705Y6270D01*
X132669Y6299D01*
X132632Y6314D01*
X132618Y6328D01*
X132610Y6336D01*
X132508Y6423D01*
X132421Y6511D01*
X132341Y6613D01*
X132261Y6715D01*
X132129Y6919D01*
X132027Y7123D01*
X131984Y7218D01*
X131947Y7305D01*
X131918Y7385D01*
X131896Y7451D01*
X131874Y7509D01*
X131860Y7553D01*
X131852Y7582D01*
Y7589D01*
X132523Y7757D01*
X132552Y7641D01*
X132589Y7531D01*
X132625Y7429D01*
X132661Y7334D01*
X132705Y7247D01*
X132749Y7174D01*
X132800Y7101D01*
X132844Y7035D01*
X132880Y6977D01*
X132924Y6933D01*
X132960Y6890D01*
X132990Y6853D01*
X133019Y6831D01*
X133041Y6809D01*
X133048Y6802D01*
X133055Y6795D01*
X133128Y6737D01*
X133208Y6693D01*
X133369Y6613D01*
X133522Y6554D01*
X133675Y6518D01*
X133806Y6489D01*
X133857Y6481D01*
X133908D01*
X133952Y6474D01*
X134003D01*
X134171Y6481D01*
X134331Y6511D01*
X134477Y6547D01*
X134608Y6591D01*
X134710Y6634D01*
X134754Y6656D01*
X134790Y6671D01*
X134819Y6685D01*
X134841Y6700D01*
X134856Y6707D01*
X134863D01*
X135002Y6809D01*
X135118Y6919D01*
X135220Y7043D01*
X135301Y7159D01*
X135366Y7261D01*
X135410Y7349D01*
X135424Y7385D01*
X135439Y7407D01*
X135446Y7422D01*
Y7429D01*
X135505Y7619D01*
X135548Y7808D01*
X135585Y7998D01*
X135607Y8173D01*
X135614Y8253D01*
X135621Y8326D01*
Y8391D01*
X135629Y8442D01*
Y8486D01*
Y8523D01*
Y8545D01*
Y8552D01*
X135621Y8741D01*
X135607Y8916D01*
X135577Y9077D01*
X135548Y9223D01*
X135527Y9346D01*
X135512Y9397D01*
X135497Y9441D01*
X135490Y9478D01*
X135483Y9499D01*
X135476Y9514D01*
Y9521D01*
X135403Y9689D01*
X135322Y9842D01*
X135235Y9966D01*
X135140Y10075D01*
X135060Y10163D01*
X134994Y10221D01*
X134943Y10258D01*
X134936Y10272D01*
X134929D01*
X134776Y10367D01*
X134608Y10440D01*
X134448Y10491D01*
X134294Y10520D01*
X134156Y10542D01*
X134098Y10549D01*
X134047D01*
X134010Y10556D01*
X133952D01*
X133770Y10549D01*
X133602Y10520D01*
X133463Y10476D01*
X133340Y10433D01*
X133245Y10382D01*
X133172Y10345D01*
X133128Y10316D01*
X133114Y10301D01*
X132997Y10192D01*
X132887Y10068D01*
X132800Y9937D01*
X132727Y9806D01*
X132669Y9689D01*
X132647Y9631D01*
X132632Y9587D01*
X132618Y9550D01*
X132603Y9521D01*
X132596Y9507D01*
Y9499D01*
X131940Y9653D01*
X131984Y9784D01*
X132027Y9900D01*
X132086Y10010D01*
X132137Y10119D01*
X132195Y10214D01*
X132261Y10301D01*
X132319Y10389D01*
X132377Y10462D01*
X132436Y10520D01*
X132487Y10578D01*
X132538Y10629D01*
X132574Y10666D01*
X132610Y10702D01*
X132640Y10724D01*
X132654Y10731D01*
X132661Y10739D01*
X132764Y10804D01*
X132866Y10870D01*
X132968Y10921D01*
X133077Y10965D01*
X133296Y11030D01*
X133493Y11074D01*
X133587Y11096D01*
X133668Y11103D01*
X133748Y11111D01*
X133813Y11118D01*
X133864Y11125D01*
X133937D01*
X134178Y11111D01*
D02*
G37*
G36*
X192913Y5993D02*
X189145D01*
Y6591D01*
X192243D01*
Y8304D01*
X189451D01*
Y8902D01*
X192243D01*
Y10440D01*
X189261D01*
Y11038D01*
X192913D01*
Y5993D01*
D02*
G37*
G36*
X183407D02*
X182737D01*
Y11038D01*
X183407D01*
Y5993D01*
D02*
G37*
G36*
X175672D02*
X171904D01*
Y6591D01*
X175002D01*
Y8304D01*
X172210D01*
Y8902D01*
X175002D01*
Y10440D01*
X172020D01*
Y11038D01*
X175672D01*
Y5993D01*
D02*
G37*
G36*
X169133Y10440D02*
X166312D01*
X166407Y10338D01*
X166502Y10236D01*
X166589Y10134D01*
X166669Y10039D01*
X166735Y9959D01*
X166786Y9893D01*
X166823Y9849D01*
X166837Y9842D01*
Y9835D01*
X169425Y6613D01*
Y5993D01*
X165430D01*
Y6591D01*
X168660D01*
X168361Y6948D01*
X165510Y10440D01*
Y11038D01*
X169133D01*
Y10440D01*
D02*
G37*
G36*
X165262Y5993D02*
X164555D01*
X164008Y7524D01*
X161894D01*
X161304Y5993D01*
X160546D01*
X162609Y11038D01*
X163338D01*
X165262Y5993D01*
D02*
G37*
G36*
X155472D02*
X154765D01*
X154218Y7524D01*
X152104D01*
X151514Y5993D01*
X150755D01*
X152818Y11038D01*
X153547D01*
X155472Y5993D01*
D02*
G37*
G36*
X150595Y10440D02*
X148933D01*
Y5993D01*
X148262D01*
Y10440D01*
X146600D01*
Y11038D01*
X150595D01*
Y10440D01*
D02*
G37*
G36*
X145900Y5993D02*
X142131D01*
Y6591D01*
X145229D01*
Y8304D01*
X142437D01*
Y8902D01*
X145229D01*
Y10440D01*
X142248D01*
Y11038D01*
X145900D01*
Y5993D01*
D02*
G37*
G36*
X186673Y11118D02*
X186841Y11096D01*
X187001Y11067D01*
X187140Y11038D01*
X187249Y11009D01*
X187300Y10994D01*
X187337Y10979D01*
X187366Y10965D01*
X187388Y10958D01*
X187402Y10950D01*
X187409D01*
X187555Y10877D01*
X187687Y10797D01*
X187796Y10710D01*
X187883Y10629D01*
X187949Y10556D01*
X188000Y10498D01*
X188036Y10454D01*
X188044Y10447D01*
Y10440D01*
X188117Y10316D01*
X188168Y10192D01*
X188204Y10068D01*
X188226Y9959D01*
X188241Y9864D01*
X188255Y9791D01*
Y9762D01*
Y9740D01*
Y9733D01*
Y9725D01*
X188248Y9601D01*
X188226Y9485D01*
X188197Y9375D01*
X188168Y9281D01*
X188138Y9208D01*
X188109Y9150D01*
X188087Y9113D01*
X188080Y9099D01*
X188007Y8997D01*
X187920Y8902D01*
X187832Y8822D01*
X187745Y8756D01*
X187672Y8698D01*
X187606Y8661D01*
X187563Y8632D01*
X187555Y8625D01*
X187548D01*
X187490Y8596D01*
X187424Y8566D01*
X187278Y8515D01*
X187110Y8464D01*
X186950Y8413D01*
X186804Y8370D01*
X186739Y8355D01*
X186680Y8340D01*
X186637Y8326D01*
X186600Y8319D01*
X186578Y8311D01*
X186571D01*
X186447Y8282D01*
X186330Y8253D01*
X186229Y8224D01*
X186141Y8202D01*
X186054Y8180D01*
X185981Y8158D01*
X185915Y8144D01*
X185864Y8122D01*
X185813Y8107D01*
X185776Y8100D01*
X185718Y8078D01*
X185682Y8071D01*
X185674Y8063D01*
X185565Y8020D01*
X185470Y7969D01*
X185390Y7918D01*
X185332Y7874D01*
X185281Y7830D01*
X185252Y7801D01*
X185230Y7779D01*
X185222Y7772D01*
X185171Y7706D01*
X185135Y7633D01*
X185113Y7560D01*
X185091Y7502D01*
X185084Y7444D01*
X185077Y7400D01*
Y7363D01*
Y7356D01*
X185084Y7269D01*
X185099Y7188D01*
X185120Y7116D01*
X185150Y7057D01*
X185179Y6999D01*
X185201Y6963D01*
X185215Y6933D01*
X185222Y6926D01*
X185281Y6853D01*
X185354Y6795D01*
X185427Y6744D01*
X185492Y6693D01*
X185558Y6664D01*
X185609Y6634D01*
X185645Y6620D01*
X185660Y6613D01*
X185769Y6576D01*
X185886Y6547D01*
X186003Y6532D01*
X186105Y6518D01*
X186192Y6511D01*
X186265Y6503D01*
X186330D01*
X186491Y6511D01*
X186637Y6525D01*
X186768Y6547D01*
X186885Y6576D01*
X186979Y6605D01*
X187052Y6627D01*
X187074Y6634D01*
X187096Y6642D01*
X187103Y6649D01*
X187110D01*
X187227Y6707D01*
X187337Y6773D01*
X187417Y6839D01*
X187490Y6904D01*
X187548Y6955D01*
X187584Y7006D01*
X187606Y7035D01*
X187614Y7043D01*
X187665Y7137D01*
X187716Y7240D01*
X187745Y7349D01*
X187774Y7444D01*
X187796Y7538D01*
X187810Y7604D01*
Y7633D01*
X187818Y7655D01*
Y7662D01*
Y7670D01*
X188445Y7611D01*
X188430Y7429D01*
X188401Y7254D01*
X188357Y7101D01*
X188306Y6963D01*
X188255Y6853D01*
X188233Y6809D01*
X188219Y6773D01*
X188197Y6744D01*
X188189Y6722D01*
X188175Y6707D01*
Y6700D01*
X188066Y6562D01*
X187949Y6438D01*
X187825Y6336D01*
X187708Y6248D01*
X187606Y6182D01*
X187519Y6139D01*
X187490Y6124D01*
X187468Y6110D01*
X187453Y6102D01*
X187446D01*
X187264Y6037D01*
X187074Y5986D01*
X186885Y5957D01*
X186702Y5927D01*
X186615Y5920D01*
X186542Y5913D01*
X186476D01*
X186418Y5906D01*
X186301D01*
X186105Y5913D01*
X185922Y5935D01*
X185755Y5971D01*
X185616Y6008D01*
X185500Y6037D01*
X185448Y6059D01*
X185405Y6073D01*
X185375Y6088D01*
X185354Y6095D01*
X185339Y6102D01*
X185332D01*
X185179Y6182D01*
X185047Y6270D01*
X184931Y6365D01*
X184836Y6452D01*
X184763Y6525D01*
X184712Y6591D01*
X184676Y6634D01*
X184668Y6642D01*
Y6649D01*
X184588Y6788D01*
X184530Y6919D01*
X184493Y7043D01*
X184464Y7159D01*
X184450Y7261D01*
X184435Y7342D01*
Y7371D01*
Y7393D01*
Y7400D01*
Y7407D01*
X184442Y7553D01*
X184464Y7692D01*
X184501Y7816D01*
X184537Y7918D01*
X184581Y8005D01*
X184610Y8071D01*
X184639Y8107D01*
X184646Y8122D01*
X184734Y8231D01*
X184836Y8333D01*
X184945Y8421D01*
X185055Y8501D01*
X185150Y8559D01*
X185230Y8603D01*
X185259Y8617D01*
X185281Y8632D01*
X185295Y8639D01*
X185303D01*
X185361Y8668D01*
X185434Y8690D01*
X185514Y8720D01*
X185601Y8749D01*
X185784Y8800D01*
X185973Y8851D01*
X186061Y8873D01*
X186141Y8894D01*
X186221Y8916D01*
X186287Y8931D01*
X186338Y8945D01*
X186381Y8953D01*
X186411Y8960D01*
X186418D01*
X186564Y8997D01*
X186695Y9026D01*
X186812Y9062D01*
X186914Y9091D01*
X187009Y9128D01*
X187089Y9157D01*
X187162Y9186D01*
X187227Y9208D01*
X187278Y9237D01*
X187322Y9259D01*
X187351Y9273D01*
X187380Y9295D01*
X187417Y9317D01*
X187424Y9324D01*
X187490Y9397D01*
X187533Y9470D01*
X187570Y9543D01*
X187592Y9616D01*
X187606Y9674D01*
X187614Y9725D01*
Y9755D01*
Y9769D01*
X187599Y9886D01*
X187570Y9988D01*
X187526Y10075D01*
X187475Y10156D01*
X187431Y10214D01*
X187388Y10265D01*
X187358Y10294D01*
X187344Y10301D01*
X187285Y10338D01*
X187227Y10374D01*
X187089Y10433D01*
X186943Y10469D01*
X186797Y10498D01*
X186666Y10513D01*
X186608Y10520D01*
X186564Y10527D01*
X186462D01*
X186258Y10520D01*
X186075Y10491D01*
X185930Y10447D01*
X185806Y10403D01*
X185711Y10360D01*
X185638Y10316D01*
X185601Y10287D01*
X185587Y10279D01*
X185485Y10177D01*
X185405Y10068D01*
X185339Y9951D01*
X185295Y9835D01*
X185266Y9725D01*
X185244Y9645D01*
X185237Y9609D01*
X185230Y9587D01*
Y9572D01*
Y9565D01*
X184588Y9616D01*
X184603Y9776D01*
X184639Y9922D01*
X184676Y10061D01*
X184727Y10177D01*
X184771Y10272D01*
X184807Y10345D01*
X184821Y10367D01*
X184836Y10389D01*
X184843Y10396D01*
Y10403D01*
X184938Y10527D01*
X185040Y10637D01*
X185150Y10731D01*
X185259Y10804D01*
X185354Y10870D01*
X185427Y10906D01*
X185456Y10921D01*
X185478Y10936D01*
X185492Y10943D01*
X185500D01*
X185660Y11001D01*
X185835Y11045D01*
X185995Y11081D01*
X186148Y11103D01*
X186287Y11118D01*
X186338D01*
X186389Y11125D01*
X186484D01*
X186673Y11118D01*
D02*
G37*
G36*
X129016D02*
X129199Y11096D01*
X129374Y11060D01*
X129541Y11016D01*
X129694Y10958D01*
X129840Y10899D01*
X129972Y10834D01*
X130088Y10768D01*
X130198Y10702D01*
X130292Y10637D01*
X130373Y10578D01*
X130438Y10520D01*
X130489Y10476D01*
X130533Y10440D01*
X130555Y10418D01*
X130562Y10411D01*
X130679Y10272D01*
X130781Y10126D01*
X130876Y9966D01*
X130948Y9806D01*
X131014Y9638D01*
X131072Y9478D01*
X131116Y9317D01*
X131145Y9164D01*
X131174Y9018D01*
X131196Y8880D01*
X131211Y8756D01*
X131225Y8654D01*
Y8566D01*
X131233Y8501D01*
Y8457D01*
Y8450D01*
Y8442D01*
X131218Y8195D01*
X131189Y7969D01*
X131145Y7750D01*
X131116Y7655D01*
X131087Y7560D01*
X131065Y7480D01*
X131036Y7407D01*
X131014Y7342D01*
X130992Y7283D01*
X130977Y7240D01*
X130963Y7210D01*
X130948Y7188D01*
Y7181D01*
X130824Y6970D01*
X130693Y6788D01*
X130547Y6627D01*
X130409Y6496D01*
X130285Y6387D01*
X130234Y6343D01*
X130190Y6314D01*
X130147Y6285D01*
X130117Y6263D01*
X130103Y6255D01*
X130096Y6248D01*
X129986Y6190D01*
X129877Y6139D01*
X129658Y6051D01*
X129447Y5993D01*
X129250Y5949D01*
X129155Y5935D01*
X129075Y5927D01*
X129002Y5913D01*
X128936D01*
X128893Y5906D01*
X128820D01*
X128579Y5920D01*
X128353Y5957D01*
X128142Y6000D01*
X128047Y6029D01*
X127960Y6059D01*
X127879Y6088D01*
X127806Y6117D01*
X127748Y6139D01*
X127697Y6161D01*
X127653Y6182D01*
X127617Y6197D01*
X127602Y6212D01*
X127595D01*
X127391Y6343D01*
X127216Y6489D01*
X127070Y6642D01*
X126946Y6788D01*
X126844Y6926D01*
X126808Y6977D01*
X126778Y7028D01*
X126749Y7072D01*
X126735Y7101D01*
X126720Y7123D01*
Y7130D01*
X126662Y7247D01*
X126618Y7363D01*
X126538Y7597D01*
X126480Y7830D01*
X126443Y8042D01*
X126436Y8136D01*
X126421Y8224D01*
X126414Y8304D01*
Y8370D01*
X126407Y8428D01*
Y8464D01*
Y8494D01*
Y8501D01*
X126421Y8778D01*
X126451Y9033D01*
X126472Y9150D01*
X126502Y9266D01*
X126531Y9368D01*
X126552Y9463D01*
X126582Y9550D01*
X126611Y9631D01*
X126633Y9696D01*
X126662Y9755D01*
X126676Y9798D01*
X126691Y9827D01*
X126706Y9849D01*
Y9857D01*
X126822Y10068D01*
X126961Y10258D01*
X127107Y10418D01*
X127238Y10549D01*
X127362Y10651D01*
X127420Y10695D01*
X127464Y10731D01*
X127507Y10753D01*
X127537Y10775D01*
X127551Y10783D01*
X127559Y10790D01*
X127668Y10848D01*
X127777Y10899D01*
X127989Y10987D01*
X128207Y11045D01*
X128397Y11081D01*
X128484Y11096D01*
X128572Y11111D01*
X128638Y11118D01*
X128703D01*
X128754Y11125D01*
X128820D01*
X129016Y11118D01*
D02*
G37*
G36*
X158089Y18992D02*
X158249Y18963D01*
X158395Y18919D01*
X158519Y18875D01*
X158621Y18832D01*
X158694Y18788D01*
X158723Y18773D01*
X158745Y18759D01*
X158752Y18751D01*
X158760D01*
X158884Y18656D01*
X158993Y18540D01*
X159088Y18430D01*
X159168Y18321D01*
X159226Y18219D01*
X159270Y18139D01*
X159285Y18110D01*
X159299Y18088D01*
X159307Y18073D01*
Y18066D01*
X159372Y17898D01*
X159416Y17731D01*
X159452Y17570D01*
X159474Y17424D01*
X159489Y17293D01*
Y17242D01*
X159496Y17191D01*
Y17155D01*
Y17126D01*
Y17111D01*
Y17104D01*
X159489Y16965D01*
X159481Y16827D01*
X159430Y16579D01*
X159401Y16462D01*
X159365Y16360D01*
X159328Y16258D01*
X159292Y16171D01*
X159256Y16083D01*
X159219Y16010D01*
X159183Y15952D01*
X159153Y15894D01*
X159124Y15857D01*
X159102Y15821D01*
X159095Y15806D01*
X159088Y15799D01*
X159008Y15704D01*
X158920Y15624D01*
X158825Y15551D01*
X158731Y15485D01*
X158628Y15434D01*
X158534Y15391D01*
X158439Y15354D01*
X158344Y15325D01*
X158257Y15303D01*
X158177Y15289D01*
X158104Y15274D01*
X158038Y15267D01*
X157987D01*
X157950Y15259D01*
X157914D01*
X157805Y15267D01*
X157695Y15281D01*
X157593Y15303D01*
X157499Y15332D01*
X157331Y15413D01*
X157178Y15500D01*
X157120Y15544D01*
X157061Y15587D01*
X157010Y15631D01*
X156974Y15668D01*
X156945Y15697D01*
X156923Y15719D01*
X156908Y15733D01*
X156901Y15741D01*
Y15631D01*
Y15536D01*
X156908Y15442D01*
Y15361D01*
Y15289D01*
X156915Y15223D01*
Y15165D01*
X156923Y15114D01*
X156930Y15041D01*
X156937Y14982D01*
X156945Y14953D01*
Y14946D01*
X156981Y14837D01*
X157032Y14742D01*
X157083Y14662D01*
X157134Y14589D01*
X157185Y14538D01*
X157229Y14494D01*
X157258Y14472D01*
X157265Y14465D01*
X157360Y14406D01*
X157469Y14363D01*
X157579Y14334D01*
X157681Y14312D01*
X157783Y14297D01*
X157856Y14290D01*
X157929D01*
X158067Y14297D01*
X158198Y14319D01*
X158308Y14348D01*
X158395Y14385D01*
X158468Y14414D01*
X158519Y14443D01*
X158548Y14465D01*
X158563Y14472D01*
X158621Y14523D01*
X158665Y14589D01*
X158701Y14654D01*
X158731Y14720D01*
X158745Y14786D01*
X158760Y14837D01*
X158767Y14866D01*
Y14880D01*
X159372Y14961D01*
Y14851D01*
X159358Y14756D01*
X159343Y14662D01*
X159321Y14574D01*
X159256Y14421D01*
X159183Y14297D01*
X159110Y14202D01*
X159051Y14137D01*
X159000Y14093D01*
X158993Y14086D01*
X158986Y14078D01*
X158825Y13976D01*
X158650Y13904D01*
X158475Y13852D01*
X158308Y13816D01*
X158228Y13801D01*
X158155Y13794D01*
X158096Y13787D01*
X158038D01*
X157994Y13780D01*
X157929D01*
X157732Y13787D01*
X157550Y13816D01*
X157389Y13845D01*
X157258Y13889D01*
X157149Y13925D01*
X157105Y13940D01*
X157069Y13962D01*
X157039Y13969D01*
X157017Y13984D01*
X157010Y13991D01*
X157003D01*
X156872Y14071D01*
X156755Y14166D01*
X156660Y14261D01*
X156580Y14348D01*
X156522Y14428D01*
X156485Y14494D01*
X156456Y14538D01*
X156449Y14545D01*
Y14552D01*
X156420Y14625D01*
X156391Y14705D01*
X156369Y14793D01*
X156347Y14888D01*
X156318Y15092D01*
X156296Y15289D01*
X156288Y15383D01*
X156281Y15471D01*
Y15551D01*
X156274Y15617D01*
Y15675D01*
Y15719D01*
Y15748D01*
Y15755D01*
Y18919D01*
X156843D01*
Y18467D01*
X156923Y18562D01*
X157010Y18642D01*
X157098Y18715D01*
X157185Y18773D01*
X157280Y18824D01*
X157367Y18868D01*
X157455Y18904D01*
X157535Y18934D01*
X157615Y18955D01*
X157688Y18970D01*
X157754Y18985D01*
X157805Y18992D01*
X157849Y18999D01*
X157914D01*
X158089Y18992D01*
D02*
G37*
G36*
X185725D02*
X185879Y18977D01*
X186024Y18955D01*
X186141Y18934D01*
X186243Y18912D01*
X186316Y18890D01*
X186345Y18882D01*
X186367Y18875D01*
X186374Y18868D01*
X186381D01*
X186505Y18817D01*
X186615Y18751D01*
X186710Y18693D01*
X186790Y18635D01*
X186848Y18576D01*
X186892Y18533D01*
X186921Y18504D01*
X186928Y18496D01*
X186994Y18401D01*
X187052Y18299D01*
X187096Y18197D01*
X187132Y18102D01*
X187162Y18008D01*
X187183Y17942D01*
X187191Y17913D01*
Y17891D01*
X187198Y17884D01*
Y17876D01*
X186593Y17796D01*
X186549Y17928D01*
X186505Y18044D01*
X186454Y18139D01*
X186411Y18212D01*
X186367Y18270D01*
X186330Y18307D01*
X186301Y18328D01*
X186294Y18336D01*
X186207Y18387D01*
X186105Y18423D01*
X185995Y18452D01*
X185893Y18467D01*
X185791Y18482D01*
X185718Y18489D01*
X185645D01*
X185478Y18482D01*
X185332Y18460D01*
X185215Y18423D01*
X185113Y18387D01*
X185040Y18343D01*
X184982Y18314D01*
X184945Y18285D01*
X184938Y18278D01*
X184880Y18212D01*
X184836Y18132D01*
X184800Y18044D01*
X184778Y17957D01*
X184763Y17876D01*
X184756Y17804D01*
Y17760D01*
Y17753D01*
Y17745D01*
Y17731D01*
Y17702D01*
Y17650D01*
X184763Y17607D01*
Y17592D01*
Y17585D01*
X184836Y17563D01*
X184916Y17541D01*
X185084Y17497D01*
X185274Y17461D01*
X185448Y17424D01*
X185536Y17410D01*
X185616Y17403D01*
X185689Y17388D01*
X185747Y17381D01*
X185798Y17373D01*
X185835D01*
X185864Y17366D01*
X185871D01*
X186003Y17352D01*
X186112Y17330D01*
X186207Y17315D01*
X186279Y17301D01*
X186338Y17293D01*
X186381Y17279D01*
X186411Y17271D01*
X186418D01*
X186513Y17242D01*
X186593Y17213D01*
X186673Y17177D01*
X186739Y17147D01*
X186797Y17118D01*
X186834Y17089D01*
X186863Y17075D01*
X186870Y17067D01*
X186943Y17016D01*
X187001Y16958D01*
X187059Y16900D01*
X187103Y16841D01*
X187140Y16790D01*
X187169Y16747D01*
X187183Y16717D01*
X187191Y16710D01*
X187227Y16630D01*
X187256Y16542D01*
X187278Y16462D01*
X187293Y16382D01*
X187300Y16317D01*
X187307Y16265D01*
Y16236D01*
Y16222D01*
X187300Y16134D01*
X187293Y16061D01*
X187256Y15908D01*
X187205Y15784D01*
X187147Y15675D01*
X187089Y15587D01*
X187038Y15522D01*
X187001Y15485D01*
X186987Y15471D01*
X186855Y15376D01*
X186710Y15303D01*
X186549Y15252D01*
X186403Y15216D01*
X186272Y15194D01*
X186214Y15187D01*
X186163D01*
X186119Y15179D01*
X186061D01*
X185930Y15187D01*
X185798Y15201D01*
X185682Y15216D01*
X185580Y15237D01*
X185500Y15259D01*
X185434Y15281D01*
X185390Y15289D01*
X185375Y15296D01*
X185252Y15347D01*
X185135Y15413D01*
X185026Y15485D01*
X184916Y15551D01*
X184829Y15617D01*
X184763Y15668D01*
X184719Y15704D01*
X184712Y15719D01*
X184705D01*
X184690Y15624D01*
X184676Y15536D01*
X184661Y15456D01*
X184639Y15391D01*
X184617Y15332D01*
X184603Y15296D01*
X184596Y15267D01*
X184588Y15259D01*
X183939D01*
X183976Y15340D01*
X184012Y15420D01*
X184042Y15493D01*
X184056Y15558D01*
X184078Y15617D01*
X184085Y15660D01*
X184092Y15689D01*
Y15697D01*
X184100Y15748D01*
X184107Y15813D01*
Y15886D01*
X184114Y15967D01*
X184122Y16149D01*
Y16331D01*
X184129Y16506D01*
Y16586D01*
Y16652D01*
Y16710D01*
Y16754D01*
Y16783D01*
Y16790D01*
Y17621D01*
Y17760D01*
X184136Y17884D01*
X184143Y17979D01*
Y18059D01*
X184151Y18117D01*
X184158Y18161D01*
X184165Y18183D01*
Y18190D01*
X184187Y18285D01*
X184216Y18365D01*
X184246Y18430D01*
X184282Y18496D01*
X184311Y18540D01*
X184333Y18576D01*
X184348Y18598D01*
X184355Y18606D01*
X184413Y18664D01*
X184479Y18722D01*
X184552Y18766D01*
X184625Y18810D01*
X184690Y18839D01*
X184741Y18861D01*
X184778Y18875D01*
X184792Y18882D01*
X184909Y18919D01*
X185033Y18948D01*
X185157Y18970D01*
X185281Y18985D01*
X185390Y18992D01*
X185470Y18999D01*
X185550D01*
X185725Y18992D01*
D02*
G37*
G36*
X153963D02*
X154116Y18977D01*
X154262Y18955D01*
X154378Y18934D01*
X154481Y18912D01*
X154553Y18890D01*
X154583Y18882D01*
X154604Y18875D01*
X154612Y18868D01*
X154619D01*
X154743Y18817D01*
X154852Y18751D01*
X154947Y18693D01*
X155027Y18635D01*
X155086Y18576D01*
X155129Y18533D01*
X155158Y18504D01*
X155166Y18496D01*
X155231Y18401D01*
X155290Y18299D01*
X155333Y18197D01*
X155370Y18102D01*
X155399Y18008D01*
X155421Y17942D01*
X155428Y17913D01*
Y17891D01*
X155436Y17884D01*
Y17876D01*
X154830Y17796D01*
X154787Y17928D01*
X154743Y18044D01*
X154692Y18139D01*
X154648Y18212D01*
X154604Y18270D01*
X154568Y18307D01*
X154539Y18328D01*
X154532Y18336D01*
X154444Y18387D01*
X154342Y18423D01*
X154233Y18452D01*
X154131Y18467D01*
X154028Y18482D01*
X153956Y18489D01*
X153883D01*
X153715Y18482D01*
X153569Y18460D01*
X153453Y18423D01*
X153351Y18387D01*
X153278Y18343D01*
X153219Y18314D01*
X153183Y18285D01*
X153176Y18278D01*
X153117Y18212D01*
X153074Y18132D01*
X153037Y18044D01*
X153015Y17957D01*
X153001Y17876D01*
X152993Y17804D01*
Y17760D01*
Y17753D01*
Y17745D01*
Y17731D01*
Y17702D01*
Y17650D01*
X153001Y17607D01*
Y17592D01*
Y17585D01*
X153074Y17563D01*
X153154Y17541D01*
X153321Y17497D01*
X153511Y17461D01*
X153686Y17424D01*
X153773Y17410D01*
X153854Y17403D01*
X153927Y17388D01*
X153985Y17381D01*
X154036Y17373D01*
X154072D01*
X154101Y17366D01*
X154109D01*
X154240Y17352D01*
X154349Y17330D01*
X154444Y17315D01*
X154517Y17301D01*
X154575Y17293D01*
X154619Y17279D01*
X154648Y17271D01*
X154656D01*
X154750Y17242D01*
X154830Y17213D01*
X154911Y17177D01*
X154976Y17147D01*
X155034Y17118D01*
X155071Y17089D01*
X155100Y17075D01*
X155107Y17067D01*
X155180Y17016D01*
X155239Y16958D01*
X155297Y16900D01*
X155341Y16841D01*
X155377Y16790D01*
X155406Y16747D01*
X155421Y16717D01*
X155428Y16710D01*
X155465Y16630D01*
X155494Y16542D01*
X155516Y16462D01*
X155530Y16382D01*
X155538Y16317D01*
X155545Y16265D01*
Y16236D01*
Y16222D01*
X155538Y16134D01*
X155530Y16061D01*
X155494Y15908D01*
X155443Y15784D01*
X155385Y15675D01*
X155326Y15587D01*
X155275Y15522D01*
X155239Y15485D01*
X155224Y15471D01*
X155093Y15376D01*
X154947Y15303D01*
X154787Y15252D01*
X154641Y15216D01*
X154510Y15194D01*
X154451Y15187D01*
X154400D01*
X154357Y15179D01*
X154298D01*
X154167Y15187D01*
X154036Y15201D01*
X153919Y15216D01*
X153817Y15237D01*
X153737Y15259D01*
X153671Y15281D01*
X153628Y15289D01*
X153613Y15296D01*
X153489Y15347D01*
X153372Y15413D01*
X153263Y15485D01*
X153154Y15551D01*
X153066Y15617D01*
X153001Y15668D01*
X152957Y15704D01*
X152950Y15719D01*
X152942D01*
X152928Y15624D01*
X152913Y15536D01*
X152899Y15456D01*
X152877Y15391D01*
X152855Y15332D01*
X152840Y15296D01*
X152833Y15267D01*
X152826Y15259D01*
X152177D01*
X152213Y15340D01*
X152250Y15420D01*
X152279Y15493D01*
X152294Y15558D01*
X152315Y15617D01*
X152323Y15660D01*
X152330Y15689D01*
Y15697D01*
X152337Y15748D01*
X152345Y15813D01*
Y15886D01*
X152352Y15967D01*
X152359Y16149D01*
Y16331D01*
X152366Y16506D01*
Y16586D01*
Y16652D01*
Y16710D01*
Y16754D01*
Y16783D01*
Y16790D01*
Y17621D01*
Y17760D01*
X152374Y17884D01*
X152381Y17979D01*
Y18059D01*
X152388Y18117D01*
X152396Y18161D01*
X152403Y18183D01*
Y18190D01*
X152425Y18285D01*
X152454Y18365D01*
X152483Y18430D01*
X152520Y18496D01*
X152549Y18540D01*
X152570Y18576D01*
X152585Y18598D01*
X152592Y18606D01*
X152651Y18664D01*
X152716Y18722D01*
X152789Y18766D01*
X152862Y18810D01*
X152928Y18839D01*
X152979Y18861D01*
X153015Y18875D01*
X153030Y18882D01*
X153146Y18919D01*
X153270Y18948D01*
X153394Y18970D01*
X153518Y18985D01*
X153628Y18992D01*
X153708Y18999D01*
X153788D01*
X153963Y18992D01*
D02*
G37*
G36*
X192913Y15259D02*
X192272D01*
Y19553D01*
X190814Y15259D01*
X190216D01*
X188743Y19480D01*
Y15259D01*
X188102D01*
Y20304D01*
X188999D01*
X190209Y16790D01*
X190274Y16601D01*
X190325Y16440D01*
X190376Y16302D01*
X190413Y16185D01*
X190442Y16098D01*
X190464Y16032D01*
X190471Y15996D01*
X190479Y15981D01*
X190508Y16083D01*
X190544Y16200D01*
X190588Y16324D01*
X190624Y16448D01*
X190661Y16557D01*
X190690Y16645D01*
X190705Y16681D01*
X190712Y16703D01*
X190719Y16717D01*
Y16725D01*
X191915Y20304D01*
X192913D01*
Y15259D01*
D02*
G37*
G36*
X166370D02*
X165671D01*
X163702Y20304D01*
X164380D01*
X165751Y16637D01*
X165809Y16484D01*
X165860Y16338D01*
X165904Y16200D01*
X165940Y16076D01*
X165977Y15967D01*
X165999Y15886D01*
X166006Y15857D01*
X166013Y15835D01*
X166021Y15821D01*
Y15813D01*
X166108Y16105D01*
X166152Y16243D01*
X166195Y16367D01*
X166232Y16477D01*
X166247Y16521D01*
X166254Y16564D01*
X166268Y16593D01*
X166276Y16615D01*
X166283Y16630D01*
Y16637D01*
X167595Y20304D01*
X168324D01*
X166370Y15259D01*
D02*
G37*
G36*
X179267Y16652D02*
Y16513D01*
X179259Y16389D01*
X179252Y16295D01*
X179245Y16207D01*
Y16149D01*
X179237Y16105D01*
X179230Y16076D01*
Y16069D01*
X179208Y15974D01*
X179179Y15886D01*
X179150Y15806D01*
X179113Y15741D01*
X179084Y15682D01*
X179062Y15646D01*
X179048Y15617D01*
X179041Y15609D01*
X178982Y15544D01*
X178917Y15485D01*
X178851Y15434D01*
X178778Y15391D01*
X178720Y15354D01*
X178669Y15325D01*
X178640Y15310D01*
X178625Y15303D01*
X178516Y15259D01*
X178414Y15230D01*
X178312Y15208D01*
X178217Y15194D01*
X178137Y15187D01*
X178071Y15179D01*
X178020D01*
X177889Y15187D01*
X177758Y15208D01*
X177641Y15237D01*
X177524Y15274D01*
X177422Y15325D01*
X177327Y15376D01*
X177240Y15427D01*
X177160Y15485D01*
X177087Y15544D01*
X177029Y15595D01*
X176977Y15653D01*
X176934Y15697D01*
X176897Y15733D01*
X176875Y15762D01*
X176861Y15784D01*
X176854Y15792D01*
Y15259D01*
X176300D01*
Y18919D01*
X176919D01*
Y16958D01*
X176926Y16790D01*
X176934Y16645D01*
X176948Y16521D01*
X176970Y16419D01*
X176992Y16338D01*
X177007Y16280D01*
X177014Y16251D01*
X177021Y16236D01*
X177065Y16149D01*
X177116Y16076D01*
X177174Y16010D01*
X177233Y15952D01*
X177284Y15908D01*
X177327Y15879D01*
X177357Y15857D01*
X177371Y15850D01*
X177466Y15806D01*
X177561Y15770D01*
X177648Y15748D01*
X177728Y15726D01*
X177794Y15719D01*
X177845Y15711D01*
X177896D01*
X177998Y15719D01*
X178085Y15733D01*
X178166Y15755D01*
X178231Y15784D01*
X178290Y15806D01*
X178326Y15828D01*
X178355Y15843D01*
X178363Y15850D01*
X178428Y15908D01*
X178479Y15967D01*
X178523Y16032D01*
X178559Y16091D01*
X178581Y16149D01*
X178596Y16193D01*
X178610Y16222D01*
Y16229D01*
X178625Y16309D01*
X178632Y16404D01*
X178640Y16513D01*
Y16623D01*
X178647Y16725D01*
Y16805D01*
Y16841D01*
Y16863D01*
Y16878D01*
Y16885D01*
Y18919D01*
X179267D01*
Y16652D01*
D02*
G37*
G36*
X173974Y18992D02*
X174105Y18977D01*
X174229Y18955D01*
X174346Y18919D01*
X174455Y18882D01*
X174557Y18839D01*
X174652Y18795D01*
X174732Y18744D01*
X174812Y18700D01*
X174878Y18649D01*
X174936Y18606D01*
X174980Y18569D01*
X175016Y18533D01*
X175046Y18511D01*
X175060Y18496D01*
X175067Y18489D01*
X175148Y18387D01*
X175221Y18278D01*
X175286Y18168D01*
X175345Y18052D01*
X175388Y17928D01*
X175425Y17811D01*
X175483Y17578D01*
X175505Y17476D01*
X175520Y17373D01*
X175527Y17286D01*
X175534Y17206D01*
X175541Y17140D01*
Y17097D01*
Y17060D01*
Y17053D01*
X175534Y16892D01*
X175520Y16739D01*
X175498Y16593D01*
X175468Y16462D01*
X175432Y16338D01*
X175396Y16222D01*
X175352Y16120D01*
X175308Y16025D01*
X175264Y15945D01*
X175221Y15872D01*
X175184Y15813D01*
X175148Y15762D01*
X175119Y15719D01*
X175097Y15689D01*
X175082Y15675D01*
X175075Y15668D01*
X174980Y15580D01*
X174885Y15507D01*
X174783Y15442D01*
X174674Y15383D01*
X174572Y15340D01*
X174462Y15296D01*
X174258Y15237D01*
X174163Y15223D01*
X174076Y15208D01*
X173996Y15194D01*
X173930Y15187D01*
X173879Y15179D01*
X173799D01*
X173573Y15194D01*
X173369Y15230D01*
X173187Y15274D01*
X173114Y15303D01*
X173041Y15332D01*
X172975Y15361D01*
X172917Y15391D01*
X172873Y15413D01*
X172829Y15434D01*
X172800Y15456D01*
X172778Y15471D01*
X172764Y15485D01*
X172757D01*
X172611Y15617D01*
X172494Y15755D01*
X172392Y15901D01*
X172319Y16039D01*
X172261Y16163D01*
X172239Y16222D01*
X172217Y16265D01*
X172203Y16309D01*
X172195Y16338D01*
X172188Y16353D01*
Y16360D01*
X172829Y16440D01*
X172888Y16302D01*
X172953Y16185D01*
X173019Y16083D01*
X173077Y16003D01*
X173128Y15945D01*
X173172Y15901D01*
X173208Y15872D01*
X173216Y15865D01*
X173311Y15806D01*
X173405Y15762D01*
X173507Y15733D01*
X173595Y15711D01*
X173675Y15697D01*
X173741Y15689D01*
X173799D01*
X173887Y15697D01*
X173967Y15704D01*
X174112Y15741D01*
X174244Y15792D01*
X174360Y15850D01*
X174448Y15901D01*
X174513Y15952D01*
X174557Y15988D01*
X174565Y16003D01*
X174572D01*
X174674Y16134D01*
X174754Y16280D01*
X174812Y16440D01*
X174856Y16586D01*
X174878Y16717D01*
X174892Y16776D01*
X174900Y16827D01*
Y16871D01*
X174907Y16900D01*
Y16921D01*
Y16929D01*
X172173D01*
X172166Y17002D01*
Y17053D01*
Y17082D01*
Y17089D01*
X172173Y17257D01*
X172188Y17410D01*
X172210Y17556D01*
X172239Y17694D01*
X172275Y17818D01*
X172312Y17935D01*
X172356Y18037D01*
X172399Y18132D01*
X172443Y18219D01*
X172487Y18292D01*
X172523Y18350D01*
X172560Y18401D01*
X172589Y18445D01*
X172611Y18474D01*
X172625Y18489D01*
X172633Y18496D01*
X172720Y18584D01*
X172815Y18664D01*
X172917Y18729D01*
X173019Y18788D01*
X173121Y18839D01*
X173216Y18875D01*
X173318Y18912D01*
X173405Y18934D01*
X173500Y18955D01*
X173580Y18970D01*
X173653Y18985D01*
X173712Y18992D01*
X173763Y18999D01*
X173836D01*
X173974Y18992D01*
D02*
G37*
G36*
X161821D02*
X161953Y18977D01*
X162077Y18955D01*
X162193Y18919D01*
X162303Y18882D01*
X162405Y18839D01*
X162499Y18795D01*
X162580Y18744D01*
X162660Y18700D01*
X162725Y18649D01*
X162784Y18606D01*
X162828Y18569D01*
X162864Y18533D01*
X162893Y18511D01*
X162908Y18496D01*
X162915Y18489D01*
X162995Y18387D01*
X163068Y18278D01*
X163134Y18168D01*
X163192Y18052D01*
X163236Y17928D01*
X163272Y17811D01*
X163331Y17578D01*
X163352Y17476D01*
X163367Y17373D01*
X163374Y17286D01*
X163382Y17206D01*
X163389Y17140D01*
Y17097D01*
Y17060D01*
Y17053D01*
X163382Y16892D01*
X163367Y16739D01*
X163345Y16593D01*
X163316Y16462D01*
X163279Y16338D01*
X163243Y16222D01*
X163199Y16120D01*
X163156Y16025D01*
X163112Y15945D01*
X163068Y15872D01*
X163032Y15813D01*
X162995Y15762D01*
X162966Y15719D01*
X162944Y15689D01*
X162930Y15675D01*
X162922Y15668D01*
X162828Y15580D01*
X162733Y15507D01*
X162631Y15442D01*
X162521Y15383D01*
X162419Y15340D01*
X162310Y15296D01*
X162106Y15237D01*
X162011Y15223D01*
X161924Y15208D01*
X161843Y15194D01*
X161778Y15187D01*
X161727Y15179D01*
X161647D01*
X161421Y15194D01*
X161216Y15230D01*
X161034Y15274D01*
X160961Y15303D01*
X160888Y15332D01*
X160823Y15361D01*
X160765Y15391D01*
X160721Y15413D01*
X160677Y15434D01*
X160648Y15456D01*
X160626Y15471D01*
X160611Y15485D01*
X160604D01*
X160458Y15617D01*
X160342Y15755D01*
X160240Y15901D01*
X160167Y16039D01*
X160108Y16163D01*
X160087Y16222D01*
X160065Y16265D01*
X160050Y16309D01*
X160043Y16338D01*
X160036Y16353D01*
Y16360D01*
X160677Y16440D01*
X160735Y16302D01*
X160801Y16185D01*
X160867Y16083D01*
X160925Y16003D01*
X160976Y15945D01*
X161020Y15901D01*
X161056Y15872D01*
X161063Y15865D01*
X161158Y15806D01*
X161253Y15762D01*
X161355Y15733D01*
X161442Y15711D01*
X161523Y15697D01*
X161588Y15689D01*
X161647D01*
X161734Y15697D01*
X161814Y15704D01*
X161960Y15741D01*
X162091Y15792D01*
X162208Y15850D01*
X162295Y15901D01*
X162361Y15952D01*
X162405Y15988D01*
X162412Y16003D01*
X162419D01*
X162521Y16134D01*
X162602Y16280D01*
X162660Y16440D01*
X162704Y16586D01*
X162725Y16717D01*
X162740Y16776D01*
X162747Y16827D01*
Y16871D01*
X162755Y16900D01*
Y16921D01*
Y16929D01*
X160021D01*
X160014Y17002D01*
Y17053D01*
Y17082D01*
Y17089D01*
X160021Y17257D01*
X160036Y17410D01*
X160057Y17556D01*
X160087Y17694D01*
X160123Y17818D01*
X160159Y17935D01*
X160203Y18037D01*
X160247Y18132D01*
X160291Y18219D01*
X160334Y18292D01*
X160371Y18350D01*
X160407Y18401D01*
X160436Y18445D01*
X160458Y18474D01*
X160473Y18489D01*
X160480Y18496D01*
X160568Y18584D01*
X160662Y18664D01*
X160765Y18729D01*
X160867Y18788D01*
X160969Y18839D01*
X161063Y18875D01*
X161165Y18912D01*
X161253Y18934D01*
X161348Y18955D01*
X161428Y18970D01*
X161501Y18985D01*
X161559Y18992D01*
X161610Y18999D01*
X161683D01*
X161821Y18992D01*
D02*
G37*
G36*
X181599D02*
X181730Y18970D01*
X181847Y18941D01*
X181964Y18904D01*
X182066Y18861D01*
X182161Y18810D01*
X182248Y18751D01*
X182321Y18700D01*
X182394Y18642D01*
X182452Y18584D01*
X182503Y18533D01*
X182547Y18489D01*
X182576Y18452D01*
X182598Y18423D01*
X182613Y18401D01*
X182620Y18394D01*
Y18919D01*
X183174D01*
Y15259D01*
X182554D01*
Y17250D01*
Y17373D01*
X182540Y17497D01*
X182525Y17600D01*
X182511Y17694D01*
X182489Y17782D01*
X182467Y17862D01*
X182438Y17935D01*
X182408Y17993D01*
X182387Y18044D01*
X182358Y18088D01*
X182336Y18124D01*
X182314Y18154D01*
X182285Y18190D01*
X182270Y18205D01*
X182161Y18292D01*
X182044Y18350D01*
X181927Y18394D01*
X181825Y18430D01*
X181730Y18445D01*
X181658Y18452D01*
X181629Y18460D01*
X181592D01*
X181504Y18452D01*
X181417Y18445D01*
X181344Y18423D01*
X181286Y18401D01*
X181235Y18380D01*
X181191Y18365D01*
X181169Y18350D01*
X181162Y18343D01*
X181096Y18299D01*
X181038Y18248D01*
X180994Y18197D01*
X180958Y18154D01*
X180936Y18110D01*
X180914Y18073D01*
X180900Y18052D01*
Y18044D01*
X180878Y17964D01*
X180856Y17876D01*
X180841Y17782D01*
X180834Y17687D01*
X180827Y17607D01*
Y17541D01*
Y17490D01*
Y17483D01*
Y17476D01*
Y15259D01*
X180207D01*
Y17505D01*
Y17658D01*
X180214Y17782D01*
X180221Y17884D01*
Y17971D01*
X180229Y18030D01*
X180236Y18073D01*
X180243Y18102D01*
Y18110D01*
X180265Y18205D01*
X180302Y18292D01*
X180331Y18365D01*
X180360Y18438D01*
X180396Y18489D01*
X180418Y18525D01*
X180433Y18554D01*
X180440Y18562D01*
X180499Y18635D01*
X180564Y18693D01*
X180630Y18751D01*
X180703Y18795D01*
X180761Y18832D01*
X180812Y18853D01*
X180841Y18868D01*
X180856Y18875D01*
X180958Y18919D01*
X181067Y18948D01*
X181169Y18970D01*
X181264Y18985D01*
X181344Y18992D01*
X181403Y18999D01*
X181461D01*
X181599Y18992D01*
D02*
G37*
G36*
X171423Y15259D02*
X170803D01*
Y20304D01*
X171423D01*
Y15259D01*
D02*
G37*
G36*
X124558Y70954D02*
X123916D01*
Y74912D01*
X121278Y70954D01*
X120585D01*
Y75998D01*
X121227D01*
Y72032D01*
X123873Y75998D01*
X124558D01*
Y70954D01*
D02*
G37*
G36*
X141814D02*
X141172D01*
Y75247D01*
X139714Y70954D01*
X139116D01*
X137644Y75174D01*
Y70954D01*
X137002D01*
Y75998D01*
X137899D01*
X139109Y72484D01*
X139174Y72295D01*
X139225Y72135D01*
X139277Y71996D01*
X139313Y71879D01*
X139342Y71792D01*
X139364Y71726D01*
X139371Y71690D01*
X139379Y71675D01*
X139408Y71777D01*
X139444Y71894D01*
X139488Y72018D01*
X139524Y72142D01*
X139561Y72251D01*
X139590Y72339D01*
X139605Y72375D01*
X139612Y72397D01*
X139619Y72412D01*
Y72419D01*
X140815Y75998D01*
X141814D01*
Y70954D01*
D02*
G37*
G36*
X151575D02*
X150904D01*
Y73192D01*
X150044D01*
X149964Y73184D01*
X149905D01*
X149854Y73177D01*
X149818Y73170D01*
X149789D01*
X149774Y73163D01*
X149767D01*
X149650Y73126D01*
X149599Y73104D01*
X149556Y73082D01*
X149512Y73060D01*
X149483Y73046D01*
X149468Y73039D01*
X149461Y73031D01*
X149402Y72988D01*
X149344Y72936D01*
X149235Y72827D01*
X149184Y72776D01*
X149147Y72732D01*
X149125Y72703D01*
X149118Y72696D01*
X149045Y72594D01*
X148965Y72484D01*
X148885Y72368D01*
X148805Y72259D01*
X148739Y72157D01*
X148688Y72076D01*
X148666Y72047D01*
X148652Y72025D01*
X148637Y72011D01*
Y72003D01*
X147974Y70954D01*
X147143D01*
X148010Y72324D01*
X148112Y72470D01*
X148207Y72601D01*
X148302Y72711D01*
X148382Y72813D01*
X148455Y72886D01*
X148513Y72944D01*
X148549Y72980D01*
X148564Y72995D01*
X148622Y73039D01*
X148688Y73090D01*
X148819Y73170D01*
X148878Y73199D01*
X148921Y73228D01*
X148950Y73243D01*
X148965Y73250D01*
X148834Y73272D01*
X148710Y73294D01*
X148600Y73330D01*
X148491Y73359D01*
X148396Y73396D01*
X148309Y73440D01*
X148229Y73476D01*
X148156Y73512D01*
X148098Y73556D01*
X148039Y73593D01*
X147995Y73622D01*
X147959Y73651D01*
X147930Y73673D01*
X147908Y73695D01*
X147901Y73702D01*
X147893Y73709D01*
X147835Y73782D01*
X147777Y73855D01*
X147689Y74008D01*
X147631Y74161D01*
X147587Y74307D01*
X147558Y74431D01*
X147551Y74482D01*
Y74533D01*
X147543Y74569D01*
Y74599D01*
Y74613D01*
Y74620D01*
X147551Y74774D01*
X147573Y74912D01*
X147609Y75043D01*
X147645Y75153D01*
X147689Y75247D01*
X147718Y75320D01*
X147748Y75364D01*
X147755Y75371D01*
Y75379D01*
X147842Y75495D01*
X147930Y75597D01*
X148025Y75685D01*
X148112Y75750D01*
X148192Y75801D01*
X148258Y75831D01*
X148302Y75853D01*
X148309Y75860D01*
X148316D01*
X148382Y75882D01*
X148462Y75903D01*
X148622Y75940D01*
X148797Y75962D01*
X148958Y75984D01*
X149111Y75991D01*
X149176D01*
X149235Y75998D01*
X151575D01*
Y70954D01*
D02*
G37*
G36*
X146494D02*
X145823D01*
Y73002D01*
X144533D01*
X144343Y73009D01*
X144161Y73024D01*
X144000Y73046D01*
X143855Y73075D01*
X143716Y73104D01*
X143599Y73141D01*
X143490Y73184D01*
X143395Y73228D01*
X143315Y73264D01*
X143242Y73308D01*
X143184Y73345D01*
X143140Y73381D01*
X143104Y73403D01*
X143082Y73425D01*
X143067Y73440D01*
X143060Y73447D01*
X142987Y73534D01*
X142922Y73622D01*
X142870Y73709D01*
X142819Y73804D01*
X142776Y73899D01*
X142747Y73986D01*
X142696Y74154D01*
X142681Y74234D01*
X142666Y74307D01*
X142659Y74373D01*
X142652Y74424D01*
X142645Y74475D01*
Y74504D01*
Y74526D01*
Y74533D01*
X142652Y74672D01*
X142666Y74803D01*
X142696Y74919D01*
X142718Y75021D01*
X142747Y75109D01*
X142776Y75174D01*
X142790Y75211D01*
X142798Y75226D01*
X142856Y75335D01*
X142929Y75430D01*
X142994Y75517D01*
X143060Y75583D01*
X143118Y75634D01*
X143162Y75678D01*
X143191Y75699D01*
X143206Y75707D01*
X143301Y75765D01*
X143410Y75816D01*
X143512Y75860D01*
X143607Y75896D01*
X143694Y75918D01*
X143760Y75933D01*
X143811Y75947D01*
X143825D01*
X143935Y75962D01*
X144059Y75976D01*
X144190Y75984D01*
X144314Y75991D01*
X144423Y75998D01*
X146494D01*
Y70954D01*
D02*
G37*
G36*
X129245D02*
X125477D01*
Y71551D01*
X128575D01*
Y73264D01*
X125783D01*
Y73862D01*
X128575D01*
Y75401D01*
X125593D01*
Y75998D01*
X129245D01*
Y70954D01*
D02*
G37*
G36*
X109271D02*
X108600D01*
Y73192D01*
X107740D01*
X107660Y73184D01*
X107601D01*
X107551Y73177D01*
X107514Y73170D01*
X107485D01*
X107470Y73163D01*
X107463D01*
X107346Y73126D01*
X107295Y73104D01*
X107252Y73082D01*
X107208Y73060D01*
X107179Y73046D01*
X107164Y73039D01*
X107157Y73031D01*
X107098Y72988D01*
X107040Y72936D01*
X106931Y72827D01*
X106880Y72776D01*
X106843Y72732D01*
X106822Y72703D01*
X106814Y72696D01*
X106741Y72594D01*
X106661Y72484D01*
X106581Y72368D01*
X106501Y72259D01*
X106435Y72157D01*
X106384Y72076D01*
X106362Y72047D01*
X106348Y72025D01*
X106333Y72011D01*
Y72003D01*
X105670Y70954D01*
X104839D01*
X105706Y72324D01*
X105808Y72470D01*
X105903Y72601D01*
X105998Y72711D01*
X106078Y72813D01*
X106151Y72886D01*
X106209Y72944D01*
X106246Y72980D01*
X106260Y72995D01*
X106318Y73039D01*
X106384Y73090D01*
X106515Y73170D01*
X106574Y73199D01*
X106617Y73228D01*
X106647Y73243D01*
X106661Y73250D01*
X106530Y73272D01*
X106406Y73294D01*
X106297Y73330D01*
X106187Y73359D01*
X106093Y73396D01*
X106005Y73440D01*
X105925Y73476D01*
X105852Y73512D01*
X105794Y73556D01*
X105735Y73593D01*
X105692Y73622D01*
X105655Y73651D01*
X105626Y73673D01*
X105604Y73695D01*
X105597Y73702D01*
X105589Y73709D01*
X105531Y73782D01*
X105473Y73855D01*
X105385Y74008D01*
X105327Y74161D01*
X105283Y74307D01*
X105254Y74431D01*
X105247Y74482D01*
Y74533D01*
X105240Y74569D01*
Y74599D01*
Y74613D01*
Y74620D01*
X105247Y74774D01*
X105269Y74912D01*
X105305Y75043D01*
X105342Y75153D01*
X105385Y75247D01*
X105414Y75320D01*
X105444Y75364D01*
X105451Y75371D01*
Y75379D01*
X105538Y75495D01*
X105626Y75597D01*
X105721Y75685D01*
X105808Y75750D01*
X105888Y75801D01*
X105954Y75831D01*
X105998Y75853D01*
X106005Y75860D01*
X106012D01*
X106078Y75882D01*
X106158Y75903D01*
X106318Y75940D01*
X106493Y75962D01*
X106654Y75984D01*
X106807Y75991D01*
X106872D01*
X106931Y75998D01*
X109271D01*
Y70954D01*
D02*
G37*
G36*
X132409Y76078D02*
X132577Y76057D01*
X132737Y76028D01*
X132876Y75998D01*
X132985Y75969D01*
X133036Y75955D01*
X133073Y75940D01*
X133102Y75925D01*
X133124Y75918D01*
X133138Y75911D01*
X133146D01*
X133291Y75838D01*
X133423Y75758D01*
X133532Y75670D01*
X133619Y75590D01*
X133685Y75517D01*
X133736Y75459D01*
X133773Y75415D01*
X133780Y75408D01*
Y75401D01*
X133853Y75277D01*
X133904Y75153D01*
X133940Y75029D01*
X133962Y74919D01*
X133977Y74825D01*
X133991Y74752D01*
Y74723D01*
Y74701D01*
Y74693D01*
Y74686D01*
X133984Y74562D01*
X133962Y74445D01*
X133933Y74336D01*
X133904Y74241D01*
X133875Y74168D01*
X133845Y74110D01*
X133824Y74074D01*
X133816Y74059D01*
X133744Y73957D01*
X133656Y73862D01*
X133569Y73782D01*
X133481Y73716D01*
X133408Y73658D01*
X133343Y73622D01*
X133299Y73593D01*
X133291Y73585D01*
X133284D01*
X133226Y73556D01*
X133160Y73527D01*
X133015Y73476D01*
X132847Y73425D01*
X132686Y73374D01*
X132541Y73330D01*
X132475Y73316D01*
X132417Y73301D01*
X132373Y73286D01*
X132336Y73279D01*
X132315Y73272D01*
X132307D01*
X132183Y73243D01*
X132067Y73213D01*
X131965Y73184D01*
X131877Y73163D01*
X131790Y73141D01*
X131717Y73119D01*
X131651Y73104D01*
X131600Y73082D01*
X131549Y73068D01*
X131513Y73060D01*
X131454Y73039D01*
X131418Y73031D01*
X131411Y73024D01*
X131301Y72980D01*
X131207Y72929D01*
X131126Y72878D01*
X131068Y72834D01*
X131017Y72791D01*
X130988Y72761D01*
X130966Y72740D01*
X130959Y72732D01*
X130908Y72667D01*
X130871Y72594D01*
X130849Y72521D01*
X130827Y72463D01*
X130820Y72404D01*
X130813Y72361D01*
Y72324D01*
Y72317D01*
X130820Y72229D01*
X130835Y72149D01*
X130857Y72076D01*
X130886Y72018D01*
X130915Y71960D01*
X130937Y71923D01*
X130951Y71894D01*
X130959Y71887D01*
X131017Y71814D01*
X131090Y71755D01*
X131163Y71705D01*
X131228Y71653D01*
X131294Y71624D01*
X131345Y71595D01*
X131381Y71581D01*
X131396Y71573D01*
X131505Y71537D01*
X131622Y71508D01*
X131739Y71493D01*
X131841Y71478D01*
X131928Y71471D01*
X132001Y71464D01*
X132067D01*
X132227Y71471D01*
X132373Y71486D01*
X132504Y71508D01*
X132621Y71537D01*
X132716Y71566D01*
X132789Y71588D01*
X132810Y71595D01*
X132832Y71602D01*
X132840Y71610D01*
X132847D01*
X132963Y71668D01*
X133073Y71734D01*
X133153Y71799D01*
X133226Y71865D01*
X133284Y71916D01*
X133321Y71967D01*
X133343Y71996D01*
X133350Y72003D01*
X133401Y72098D01*
X133452Y72200D01*
X133481Y72310D01*
X133510Y72404D01*
X133532Y72499D01*
X133547Y72565D01*
Y72594D01*
X133554Y72616D01*
Y72623D01*
Y72630D01*
X134181Y72572D01*
X134166Y72390D01*
X134137Y72215D01*
X134093Y72062D01*
X134042Y71923D01*
X133991Y71814D01*
X133969Y71770D01*
X133955Y71734D01*
X133933Y71705D01*
X133926Y71683D01*
X133911Y71668D01*
Y71661D01*
X133802Y71522D01*
X133685Y71398D01*
X133561Y71296D01*
X133445Y71209D01*
X133343Y71143D01*
X133255Y71099D01*
X133226Y71085D01*
X133204Y71070D01*
X133189Y71063D01*
X133182D01*
X133000Y70997D01*
X132810Y70946D01*
X132621Y70917D01*
X132439Y70888D01*
X132351Y70881D01*
X132278Y70873D01*
X132213D01*
X132154Y70866D01*
X132038D01*
X131841Y70873D01*
X131658Y70895D01*
X131491Y70932D01*
X131352Y70968D01*
X131236Y70997D01*
X131185Y71019D01*
X131141Y71034D01*
X131112Y71048D01*
X131090Y71056D01*
X131075Y71063D01*
X131068D01*
X130915Y71143D01*
X130784Y71231D01*
X130667Y71325D01*
X130572Y71413D01*
X130499Y71486D01*
X130448Y71551D01*
X130412Y71595D01*
X130405Y71602D01*
Y71610D01*
X130324Y71748D01*
X130266Y71879D01*
X130230Y72003D01*
X130201Y72120D01*
X130186Y72222D01*
X130171Y72302D01*
Y72331D01*
Y72353D01*
Y72361D01*
Y72368D01*
X130179Y72514D01*
X130201Y72652D01*
X130237Y72776D01*
X130273Y72878D01*
X130317Y72966D01*
X130346Y73031D01*
X130376Y73068D01*
X130383Y73082D01*
X130470Y73192D01*
X130572Y73294D01*
X130682Y73381D01*
X130791Y73461D01*
X130886Y73520D01*
X130966Y73563D01*
X130995Y73578D01*
X131017Y73593D01*
X131032Y73600D01*
X131039D01*
X131097Y73629D01*
X131170Y73651D01*
X131250Y73680D01*
X131338Y73709D01*
X131520Y73760D01*
X131710Y73811D01*
X131797Y73833D01*
X131877Y73855D01*
X131957Y73877D01*
X132023Y73892D01*
X132074Y73906D01*
X132118Y73913D01*
X132147Y73921D01*
X132154D01*
X132300Y73957D01*
X132431Y73986D01*
X132548Y74023D01*
X132650Y74052D01*
X132745Y74088D01*
X132825Y74117D01*
X132898Y74147D01*
X132963Y74168D01*
X133015Y74198D01*
X133058Y74220D01*
X133087Y74234D01*
X133116Y74256D01*
X133153Y74278D01*
X133160Y74285D01*
X133226Y74358D01*
X133270Y74431D01*
X133306Y74504D01*
X133328Y74577D01*
X133343Y74635D01*
X133350Y74686D01*
Y74715D01*
Y74730D01*
X133335Y74847D01*
X133306Y74949D01*
X133262Y75036D01*
X133211Y75116D01*
X133168Y75174D01*
X133124Y75226D01*
X133095Y75255D01*
X133080Y75262D01*
X133022Y75299D01*
X132963Y75335D01*
X132825Y75393D01*
X132679Y75430D01*
X132533Y75459D01*
X132402Y75473D01*
X132344Y75481D01*
X132300Y75488D01*
X132198D01*
X131994Y75481D01*
X131812Y75451D01*
X131666Y75408D01*
X131542Y75364D01*
X131447Y75320D01*
X131374Y75277D01*
X131338Y75247D01*
X131323Y75240D01*
X131221Y75138D01*
X131141Y75029D01*
X131075Y74912D01*
X131032Y74796D01*
X131002Y74686D01*
X130981Y74606D01*
X130973Y74569D01*
X130966Y74548D01*
Y74533D01*
Y74526D01*
X130324Y74577D01*
X130339Y74737D01*
X130376Y74883D01*
X130412Y75021D01*
X130463Y75138D01*
X130507Y75233D01*
X130543Y75306D01*
X130558Y75328D01*
X130572Y75349D01*
X130580Y75357D01*
Y75364D01*
X130674Y75488D01*
X130776Y75597D01*
X130886Y75692D01*
X130995Y75765D01*
X131090Y75831D01*
X131163Y75867D01*
X131192Y75882D01*
X131214Y75896D01*
X131228Y75903D01*
X131236D01*
X131396Y75962D01*
X131571Y76006D01*
X131731Y76042D01*
X131885Y76064D01*
X132023Y76078D01*
X132074D01*
X132125Y76086D01*
X132220D01*
X132409Y76078D01*
D02*
G37*
G36*
X117917D02*
X118085Y76057D01*
X118245Y76028D01*
X118383Y75998D01*
X118493Y75969D01*
X118544Y75955D01*
X118580Y75940D01*
X118609Y75925D01*
X118631Y75918D01*
X118646Y75911D01*
X118653D01*
X118799Y75838D01*
X118930Y75758D01*
X119039Y75670D01*
X119127Y75590D01*
X119193Y75517D01*
X119244Y75459D01*
X119280Y75415D01*
X119287Y75408D01*
Y75401D01*
X119360Y75277D01*
X119411Y75153D01*
X119448Y75029D01*
X119470Y74919D01*
X119484Y74825D01*
X119499Y74752D01*
Y74723D01*
Y74701D01*
Y74693D01*
Y74686D01*
X119492Y74562D01*
X119470Y74445D01*
X119440Y74336D01*
X119411Y74241D01*
X119382Y74168D01*
X119353Y74110D01*
X119331Y74074D01*
X119324Y74059D01*
X119251Y73957D01*
X119164Y73862D01*
X119076Y73782D01*
X118989Y73716D01*
X118916Y73658D01*
X118850Y73622D01*
X118806Y73593D01*
X118799Y73585D01*
X118792D01*
X118733Y73556D01*
X118668Y73527D01*
X118522Y73476D01*
X118354Y73425D01*
X118194Y73374D01*
X118048Y73330D01*
X117982Y73316D01*
X117924Y73301D01*
X117880Y73286D01*
X117844Y73279D01*
X117822Y73272D01*
X117815D01*
X117691Y73243D01*
X117574Y73213D01*
X117472Y73184D01*
X117385Y73163D01*
X117297Y73141D01*
X117224Y73119D01*
X117159Y73104D01*
X117108Y73082D01*
X117057Y73068D01*
X117020Y73060D01*
X116962Y73039D01*
X116925Y73031D01*
X116918Y73024D01*
X116809Y72980D01*
X116714Y72929D01*
X116634Y72878D01*
X116576Y72834D01*
X116525Y72791D01*
X116495Y72761D01*
X116473Y72740D01*
X116466Y72732D01*
X116415Y72667D01*
X116379Y72594D01*
X116357Y72521D01*
X116335Y72463D01*
X116328Y72404D01*
X116320Y72361D01*
Y72324D01*
Y72317D01*
X116328Y72229D01*
X116342Y72149D01*
X116364Y72076D01*
X116393Y72018D01*
X116422Y71960D01*
X116444Y71923D01*
X116459Y71894D01*
X116466Y71887D01*
X116525Y71814D01*
X116597Y71755D01*
X116670Y71705D01*
X116736Y71653D01*
X116802Y71624D01*
X116852Y71595D01*
X116889Y71581D01*
X116904Y71573D01*
X117013Y71537D01*
X117130Y71508D01*
X117246Y71493D01*
X117348Y71478D01*
X117436Y71471D01*
X117509Y71464D01*
X117574D01*
X117735Y71471D01*
X117880Y71486D01*
X118012Y71508D01*
X118128Y71537D01*
X118223Y71566D01*
X118296Y71588D01*
X118318Y71595D01*
X118340Y71602D01*
X118347Y71610D01*
X118354D01*
X118471Y71668D01*
X118580Y71734D01*
X118660Y71799D01*
X118733Y71865D01*
X118792Y71916D01*
X118828Y71967D01*
X118850Y71996D01*
X118857Y72003D01*
X118908Y72098D01*
X118959Y72200D01*
X118989Y72310D01*
X119018Y72404D01*
X119039Y72499D01*
X119054Y72565D01*
Y72594D01*
X119061Y72616D01*
Y72623D01*
Y72630D01*
X119688Y72572D01*
X119674Y72390D01*
X119645Y72215D01*
X119601Y72062D01*
X119550Y71923D01*
X119499Y71814D01*
X119477Y71770D01*
X119462Y71734D01*
X119440Y71705D01*
X119433Y71683D01*
X119419Y71668D01*
Y71661D01*
X119309Y71522D01*
X119193Y71398D01*
X119069Y71296D01*
X118952Y71209D01*
X118850Y71143D01*
X118763Y71099D01*
X118733Y71085D01*
X118711Y71070D01*
X118697Y71063D01*
X118690D01*
X118507Y70997D01*
X118318Y70946D01*
X118128Y70917D01*
X117946Y70888D01*
X117859Y70881D01*
X117786Y70873D01*
X117720D01*
X117662Y70866D01*
X117545D01*
X117348Y70873D01*
X117166Y70895D01*
X116998Y70932D01*
X116860Y70968D01*
X116743Y70997D01*
X116692Y71019D01*
X116648Y71034D01*
X116619Y71048D01*
X116597Y71056D01*
X116583Y71063D01*
X116576D01*
X116422Y71143D01*
X116291Y71231D01*
X116175Y71325D01*
X116080Y71413D01*
X116007Y71486D01*
X115956Y71551D01*
X115919Y71595D01*
X115912Y71602D01*
Y71610D01*
X115832Y71748D01*
X115774Y71879D01*
X115737Y72003D01*
X115708Y72120D01*
X115693Y72222D01*
X115679Y72302D01*
Y72331D01*
Y72353D01*
Y72361D01*
Y72368D01*
X115686Y72514D01*
X115708Y72652D01*
X115744Y72776D01*
X115781Y72878D01*
X115825Y72966D01*
X115854Y73031D01*
X115883Y73068D01*
X115890Y73082D01*
X115978Y73192D01*
X116080Y73294D01*
X116189Y73381D01*
X116298Y73461D01*
X116393Y73520D01*
X116473Y73563D01*
X116503Y73578D01*
X116525Y73593D01*
X116539Y73600D01*
X116546D01*
X116605Y73629D01*
X116678Y73651D01*
X116758Y73680D01*
X116845Y73709D01*
X117027Y73760D01*
X117217Y73811D01*
X117305Y73833D01*
X117385Y73855D01*
X117465Y73877D01*
X117531Y73892D01*
X117581Y73906D01*
X117625Y73913D01*
X117654Y73921D01*
X117662D01*
X117807Y73957D01*
X117939Y73986D01*
X118055Y74023D01*
X118157Y74052D01*
X118252Y74088D01*
X118332Y74117D01*
X118405Y74147D01*
X118471Y74168D01*
X118522Y74198D01*
X118566Y74220D01*
X118595Y74234D01*
X118624Y74256D01*
X118660Y74278D01*
X118668Y74285D01*
X118733Y74358D01*
X118777Y74431D01*
X118814Y74504D01*
X118835Y74577D01*
X118850Y74635D01*
X118857Y74686D01*
Y74715D01*
Y74730D01*
X118843Y74847D01*
X118814Y74949D01*
X118770Y75036D01*
X118719Y75116D01*
X118675Y75174D01*
X118631Y75226D01*
X118602Y75255D01*
X118588Y75262D01*
X118529Y75299D01*
X118471Y75335D01*
X118332Y75393D01*
X118187Y75430D01*
X118041Y75459D01*
X117910Y75473D01*
X117851Y75481D01*
X117807Y75488D01*
X117706D01*
X117501Y75481D01*
X117319Y75451D01*
X117173Y75408D01*
X117049Y75364D01*
X116955Y75320D01*
X116882Y75277D01*
X116845Y75247D01*
X116831Y75240D01*
X116729Y75138D01*
X116648Y75029D01*
X116583Y74912D01*
X116539Y74796D01*
X116510Y74686D01*
X116488Y74606D01*
X116481Y74569D01*
X116473Y74548D01*
Y74533D01*
Y74526D01*
X115832Y74577D01*
X115847Y74737D01*
X115883Y74883D01*
X115919Y75021D01*
X115970Y75138D01*
X116014Y75233D01*
X116051Y75306D01*
X116065Y75328D01*
X116080Y75349D01*
X116087Y75357D01*
Y75364D01*
X116182Y75488D01*
X116284Y75597D01*
X116393Y75692D01*
X116503Y75765D01*
X116597Y75831D01*
X116670Y75867D01*
X116699Y75882D01*
X116721Y75896D01*
X116736Y75903D01*
X116743D01*
X116904Y75962D01*
X117078Y76006D01*
X117239Y76042D01*
X117392Y76064D01*
X117531Y76078D01*
X117581D01*
X117633Y76086D01*
X117727D01*
X117917Y76078D01*
D02*
G37*
G36*
X112748D02*
X112931Y76057D01*
X113105Y76020D01*
X113273Y75976D01*
X113426Y75918D01*
X113572Y75860D01*
X113703Y75794D01*
X113820Y75729D01*
X113929Y75663D01*
X114024Y75597D01*
X114104Y75539D01*
X114170Y75481D01*
X114221Y75437D01*
X114265Y75401D01*
X114286Y75379D01*
X114294Y75371D01*
X114410Y75233D01*
X114512Y75087D01*
X114607Y74927D01*
X114680Y74766D01*
X114746Y74599D01*
X114804Y74438D01*
X114848Y74278D01*
X114877Y74125D01*
X114906Y73979D01*
X114928Y73840D01*
X114943Y73716D01*
X114957Y73615D01*
Y73527D01*
X114964Y73461D01*
Y73418D01*
Y73410D01*
Y73403D01*
X114950Y73155D01*
X114921Y72929D01*
X114877Y72711D01*
X114848Y72616D01*
X114819Y72521D01*
X114797Y72441D01*
X114768Y72368D01*
X114746Y72302D01*
X114724Y72244D01*
X114709Y72200D01*
X114695Y72171D01*
X114680Y72149D01*
Y72142D01*
X114556Y71930D01*
X114425Y71748D01*
X114279Y71588D01*
X114141Y71457D01*
X114017Y71347D01*
X113966Y71303D01*
X113922Y71274D01*
X113878Y71245D01*
X113849Y71223D01*
X113835Y71216D01*
X113827Y71209D01*
X113718Y71150D01*
X113609Y71099D01*
X113390Y71012D01*
X113178Y70954D01*
X112981Y70910D01*
X112887Y70895D01*
X112807Y70888D01*
X112734Y70873D01*
X112668D01*
X112624Y70866D01*
X112551D01*
X112311Y70881D01*
X112085Y70917D01*
X111873Y70961D01*
X111779Y70990D01*
X111691Y71019D01*
X111611Y71048D01*
X111538Y71078D01*
X111480Y71099D01*
X111429Y71121D01*
X111385Y71143D01*
X111349Y71158D01*
X111334Y71172D01*
X111327D01*
X111123Y71303D01*
X110948Y71449D01*
X110802Y71602D01*
X110678Y71748D01*
X110576Y71887D01*
X110539Y71938D01*
X110510Y71989D01*
X110481Y72032D01*
X110467Y72062D01*
X110452Y72084D01*
Y72091D01*
X110394Y72207D01*
X110350Y72324D01*
X110270Y72557D01*
X110211Y72791D01*
X110175Y73002D01*
X110168Y73097D01*
X110153Y73184D01*
X110146Y73264D01*
Y73330D01*
X110138Y73388D01*
Y73425D01*
Y73454D01*
Y73461D01*
X110153Y73738D01*
X110182Y73994D01*
X110204Y74110D01*
X110233Y74227D01*
X110262Y74329D01*
X110284Y74424D01*
X110313Y74511D01*
X110343Y74591D01*
X110364Y74657D01*
X110394Y74715D01*
X110408Y74759D01*
X110423Y74788D01*
X110437Y74810D01*
Y74817D01*
X110554Y75029D01*
X110693Y75218D01*
X110838Y75379D01*
X110969Y75510D01*
X111093Y75612D01*
X111152Y75656D01*
X111196Y75692D01*
X111239Y75714D01*
X111268Y75736D01*
X111283Y75743D01*
X111290Y75750D01*
X111400Y75809D01*
X111509Y75860D01*
X111720Y75947D01*
X111939Y76006D01*
X112129Y76042D01*
X112216Y76057D01*
X112304Y76071D01*
X112369Y76078D01*
X112435D01*
X112486Y76086D01*
X112551D01*
X112748Y76078D01*
D02*
G37*
%LPC*%
G36*
X156453Y62292D02*
X156446D01*
X156453Y62059D01*
X156460Y61913D01*
X156468Y61789D01*
X156482Y61687D01*
X156504Y61599D01*
X156526Y61534D01*
X156541Y61483D01*
X156548Y61453D01*
X156555Y61446D01*
X156614Y61352D01*
X156672Y61264D01*
X156745Y61191D01*
X156810Y61133D01*
X156869Y61082D01*
X156920Y61045D01*
X156949Y61023D01*
X156964Y61016D01*
X157073Y60965D01*
X157182Y60929D01*
X157284Y60900D01*
X157386Y60885D01*
X157467Y60870D01*
X157539Y60863D01*
X157598D01*
X157729Y60870D01*
X157838Y60885D01*
X157933Y60914D01*
X158013Y60943D01*
X158072Y60972D01*
X158115Y61001D01*
X158144Y61016D01*
X158152Y61023D01*
X158210Y61089D01*
X158254Y61162D01*
X158290Y61228D01*
X158312Y61293D01*
X158327Y61352D01*
X158334Y61395D01*
Y61432D01*
Y61439D01*
X158327Y61497D01*
X158319Y61556D01*
X158305Y61599D01*
X158290Y61643D01*
X158276Y61680D01*
X158268Y61709D01*
X158254Y61723D01*
Y61731D01*
X158181Y61818D01*
X158094Y61876D01*
X158064Y61898D01*
X158035Y61913D01*
X158013Y61927D01*
X158006D01*
X157933Y61957D01*
X157853Y61978D01*
X157765Y62000D01*
X157678Y62015D01*
X157598Y62029D01*
X157525Y62044D01*
X157481Y62051D01*
X157467D01*
X157343Y62073D01*
X157226Y62088D01*
X157124Y62110D01*
X157022Y62132D01*
X156927Y62153D01*
X156847Y62175D01*
X156767Y62190D01*
X156701Y62212D01*
X156643Y62226D01*
X156592Y62241D01*
X156548Y62255D01*
X156512Y62270D01*
X156482Y62277D01*
X156460Y62285D01*
X156453Y62292D01*
D02*
G37*
G36*
X132141D02*
X132134D01*
X132141Y62059D01*
X132148Y61913D01*
X132156Y61789D01*
X132170Y61687D01*
X132192Y61599D01*
X132214Y61534D01*
X132229Y61483D01*
X132236Y61453D01*
X132243Y61446D01*
X132301Y61352D01*
X132360Y61264D01*
X132433Y61191D01*
X132498Y61133D01*
X132557Y61082D01*
X132608Y61045D01*
X132637Y61023D01*
X132651Y61016D01*
X132761Y60965D01*
X132870Y60929D01*
X132972Y60900D01*
X133074Y60885D01*
X133154Y60870D01*
X133227Y60863D01*
X133286D01*
X133417Y60870D01*
X133526Y60885D01*
X133621Y60914D01*
X133701Y60943D01*
X133759Y60972D01*
X133803Y61001D01*
X133832Y61016D01*
X133840Y61023D01*
X133898Y61089D01*
X133942Y61162D01*
X133978Y61228D01*
X134000Y61293D01*
X134015Y61352D01*
X134022Y61395D01*
Y61432D01*
Y61439D01*
X134015Y61497D01*
X134007Y61556D01*
X133993Y61599D01*
X133978Y61643D01*
X133964Y61680D01*
X133956Y61709D01*
X133942Y61723D01*
Y61731D01*
X133869Y61818D01*
X133781Y61876D01*
X133752Y61898D01*
X133723Y61913D01*
X133701Y61927D01*
X133694D01*
X133621Y61957D01*
X133541Y61978D01*
X133453Y62000D01*
X133366Y62015D01*
X133286Y62029D01*
X133213Y62044D01*
X133169Y62051D01*
X133154D01*
X133030Y62073D01*
X132914Y62088D01*
X132812Y62110D01*
X132710Y62132D01*
X132615Y62153D01*
X132535Y62175D01*
X132455Y62190D01*
X132389Y62212D01*
X132331Y62226D01*
X132280Y62241D01*
X132236Y62255D01*
X132199Y62270D01*
X132170Y62277D01*
X132148Y62285D01*
X132141Y62292D01*
D02*
G37*
G36*
X126258D02*
X126251D01*
X126258Y62059D01*
X126265Y61913D01*
X126273Y61789D01*
X126287Y61687D01*
X126309Y61599D01*
X126331Y61534D01*
X126346Y61483D01*
X126353Y61453D01*
X126360Y61446D01*
X126418Y61352D01*
X126477Y61264D01*
X126550Y61191D01*
X126615Y61133D01*
X126674Y61082D01*
X126725Y61045D01*
X126754Y61023D01*
X126768Y61016D01*
X126878Y60965D01*
X126987Y60929D01*
X127089Y60900D01*
X127191Y60885D01*
X127271Y60870D01*
X127344Y60863D01*
X127403D01*
X127534Y60870D01*
X127643Y60885D01*
X127738Y60914D01*
X127818Y60943D01*
X127876Y60972D01*
X127920Y61001D01*
X127949Y61016D01*
X127957Y61023D01*
X128015Y61089D01*
X128059Y61162D01*
X128095Y61228D01*
X128117Y61293D01*
X128132Y61352D01*
X128139Y61395D01*
Y61432D01*
Y61439D01*
X128132Y61497D01*
X128124Y61556D01*
X128110Y61599D01*
X128095Y61643D01*
X128081Y61680D01*
X128073Y61709D01*
X128059Y61723D01*
Y61731D01*
X127986Y61818D01*
X127898Y61876D01*
X127869Y61898D01*
X127840Y61913D01*
X127818Y61927D01*
X127811D01*
X127738Y61957D01*
X127658Y61978D01*
X127570Y62000D01*
X127483Y62015D01*
X127403Y62029D01*
X127330Y62044D01*
X127286Y62051D01*
X127271D01*
X127147Y62073D01*
X127031Y62088D01*
X126929Y62110D01*
X126827Y62132D01*
X126732Y62153D01*
X126652Y62175D01*
X126572Y62190D01*
X126506Y62212D01*
X126448Y62226D01*
X126397Y62241D01*
X126353Y62255D01*
X126316Y62270D01*
X126287Y62277D01*
X126265Y62285D01*
X126258Y62292D01*
D02*
G37*
G36*
X81563D02*
X81556D01*
X81563Y62059D01*
X81570Y61913D01*
X81578Y61789D01*
X81592Y61687D01*
X81614Y61599D01*
X81636Y61534D01*
X81651Y61483D01*
X81658Y61453D01*
X81665Y61446D01*
X81723Y61352D01*
X81782Y61264D01*
X81855Y61191D01*
X81920Y61133D01*
X81979Y61082D01*
X82030Y61045D01*
X82059Y61023D01*
X82073Y61016D01*
X82183Y60965D01*
X82292Y60929D01*
X82394Y60900D01*
X82496Y60885D01*
X82576Y60870D01*
X82649Y60863D01*
X82708D01*
X82839Y60870D01*
X82948Y60885D01*
X83043Y60914D01*
X83123Y60943D01*
X83181Y60972D01*
X83225Y61001D01*
X83254Y61016D01*
X83262Y61023D01*
X83320Y61089D01*
X83364Y61162D01*
X83400Y61228D01*
X83422Y61293D01*
X83437Y61352D01*
X83444Y61395D01*
Y61432D01*
Y61439D01*
X83437Y61497D01*
X83429Y61556D01*
X83415Y61599D01*
X83400Y61643D01*
X83386Y61680D01*
X83378Y61709D01*
X83364Y61723D01*
Y61731D01*
X83291Y61818D01*
X83203Y61876D01*
X83174Y61898D01*
X83145Y61913D01*
X83123Y61927D01*
X83116D01*
X83043Y61957D01*
X82963Y61978D01*
X82875Y62000D01*
X82788Y62015D01*
X82708Y62029D01*
X82635Y62044D01*
X82591Y62051D01*
X82576D01*
X82452Y62073D01*
X82336Y62088D01*
X82234Y62110D01*
X82132Y62132D01*
X82037Y62153D01*
X81957Y62175D01*
X81876Y62190D01*
X81811Y62212D01*
X81753Y62226D01*
X81702Y62241D01*
X81658Y62255D01*
X81621Y62270D01*
X81592Y62277D01*
X81570Y62285D01*
X81563Y62292D01*
D02*
G37*
G36*
X71758D02*
X71751D01*
X71758Y62059D01*
X71765Y61913D01*
X71773Y61789D01*
X71787Y61687D01*
X71809Y61599D01*
X71831Y61534D01*
X71846Y61483D01*
X71853Y61453D01*
X71860Y61446D01*
X71918Y61352D01*
X71977Y61264D01*
X72050Y61191D01*
X72115Y61133D01*
X72174Y61082D01*
X72225Y61045D01*
X72254Y61023D01*
X72268Y61016D01*
X72378Y60965D01*
X72487Y60929D01*
X72589Y60900D01*
X72691Y60885D01*
X72771Y60870D01*
X72844Y60863D01*
X72903D01*
X73034Y60870D01*
X73143Y60885D01*
X73238Y60914D01*
X73318Y60943D01*
X73376Y60972D01*
X73420Y61001D01*
X73449Y61016D01*
X73457Y61023D01*
X73515Y61089D01*
X73559Y61162D01*
X73595Y61228D01*
X73617Y61293D01*
X73632Y61352D01*
X73639Y61395D01*
Y61432D01*
Y61439D01*
X73632Y61497D01*
X73624Y61556D01*
X73610Y61599D01*
X73595Y61643D01*
X73580Y61680D01*
X73573Y61709D01*
X73559Y61723D01*
Y61731D01*
X73486Y61818D01*
X73398Y61876D01*
X73369Y61898D01*
X73340Y61913D01*
X73318Y61927D01*
X73311D01*
X73238Y61957D01*
X73158Y61978D01*
X73070Y62000D01*
X72983Y62015D01*
X72903Y62029D01*
X72830Y62044D01*
X72786Y62051D01*
X72771D01*
X72647Y62073D01*
X72531Y62088D01*
X72429Y62110D01*
X72327Y62132D01*
X72232Y62153D01*
X72152Y62175D01*
X72071Y62190D01*
X72006Y62212D01*
X71948Y62226D01*
X71896Y62241D01*
X71853Y62255D01*
X71816Y62270D01*
X71787Y62277D01*
X71765Y62285D01*
X71758Y62292D01*
D02*
G37*
G36*
X61960D02*
X61953D01*
X61960Y62059D01*
X61968Y61913D01*
X61975Y61789D01*
X61989Y61687D01*
X62011Y61599D01*
X62033Y61534D01*
X62048Y61483D01*
X62055Y61453D01*
X62062Y61446D01*
X62121Y61352D01*
X62179Y61264D01*
X62252Y61191D01*
X62318Y61133D01*
X62376Y61082D01*
X62427Y61045D01*
X62456Y61023D01*
X62471Y61016D01*
X62580Y60965D01*
X62689Y60929D01*
X62791Y60900D01*
X62893Y60885D01*
X62974Y60870D01*
X63046Y60863D01*
X63105D01*
X63236Y60870D01*
X63345Y60885D01*
X63440Y60914D01*
X63520Y60943D01*
X63579Y60972D01*
X63622Y61001D01*
X63652Y61016D01*
X63659Y61023D01*
X63717Y61089D01*
X63761Y61162D01*
X63797Y61228D01*
X63819Y61293D01*
X63834Y61352D01*
X63841Y61395D01*
Y61432D01*
Y61439D01*
X63834Y61497D01*
X63827Y61556D01*
X63812Y61599D01*
X63797Y61643D01*
X63783Y61680D01*
X63775Y61709D01*
X63761Y61723D01*
Y61731D01*
X63688Y61818D01*
X63600Y61876D01*
X63571Y61898D01*
X63542Y61913D01*
X63520Y61927D01*
X63513D01*
X63440Y61957D01*
X63360Y61978D01*
X63273Y62000D01*
X63185Y62015D01*
X63105Y62029D01*
X63032Y62044D01*
X62988Y62051D01*
X62974D01*
X62850Y62073D01*
X62733Y62088D01*
X62631Y62110D01*
X62529Y62132D01*
X62434Y62153D01*
X62354Y62175D01*
X62274Y62190D01*
X62208Y62212D01*
X62150Y62226D01*
X62099Y62241D01*
X62055Y62255D01*
X62019Y62270D01*
X61989Y62277D01*
X61968Y62285D01*
X61960Y62292D01*
D02*
G37*
G36*
X149484Y63684D02*
X149440D01*
X149353Y63677D01*
X149273Y63670D01*
X149119Y63626D01*
X148988Y63568D01*
X148879Y63502D01*
X148792Y63436D01*
X148726Y63378D01*
X148689Y63334D01*
X148675Y63327D01*
Y63320D01*
X148609Y63225D01*
X148551Y63116D01*
X148514Y63006D01*
X148478Y62890D01*
X148456Y62795D01*
X148442Y62707D01*
Y62678D01*
X148434Y62656D01*
Y62642D01*
Y62634D01*
X150483D01*
X150461Y62802D01*
X150417Y62955D01*
X150366Y63086D01*
X150308Y63188D01*
X150257Y63276D01*
X150206Y63342D01*
X150177Y63378D01*
X150162Y63393D01*
X150045Y63487D01*
X149929Y63560D01*
X149805Y63611D01*
X149688Y63648D01*
X149593Y63670D01*
X149513Y63677D01*
X149484Y63684D01*
D02*
G37*
G36*
X116154D02*
X116110D01*
X116023Y63677D01*
X115943Y63670D01*
X115790Y63626D01*
X115658Y63568D01*
X115549Y63502D01*
X115462Y63436D01*
X115396Y63378D01*
X115359Y63334D01*
X115345Y63327D01*
Y63320D01*
X115279Y63225D01*
X115221Y63116D01*
X115184Y63006D01*
X115148Y62890D01*
X115126Y62795D01*
X115112Y62707D01*
Y62678D01*
X115104Y62656D01*
Y62642D01*
Y62634D01*
X117153D01*
X117131Y62802D01*
X117087Y62955D01*
X117036Y63086D01*
X116978Y63188D01*
X116927Y63276D01*
X116876Y63342D01*
X116847Y63378D01*
X116832Y63393D01*
X116716Y63487D01*
X116599Y63560D01*
X116475Y63611D01*
X116358Y63648D01*
X116263Y63670D01*
X116183Y63677D01*
X116154Y63684D01*
D02*
G37*
G36*
X89888D02*
X89845D01*
X89757Y63677D01*
X89677Y63670D01*
X89524Y63626D01*
X89393Y63568D01*
X89283Y63502D01*
X89196Y63436D01*
X89130Y63378D01*
X89094Y63334D01*
X89079Y63327D01*
Y63320D01*
X89013Y63225D01*
X88955Y63116D01*
X88919Y63006D01*
X88882Y62890D01*
X88860Y62795D01*
X88846Y62707D01*
Y62678D01*
X88838Y62656D01*
Y62642D01*
Y62634D01*
X90887D01*
X90865Y62802D01*
X90821Y62955D01*
X90770Y63086D01*
X90712Y63188D01*
X90661Y63276D01*
X90610Y63342D01*
X90581Y63378D01*
X90566Y63393D01*
X90450Y63487D01*
X90333Y63560D01*
X90209Y63611D01*
X90092Y63648D01*
X89998Y63670D01*
X89917Y63677D01*
X89888Y63684D01*
D02*
G37*
G36*
X99715D02*
X99671D01*
X99584Y63677D01*
X99504Y63670D01*
X99358Y63633D01*
X99227Y63575D01*
X99117Y63509D01*
X99030Y63444D01*
X98964Y63393D01*
X98921Y63349D01*
X98906Y63342D01*
Y63334D01*
X98848Y63269D01*
X98804Y63188D01*
X98724Y63028D01*
X98665Y62853D01*
X98629Y62693D01*
X98607Y62540D01*
X98600Y62474D01*
Y62416D01*
X98593Y62372D01*
Y62336D01*
Y62314D01*
Y62306D01*
Y62175D01*
X98607Y62051D01*
X98622Y61942D01*
X98643Y61833D01*
X98665Y61738D01*
X98695Y61650D01*
X98716Y61570D01*
X98746Y61497D01*
X98775Y61439D01*
X98804Y61381D01*
X98833Y61337D01*
X98855Y61300D01*
X98877Y61271D01*
X98891Y61249D01*
X98899Y61242D01*
X98906Y61235D01*
X98964Y61177D01*
X99030Y61118D01*
X99154Y61031D01*
X99285Y60972D01*
X99402Y60929D01*
X99511Y60907D01*
X99591Y60892D01*
X99628Y60885D01*
X99671D01*
X99759Y60892D01*
X99839Y60900D01*
X99992Y60936D01*
X100123Y60994D01*
X100233Y61060D01*
X100320Y61118D01*
X100386Y61177D01*
X100430Y61213D01*
X100437Y61228D01*
X100444D01*
X100495Y61300D01*
X100546Y61373D01*
X100619Y61541D01*
X100677Y61716D01*
X100714Y61891D01*
X100736Y62044D01*
X100743Y62110D01*
Y62168D01*
X100750Y62219D01*
Y62255D01*
Y62277D01*
Y62285D01*
X100743Y62409D01*
X100736Y62532D01*
X100721Y62642D01*
X100699Y62744D01*
X100677Y62839D01*
X100656Y62926D01*
X100626Y62999D01*
X100597Y63072D01*
X100568Y63130D01*
X100539Y63188D01*
X100517Y63232D01*
X100495Y63269D01*
X100473Y63298D01*
X100459Y63320D01*
X100444Y63327D01*
Y63334D01*
X100386Y63393D01*
X100320Y63451D01*
X100196Y63538D01*
X100065Y63597D01*
X99941Y63640D01*
X99832Y63670D01*
X99752Y63677D01*
X99715Y63684D01*
D02*
G37*
G36*
X93934D02*
X93898D01*
X93818Y63677D01*
X93745Y63670D01*
X93606Y63626D01*
X93482Y63575D01*
X93380Y63509D01*
X93300Y63444D01*
X93234Y63385D01*
X93198Y63342D01*
X93183Y63334D01*
Y63327D01*
X93132Y63254D01*
X93089Y63181D01*
X93016Y63006D01*
X92965Y62824D01*
X92928Y62649D01*
X92914Y62562D01*
X92906Y62481D01*
X92899Y62409D01*
Y62350D01*
X92892Y62299D01*
Y62263D01*
Y62234D01*
Y62226D01*
Y62102D01*
X92906Y61986D01*
X92921Y61884D01*
X92936Y61782D01*
X92957Y61694D01*
X92987Y61607D01*
X93008Y61534D01*
X93037Y61468D01*
X93067Y61410D01*
X93089Y61352D01*
X93118Y61315D01*
X93140Y61279D01*
X93154Y61249D01*
X93169Y61228D01*
X93183Y61220D01*
Y61213D01*
X93234Y61155D01*
X93293Y61104D01*
X93409Y61023D01*
X93526Y60965D01*
X93635Y60929D01*
X93730Y60900D01*
X93810Y60892D01*
X93839Y60885D01*
X93876D01*
X93949Y60892D01*
X94022Y60900D01*
X94153Y60936D01*
X94277Y60994D01*
X94379Y61060D01*
X94459Y61118D01*
X94525Y61177D01*
X94561Y61213D01*
X94568Y61228D01*
X94576D01*
X94627Y61300D01*
X94670Y61373D01*
X94743Y61541D01*
X94794Y61716D01*
X94831Y61884D01*
X94853Y62037D01*
X94860Y62102D01*
Y62161D01*
X94867Y62212D01*
Y62248D01*
Y62270D01*
Y62277D01*
Y62409D01*
X94853Y62532D01*
X94838Y62649D01*
X94824Y62751D01*
X94802Y62846D01*
X94780Y62933D01*
X94758Y63014D01*
X94729Y63086D01*
X94700Y63145D01*
X94678Y63196D01*
X94656Y63240D01*
X94634Y63276D01*
X94612Y63305D01*
X94605Y63327D01*
X94590Y63334D01*
Y63342D01*
X94539Y63400D01*
X94481Y63458D01*
X94364Y63538D01*
X94248Y63604D01*
X94138Y63640D01*
X94044Y63670D01*
X93963Y63677D01*
X93934Y63684D01*
D02*
G37*
G36*
X76489Y63706D02*
X76453D01*
X76380Y63699D01*
X76307Y63692D01*
X76176Y63655D01*
X76059Y63597D01*
X75957Y63531D01*
X75877Y63466D01*
X75819Y63415D01*
X75782Y63371D01*
X75767Y63363D01*
Y63356D01*
X75717Y63291D01*
X75673Y63210D01*
X75600Y63043D01*
X75549Y62875D01*
X75512Y62707D01*
X75490Y62554D01*
X75483Y62489D01*
Y62430D01*
X75476Y62379D01*
Y62343D01*
Y62321D01*
Y62314D01*
Y62182D01*
X75490Y62059D01*
X75505Y61942D01*
X75520Y61833D01*
X75542Y61738D01*
X75571Y61650D01*
X75600Y61563D01*
X75622Y61497D01*
X75651Y61432D01*
X75680Y61381D01*
X75702Y61330D01*
X75731Y61293D01*
X75746Y61264D01*
X75760Y61242D01*
X75775Y61235D01*
Y61228D01*
X75833Y61169D01*
X75891Y61118D01*
X76008Y61031D01*
X76125Y60972D01*
X76234Y60929D01*
X76336Y60907D01*
X76409Y60892D01*
X76438Y60885D01*
X76482D01*
X76555Y60892D01*
X76628Y60900D01*
X76759Y60936D01*
X76876Y60994D01*
X76978Y61053D01*
X77058Y61111D01*
X77116Y61169D01*
X77153Y61206D01*
X77167Y61220D01*
X77218Y61286D01*
X77262Y61359D01*
X77335Y61526D01*
X77379Y61694D01*
X77415Y61869D01*
X77437Y62022D01*
X77444Y62088D01*
Y62146D01*
X77451Y62197D01*
Y62234D01*
Y62255D01*
Y62263D01*
Y62394D01*
X77437Y62511D01*
X77422Y62620D01*
X77408Y62729D01*
X77379Y62824D01*
X77357Y62911D01*
X77328Y62992D01*
X77298Y63065D01*
X77276Y63123D01*
X77247Y63181D01*
X77218Y63225D01*
X77196Y63269D01*
X77182Y63298D01*
X77167Y63320D01*
X77153Y63327D01*
Y63334D01*
X77094Y63400D01*
X77036Y63458D01*
X76978Y63509D01*
X76912Y63553D01*
X76795Y63619D01*
X76686Y63662D01*
X76591Y63684D01*
X76518Y63699D01*
X76489Y63706D01*
D02*
G37*
G36*
X162988Y10513D02*
X162937Y10345D01*
X162879Y10170D01*
X162820Y9995D01*
X162762Y9827D01*
X162733Y9755D01*
X162711Y9682D01*
X162689Y9616D01*
X162667Y9565D01*
X162653Y9521D01*
X162638Y9485D01*
X162631Y9463D01*
Y9456D01*
X162106Y8071D01*
X163812D01*
X163265Y9543D01*
X163199Y9725D01*
X163148Y9900D01*
X163097Y10061D01*
X163061Y10207D01*
X163032Y10330D01*
X163017Y10382D01*
X163010Y10433D01*
X162995Y10462D01*
Y10491D01*
X162988Y10505D01*
Y10513D01*
D02*
G37*
G36*
X153198D02*
X153146Y10345D01*
X153088Y10170D01*
X153030Y9995D01*
X152971Y9827D01*
X152942Y9755D01*
X152920Y9682D01*
X152899Y9616D01*
X152877Y9565D01*
X152862Y9521D01*
X152848Y9485D01*
X152840Y9463D01*
Y9456D01*
X152315Y8071D01*
X154021D01*
X153474Y9543D01*
X153409Y9725D01*
X153358Y9900D01*
X153307Y10061D01*
X153270Y10207D01*
X153241Y10330D01*
X153227Y10382D01*
X153219Y10433D01*
X153205Y10462D01*
Y10491D01*
X153198Y10505D01*
Y10513D01*
D02*
G37*
G36*
X128885Y10549D02*
X128820D01*
X128638Y10542D01*
X128463Y10513D01*
X128309Y10469D01*
X128178Y10425D01*
X128069Y10374D01*
X128025Y10352D01*
X127989Y10338D01*
X127952Y10316D01*
X127930Y10309D01*
X127923Y10294D01*
X127916D01*
X127777Y10192D01*
X127653Y10075D01*
X127544Y9959D01*
X127456Y9842D01*
X127391Y9740D01*
X127340Y9653D01*
X127325Y9623D01*
X127311Y9601D01*
X127303Y9587D01*
Y9580D01*
X127231Y9405D01*
X127180Y9215D01*
X127143Y9040D01*
X127121Y8873D01*
X127107Y8792D01*
X127099Y8727D01*
Y8661D01*
X127092Y8610D01*
Y8566D01*
Y8537D01*
Y8515D01*
Y8508D01*
X127099Y8333D01*
X127114Y8165D01*
X127136Y8005D01*
X127165Y7859D01*
X127209Y7728D01*
X127245Y7604D01*
X127289Y7487D01*
X127332Y7385D01*
X127384Y7298D01*
X127427Y7218D01*
X127464Y7152D01*
X127500Y7101D01*
X127537Y7057D01*
X127559Y7021D01*
X127573Y7006D01*
X127580Y6999D01*
X127675Y6904D01*
X127777Y6824D01*
X127879Y6758D01*
X127981Y6693D01*
X128083Y6642D01*
X128193Y6605D01*
X128287Y6569D01*
X128390Y6540D01*
X128477Y6518D01*
X128565Y6503D01*
X128638Y6489D01*
X128703Y6481D01*
X128754D01*
X128791Y6474D01*
X128827D01*
X128965Y6481D01*
X129097Y6496D01*
X129213Y6525D01*
X129330Y6554D01*
X129439Y6598D01*
X129541Y6642D01*
X129636Y6685D01*
X129724Y6737D01*
X129797Y6788D01*
X129862Y6831D01*
X129920Y6875D01*
X129972Y6919D01*
X130008Y6948D01*
X130037Y6977D01*
X130052Y6992D01*
X130059Y6999D01*
X130147Y7101D01*
X130219Y7210D01*
X130285Y7327D01*
X130343Y7444D01*
X130387Y7568D01*
X130431Y7684D01*
X130489Y7918D01*
X130504Y8020D01*
X130518Y8122D01*
X130533Y8209D01*
X130540Y8282D01*
X130547Y8348D01*
Y8399D01*
Y8428D01*
Y8435D01*
X130540Y8639D01*
X130526Y8829D01*
X130504Y9011D01*
X130467Y9171D01*
X130431Y9317D01*
X130387Y9448D01*
X130336Y9572D01*
X130292Y9674D01*
X130241Y9769D01*
X130198Y9849D01*
X130154Y9915D01*
X130117Y9966D01*
X130081Y10010D01*
X130059Y10039D01*
X130044Y10053D01*
X130037Y10061D01*
X129942Y10148D01*
X129840Y10221D01*
X129738Y10287D01*
X129629Y10345D01*
X129527Y10389D01*
X129425Y10433D01*
X129235Y10491D01*
X129148Y10505D01*
X129068Y10520D01*
X129002Y10535D01*
X128936Y10542D01*
X128885Y10549D01*
D02*
G37*
G36*
X157907Y18489D02*
X157790D01*
X157717Y18474D01*
X157579Y18438D01*
X157455Y18380D01*
X157353Y18321D01*
X157265Y18256D01*
X157200Y18197D01*
X157163Y18161D01*
X157149Y18154D01*
Y18146D01*
X157098Y18081D01*
X157047Y18008D01*
X156974Y17840D01*
X156923Y17672D01*
X156886Y17505D01*
X156864Y17359D01*
X156857Y17293D01*
Y17235D01*
X156850Y17191D01*
Y17155D01*
Y17133D01*
Y17126D01*
Y17002D01*
X156864Y16878D01*
X156879Y16768D01*
X156894Y16674D01*
X156915Y16579D01*
X156945Y16491D01*
X156966Y16419D01*
X156996Y16353D01*
X157025Y16287D01*
X157047Y16236D01*
X157076Y16193D01*
X157098Y16163D01*
X157112Y16134D01*
X157127Y16112D01*
X157141Y16105D01*
Y16098D01*
X157200Y16039D01*
X157258Y15988D01*
X157375Y15908D01*
X157499Y15850D01*
X157608Y15813D01*
X157710Y15784D01*
X157790Y15777D01*
X157819Y15770D01*
X157863D01*
X157943Y15777D01*
X158016Y15784D01*
X158155Y15821D01*
X158279Y15872D01*
X158381Y15937D01*
X158468Y15996D01*
X158527Y16047D01*
X158563Y16083D01*
X158578Y16098D01*
X158628Y16163D01*
X158672Y16236D01*
X158745Y16404D01*
X158789Y16572D01*
X158825Y16747D01*
X158847Y16900D01*
X158854Y16973D01*
Y17031D01*
X158862Y17082D01*
Y17118D01*
Y17140D01*
Y17147D01*
Y17271D01*
X158847Y17381D01*
X158833Y17483D01*
X158818Y17585D01*
X158796Y17672D01*
X158774Y17753D01*
X158745Y17833D01*
X158716Y17898D01*
X158694Y17957D01*
X158665Y18008D01*
X158643Y18052D01*
X158621Y18081D01*
X158607Y18110D01*
X158592Y18132D01*
X158578Y18139D01*
Y18146D01*
X158519Y18205D01*
X158461Y18263D01*
X158344Y18343D01*
X158228Y18409D01*
X158111Y18445D01*
X158016Y18474D01*
X157936Y18482D01*
X157907Y18489D01*
D02*
G37*
G36*
X184763Y17097D02*
X184756D01*
X184763Y16863D01*
X184771Y16717D01*
X184778Y16593D01*
X184792Y16491D01*
X184814Y16404D01*
X184836Y16338D01*
X184851Y16287D01*
X184858Y16258D01*
X184865Y16251D01*
X184924Y16156D01*
X184982Y16069D01*
X185055Y15996D01*
X185120Y15937D01*
X185179Y15886D01*
X185230Y15850D01*
X185259Y15828D01*
X185274Y15821D01*
X185383Y15770D01*
X185492Y15733D01*
X185594Y15704D01*
X185696Y15689D01*
X185776Y15675D01*
X185849Y15668D01*
X185908D01*
X186039Y15675D01*
X186148Y15689D01*
X186243Y15719D01*
X186323Y15748D01*
X186381Y15777D01*
X186425Y15806D01*
X186454Y15821D01*
X186462Y15828D01*
X186520Y15894D01*
X186564Y15967D01*
X186600Y16032D01*
X186622Y16098D01*
X186637Y16156D01*
X186644Y16200D01*
Y16236D01*
Y16243D01*
X186637Y16302D01*
X186629Y16360D01*
X186615Y16404D01*
X186600Y16448D01*
X186586Y16484D01*
X186578Y16513D01*
X186564Y16528D01*
Y16535D01*
X186491Y16623D01*
X186403Y16681D01*
X186374Y16703D01*
X186345Y16717D01*
X186323Y16732D01*
X186316D01*
X186243Y16761D01*
X186163Y16783D01*
X186075Y16805D01*
X185988Y16819D01*
X185908Y16834D01*
X185835Y16849D01*
X185791Y16856D01*
X185776D01*
X185652Y16878D01*
X185536Y16892D01*
X185434Y16914D01*
X185332Y16936D01*
X185237Y16958D01*
X185157Y16980D01*
X185077Y16994D01*
X185011Y17016D01*
X184953Y17031D01*
X184902Y17045D01*
X184858Y17060D01*
X184821Y17075D01*
X184792Y17082D01*
X184771Y17089D01*
X184763Y17097D01*
D02*
G37*
G36*
X153001D02*
X152993D01*
X153001Y16863D01*
X153008Y16717D01*
X153015Y16593D01*
X153030Y16491D01*
X153052Y16404D01*
X153074Y16338D01*
X153088Y16287D01*
X153095Y16258D01*
X153103Y16251D01*
X153161Y16156D01*
X153219Y16069D01*
X153292Y15996D01*
X153358Y15937D01*
X153416Y15886D01*
X153467Y15850D01*
X153496Y15828D01*
X153511Y15821D01*
X153620Y15770D01*
X153730Y15733D01*
X153832Y15704D01*
X153934Y15689D01*
X154014Y15675D01*
X154087Y15668D01*
X154145D01*
X154276Y15675D01*
X154386Y15689D01*
X154481Y15719D01*
X154561Y15748D01*
X154619Y15777D01*
X154663Y15806D01*
X154692Y15821D01*
X154699Y15828D01*
X154757Y15894D01*
X154801Y15967D01*
X154838Y16032D01*
X154860Y16098D01*
X154874Y16156D01*
X154882Y16200D01*
Y16236D01*
Y16243D01*
X154874Y16302D01*
X154867Y16360D01*
X154852Y16404D01*
X154838Y16448D01*
X154823Y16484D01*
X154816Y16513D01*
X154801Y16528D01*
Y16535D01*
X154728Y16623D01*
X154641Y16681D01*
X154612Y16703D01*
X154583Y16717D01*
X154561Y16732D01*
X154553D01*
X154481Y16761D01*
X154400Y16783D01*
X154313Y16805D01*
X154225Y16819D01*
X154145Y16834D01*
X154072Y16849D01*
X154028Y16856D01*
X154014D01*
X153890Y16878D01*
X153773Y16892D01*
X153671Y16914D01*
X153569Y16936D01*
X153474Y16958D01*
X153394Y16980D01*
X153314Y16994D01*
X153249Y17016D01*
X153190Y17031D01*
X153139Y17045D01*
X153095Y17060D01*
X153059Y17075D01*
X153030Y17082D01*
X153008Y17089D01*
X153001Y17097D01*
D02*
G37*
G36*
X173872Y18489D02*
X173828D01*
X173741Y18482D01*
X173661Y18474D01*
X173507Y18430D01*
X173376Y18372D01*
X173267Y18307D01*
X173179Y18241D01*
X173114Y18183D01*
X173077Y18139D01*
X173063Y18132D01*
Y18124D01*
X172997Y18030D01*
X172939Y17920D01*
X172902Y17811D01*
X172866Y17694D01*
X172844Y17600D01*
X172829Y17512D01*
Y17483D01*
X172822Y17461D01*
Y17446D01*
Y17439D01*
X174871D01*
X174849Y17607D01*
X174805Y17760D01*
X174754Y17891D01*
X174696Y17993D01*
X174645Y18081D01*
X174594Y18146D01*
X174565Y18183D01*
X174550Y18197D01*
X174433Y18292D01*
X174317Y18365D01*
X174193Y18416D01*
X174076Y18452D01*
X173981Y18474D01*
X173901Y18482D01*
X173872Y18489D01*
D02*
G37*
G36*
X161720D02*
X161676D01*
X161588Y18482D01*
X161508Y18474D01*
X161355Y18430D01*
X161224Y18372D01*
X161114Y18307D01*
X161027Y18241D01*
X160961Y18183D01*
X160925Y18139D01*
X160910Y18132D01*
Y18124D01*
X160845Y18030D01*
X160786Y17920D01*
X160750Y17811D01*
X160714Y17694D01*
X160692Y17600D01*
X160677Y17512D01*
Y17483D01*
X160670Y17461D01*
Y17446D01*
Y17439D01*
X162718D01*
X162696Y17607D01*
X162653Y17760D01*
X162602Y17891D01*
X162543Y17993D01*
X162492Y18081D01*
X162441Y18146D01*
X162412Y18183D01*
X162398Y18197D01*
X162281Y18292D01*
X162164Y18365D01*
X162040Y18416D01*
X161924Y18452D01*
X161829Y18474D01*
X161749Y18482D01*
X161720Y18489D01*
D02*
G37*
G36*
X150904Y75437D02*
X149315D01*
X149118Y75430D01*
X148950Y75401D01*
X148805Y75364D01*
X148695Y75320D01*
X148600Y75277D01*
X148542Y75240D01*
X148506Y75211D01*
X148491Y75204D01*
X148404Y75109D01*
X148338Y75014D01*
X148294Y74912D01*
X148258Y74825D01*
X148243Y74737D01*
X148236Y74672D01*
X148229Y74628D01*
Y74620D01*
Y74613D01*
X148236Y74526D01*
X148251Y74438D01*
X148272Y74365D01*
X148294Y74300D01*
X148324Y74241D01*
X148345Y74198D01*
X148360Y74168D01*
X148367Y74161D01*
X148418Y74088D01*
X148484Y74023D01*
X148549Y73972D01*
X148615Y73928D01*
X148673Y73899D01*
X148717Y73877D01*
X148746Y73862D01*
X148761Y73855D01*
X148863Y73826D01*
X148980Y73804D01*
X149096Y73789D01*
X149213Y73782D01*
X149315Y73775D01*
X149402Y73768D01*
X150904D01*
Y75437D01*
D02*
G37*
G36*
X145823Y75401D02*
X144380D01*
X144248Y75393D01*
X144139Y75386D01*
X144052Y75379D01*
X143993Y75364D01*
X143949Y75357D01*
X143920Y75349D01*
X143913D01*
X143818Y75313D01*
X143738Y75269D01*
X143665Y75226D01*
X143599Y75174D01*
X143556Y75124D01*
X143519Y75087D01*
X143498Y75058D01*
X143490Y75051D01*
X143439Y74963D01*
X143395Y74876D01*
X143366Y74781D01*
X143352Y74701D01*
X143337Y74628D01*
X143330Y74562D01*
Y74526D01*
Y74518D01*
Y74511D01*
X143344Y74358D01*
X143374Y74227D01*
X143417Y74110D01*
X143468Y74015D01*
X143519Y73943D01*
X143563Y73884D01*
X143592Y73855D01*
X143607Y73840D01*
X143658Y73797D01*
X143723Y73760D01*
X143862Y73702D01*
X144015Y73658D01*
X144168Y73629D01*
X144307Y73615D01*
X144365Y73607D01*
X144416D01*
X144467Y73600D01*
X145823D01*
Y75401D01*
D02*
G37*
G36*
X108600Y75437D02*
X107011D01*
X106814Y75430D01*
X106647Y75401D01*
X106501Y75364D01*
X106391Y75320D01*
X106297Y75277D01*
X106238Y75240D01*
X106202Y75211D01*
X106187Y75204D01*
X106100Y75109D01*
X106034Y75014D01*
X105990Y74912D01*
X105954Y74825D01*
X105939Y74737D01*
X105932Y74672D01*
X105925Y74628D01*
Y74620D01*
Y74613D01*
X105932Y74526D01*
X105947Y74438D01*
X105969Y74365D01*
X105990Y74300D01*
X106020Y74241D01*
X106042Y74198D01*
X106056Y74168D01*
X106063Y74161D01*
X106114Y74088D01*
X106180Y74023D01*
X106246Y73972D01*
X106311Y73928D01*
X106369Y73899D01*
X106413Y73877D01*
X106442Y73862D01*
X106457Y73855D01*
X106559Y73826D01*
X106676Y73804D01*
X106792Y73789D01*
X106909Y73782D01*
X107011Y73775D01*
X107098Y73768D01*
X108600D01*
Y75437D01*
D02*
G37*
G36*
X112617Y75510D02*
X112551D01*
X112369Y75503D01*
X112194Y75473D01*
X112041Y75430D01*
X111910Y75386D01*
X111801Y75335D01*
X111757Y75313D01*
X111720Y75299D01*
X111684Y75277D01*
X111662Y75269D01*
X111655Y75255D01*
X111647D01*
X111509Y75153D01*
X111385Y75036D01*
X111276Y74919D01*
X111188Y74803D01*
X111123Y74701D01*
X111072Y74613D01*
X111057Y74584D01*
X111042Y74562D01*
X111035Y74548D01*
Y74540D01*
X110962Y74365D01*
X110911Y74176D01*
X110875Y74001D01*
X110853Y73833D01*
X110838Y73753D01*
X110831Y73687D01*
Y73622D01*
X110824Y73571D01*
Y73527D01*
Y73498D01*
Y73476D01*
Y73469D01*
X110831Y73294D01*
X110846Y73126D01*
X110867Y72966D01*
X110897Y72820D01*
X110940Y72689D01*
X110977Y72565D01*
X111021Y72448D01*
X111064Y72346D01*
X111115Y72259D01*
X111159Y72178D01*
X111196Y72113D01*
X111232Y72062D01*
X111268Y72018D01*
X111290Y71982D01*
X111305Y71967D01*
X111312Y71960D01*
X111407Y71865D01*
X111509Y71785D01*
X111611Y71719D01*
X111713Y71653D01*
X111815Y71602D01*
X111925Y71566D01*
X112019Y71530D01*
X112121Y71500D01*
X112209Y71478D01*
X112296Y71464D01*
X112369Y71449D01*
X112435Y71442D01*
X112486D01*
X112522Y71435D01*
X112559D01*
X112697Y71442D01*
X112828Y71457D01*
X112945Y71486D01*
X113062Y71515D01*
X113171Y71559D01*
X113273Y71602D01*
X113368Y71646D01*
X113455Y71697D01*
X113528Y71748D01*
X113594Y71792D01*
X113652Y71836D01*
X113703Y71879D01*
X113740Y71909D01*
X113769Y71938D01*
X113783Y71952D01*
X113791Y71960D01*
X113878Y72062D01*
X113951Y72171D01*
X114017Y72288D01*
X114075Y72404D01*
X114119Y72528D01*
X114163Y72645D01*
X114221Y72878D01*
X114235Y72980D01*
X114250Y73082D01*
X114265Y73170D01*
X114272Y73243D01*
X114279Y73308D01*
Y73359D01*
Y73388D01*
Y73396D01*
X114272Y73600D01*
X114257Y73789D01*
X114235Y73972D01*
X114199Y74132D01*
X114163Y74278D01*
X114119Y74409D01*
X114068Y74533D01*
X114024Y74635D01*
X113973Y74730D01*
X113929Y74810D01*
X113885Y74876D01*
X113849Y74927D01*
X113813Y74970D01*
X113791Y75000D01*
X113776Y75014D01*
X113769Y75021D01*
X113674Y75109D01*
X113572Y75182D01*
X113470Y75247D01*
X113361Y75306D01*
X113259Y75349D01*
X113156Y75393D01*
X112967Y75451D01*
X112880Y75466D01*
X112799Y75481D01*
X112734Y75495D01*
X112668Y75503D01*
X112617Y75510D01*
D02*
G37*
%LPD*%
M02*
