G04*
G04 #@! TF.GenerationSoftware,Altium Limited,Altium Designer,21.6.1 (37)*
G04*
G04 Layer_Color=2752767*
%FSLAX25Y25*%
%MOIN*%
G70*
G04*
G04 #@! TF.SameCoordinates,149CC93B-E584-47E2-A3B6-F303EE062418*
G04*
G04*
G04 #@! TF.FilePolarity,Positive*
G04*
G01*
G75*
%ADD37C,0.00200*%
%ADD38C,0.00267*%
D37*
X27822Y28570D02*
Y30170D01*
X29422D01*
Y28570D01*
X27822D01*
Y38570D02*
Y40170D01*
X29422D01*
Y38570D01*
X27822D01*
Y48570D02*
Y50170D01*
X29422D01*
Y48570D01*
X27822D01*
X17822Y28570D02*
Y30170D01*
X19422D01*
Y28570D01*
X17822D01*
Y38570D02*
Y40170D01*
X19422D01*
Y38570D01*
X17822D01*
Y48570D02*
Y50170D01*
X19422D01*
Y48570D01*
X17822D01*
X101181Y5105D02*
X100381Y6706D01*
X101981D01*
X101181Y5105D01*
X114173Y50381D02*
X113373Y51981D01*
X114973D01*
X114173Y50381D01*
X72835Y18885D02*
X72035Y20485D01*
X73635D01*
X72835Y18885D01*
X159449Y24791D02*
X158649Y26391D01*
X160249D01*
X159449Y24791D01*
X49213Y50381D02*
X48413Y51981D01*
X50013D01*
X49213Y50381D01*
X55118Y68098D02*
X54318Y69698D01*
X55918D01*
X55118Y68098D01*
D38*
X189776Y44370D02*
G03*
X189776Y44370I-800J0D01*
G01*
Y39370D02*
G03*
X189776Y39370I-800J0D01*
G01*
Y34370D02*
G03*
X189776Y34370I-800J0D01*
G01*
M02*
